<svg width="127" height="48" fill="none" xmlns="http://www.w3.org/2000/svg"><path fill-rule="evenodd" clip-rule="evenodd" d="M122.957 31.98c.076.87.772 1.977 1.977 1.977h.705a.5.5 0 00.498-.498V17.953h-.004a.495.495 0 00-.494-.47h-2.184a.495.495 0 00-.494.47h-.004v1.26c-1.338-1.65-3.449-2.334-5.565-2.334-4.81 0-8.709 3.902-8.709 8.716 0 4.815 3.899 8.717 8.709 8.717 2.116 0 4.423-.82 5.565-2.334v.002zm-5.557-.718c-3.059 0-5.539-2.537-5.539-5.667 0-3.129 2.48-5.665 5.539-5.665 3.061 0 5.54 2.536 5.54 5.665 0 3.13-2.479 5.667-5.54 5.667zm-11.48-6.772c0-4.523-2.851-7.574-7.398-7.574-2.17 0-3.949 1.256-4.577 2.335-.136-.844-.584-1.73-1.971-1.73h-.708a.499.499 0 00-.497.497v15.507h.003c.014.261.23.47.494.47h2.185a.518.518 0 00.098-.01c.014-.002.028-.008.042-.012.016-.005.033-.009.049-.015.019-.008.037-.02.055-.03l.026-.014a.509.509 0 00.061-.049l.01-.008a.495.495 0 00.153-.332h.003v-9.16a4.396 4.396 0 118.79 0l.002 7.657.001-.003.001.021v1.485h.003c.014.261.23.47.494.47h2.185a.517.517 0 00.098-.01c.013-.002.025-.007.038-.01.017-.006.036-.01.053-.017.018-.008.034-.018.051-.028l.031-.016a.564.564 0 00.057-.045c.004-.005.01-.008.014-.012a.513.513 0 00.056-.064l.004-.005a.487.487 0 00.092-.261v-.002h.003l-.001-9.035zm-22.752 7.49c.077.87.772 1.977 1.977 1.977h.705a.499.499 0 00.497-.498V17.953h-.002a.497.497 0 00-.495-.47h-2.184c-.265 0-.48.21-.495.47h-.003v1.26c-1.338-1.65-3.449-2.334-5.565-2.334-4.81 0-8.71 3.902-8.71 8.716 0 4.815 3.9 8.717 8.71 8.717 2.116 0 4.423-.82 5.565-2.334v.002zm-5.556-.718c-3.06 0-5.54-2.537-5.54-5.667 0-3.129 2.48-5.665 5.54-5.665 3.059 0 5.539 2.536 5.539 5.665 0 3.13-2.48 5.667-5.54 5.667zM55.974 29.76c1.459 1.01 3.05 1.502 4.58 1.502 1.458 0 2.965-.756 2.965-2.072 0-1.758-3.283-2.03-5.346-2.733-2.063-.701-3.84-2.152-3.84-4.5 0-3.594 3.2-5.079 6.186-5.079 1.892 0 3.845.625 5.11 1.52.436.33.171.71.171.71l-1.208 1.727c-.136.194-.373.362-.714.152-.341-.21-1.537-1.058-3.359-1.058s-2.92.843-2.92 1.886c0 1.252 1.427 1.646 3.098 2.072 2.912.786 6.088 1.73 6.088 5.303 0 3.166-2.96 5.123-6.23 5.123-2.48 0-4.59-.707-6.36-2.007-.368-.37-.111-.712-.111-.712l1.202-1.719c.245-.32.553-.209.688-.115zm-8.398 2.22c.076.87.772 1.977 1.977 1.977h.705a.499.499 0 00.497-.498V17.953h-.003a.497.497 0 00-.494-.47h-2.185c-.264 0-.48.21-.495.47h-.002v1.26c-1.339-1.65-3.45-2.334-5.565-2.334-4.81 0-8.71 3.902-8.71 8.716 0 4.815 3.9 8.717 8.71 8.717 2.116 0 4.422-.82 5.564-2.334v.002zm-5.557-.718c-3.06 0-5.54-2.537-5.54-5.667 0-3.129 2.48-5.665 5.54-5.665s5.54 2.536 5.54 5.665c0 3.13-2.48 5.667-5.54 5.667z" fill="#0D0E10"/><path fill-rule="evenodd" clip-rule="evenodd" d="M21.09 26.188a5.861 5.861 0 100 11.723 5.861 5.861 0 000-11.723zm-15.229 0a5.861 5.861 0 100 11.723 5.862 5.862 0 100-11.722zm13.476-7.327a5.862 5.862 0 11-11.723 0 5.862 5.862 0 0111.723 0z" fill="#F06A6A"/></svg>