<svg width="122" height="48" fill="none" xmlns="http://www.w3.org/2000/svg"><g clip-path="url(#clip0_797_9625)"><path d="M38.097 32.426l1.468-3.431c1.608 1.19 3.704 1.82 5.802 1.82 1.537 0 2.516-.595 2.516-1.505-.035-2.52-9.262-.56-9.332-6.899-.035-3.221 2.831-5.707 6.886-5.707 2.41 0 4.823.595 6.535 1.961L50.6 22.17c-1.575-1.013-3.521-1.72-5.373-1.72-1.258 0-2.097.595-2.097 1.366.035 2.486 9.332 1.12 9.436 7.179 0 3.292-2.796 5.603-6.78 5.603-2.936 0-5.627-.7-7.69-2.172h.001zm58.458-4.674a4.259 4.259 0 01-3.711 2.17 4.268 4.268 0 01-4.264-4.271 4.268 4.268 0 014.264-4.272 4.26 4.26 0 013.711 2.17l4.082-2.265a8.924 8.924 0 00-7.793-4.58c-4.932 0-8.93 4.005-8.93 8.947 0 4.94 3.998 8.947 8.93 8.947a8.924 8.924 0 007.793-4.58l-4.082-2.266zm-41.34 6.495h5.102V9.256h-5.102v24.991zm47.999-24.991v24.991h5.102V26.76l6.047 7.487h6.522l-7.689-8.895 7.129-8.3h-6.242l-5.767 6.901V9.256h-5.102zm-27.176 7.798v2.031c-.839-1.4-2.901-2.381-5.068-2.381-4.473 0-8.003 3.957-8.003 8.93 0 4.971 3.53 8.964 8.003 8.964 2.167 0 4.23-.98 5.068-2.382v2.031h5.102V17.054h-5.102zm0 10.733c-.734 1.226-2.272 2.135-3.984 2.135a4.267 4.267 0 01-4.264-4.271 4.268 4.268 0 014.264-4.272c1.712 0 3.25.945 3.984 2.205v4.203z" fill="#18181A"/><path d="M11.15 8.704a2.997 2.997 0 00-2.767 4.147 2.998 2.998 0 002.767 1.852h2.994v-3a2.997 2.997 0 00-2.994-3zm0 8H3.166a2.997 2.997 0 00-2.994 3c0 1.656 1.34 3 2.994 3h7.984a2.997 2.997 0 002.994-3c0-1.657-1.34-3-2.994-3z" fill="#36C5F0"/><path d="M30.113 19.704c0-1.657-1.34-3-2.994-3a2.997 2.997 0 00-2.994 3v3h2.994a2.998 2.998 0 002.994-3zm-7.984 0v-8a2.997 2.997 0 00-2.995-3 2.997 2.997 0 00-2.993 3v8c0 1.657 1.34 3 2.994 3a2.997 2.997 0 002.994-3" fill="#2EB67D"/><path d="M19.134 38.704a2.997 2.997 0 002.995-3 2.997 2.997 0 00-2.995-3h-2.993v3c0 1.656 1.34 3 2.994 3zm0-8h7.985a2.997 2.997 0 002.994-3 2.998 2.998 0 00-2.994-3h-7.985a2.997 2.997 0 00-2.766 4.147 2.997 2.997 0 002.767 1.852" fill="#ECB22E"/><path d="M.172 27.703a2.997 2.997 0 002.994 3 2.997 2.997 0 002.994-3v-3H3.166a2.997 2.997 0 00-2.994 3zm7.984 0v8c0 1.657 1.34 3 2.994 3a2.997 2.997 0 002.994-3v-8a2.996 2.996 0 00-2.994-3 2.997 2.997 0 00-2.994 3z" fill="#E01E5A"/></g><defs><clipPath id="clip0_797_9625"><path fill="#fff" transform="translate(.172)" d="M0 0h121v48H0z"/></clipPath></defs></svg>