<svg width="262" height="23" fill="none" xmlns="http://www.w3.org/2000/svg"><path d="M211.554 2.075c.182-.023.342-.046.478-.046 2.599 0 5.221-.046 7.819.046 1.391.045 2.758.341 3.898 1.253.684.547 1.117 1.231 1.231 2.075.182 1.322.069 2.576-.912 3.601-.319.32-.684.593-1.071.935.228.114.456.25.684.365 1.641.912 2.439 2.348 2.507 4.194.069 1.596-.319 3.054-1.573 4.149-.843.73-1.823 1.162-2.895 1.367a19.78 19.78 0 01-2.849.297c-2.166.045-4.354.023-6.519.023-.251 0-.479-.046-.775-.069-.023-6.109-.023-12.127-.023-18.19zm1.527 16.8c.16.023.296.045.41.045h5.243c1.14 0 2.28-.09 3.351-.479 1.254-.433 2.211-1.208 2.53-2.552.114-.502.092-1.05.069-1.573-.069-1.231-.684-2.143-1.755-2.713-1.14-.615-2.371-.866-3.625-.889-1.345-.023-2.69-.023-4.012-.023h-2.165c-.206.661-.206 7.409-.046 8.184zm-.023-9.688c.114.045.16.068.205.068 2.12 0 4.24.046 6.36-.023 1.003-.023 1.983-.228 2.872-.798 1.3-.843 1.642-3.373-.136-4.308-.912-.479-1.87-.615-2.85-.66-1.915-.07-3.852-.024-5.767-.024-.729 0-.798.069-.798.844v4.171c.023.274.091.525.114.73zM86.386 20.333c-.502.046-.89.069-1.39.091v-7.203c0-2.348 0-4.696-.092-7.066-1.436 1.869-2.735 3.83-4.057 5.767-1.323 1.938-2.645 3.852-4.035 5.881-.274-.365-.525-.661-.752-.98-2.348-3.42-4.696-6.862-7.044-10.28-.091-.138-.205-.252-.41-.502-.023.387-.046.638-.046.912v12.674c-.023.684-.114.775-.798.775-.547-.023-.615-.091-.661-.593-.023-.182 0-.365 0-.524V2.507c0-.319.046-.638.137-.98 3.26 4.49 6.314 9.095 9.55 13.723 1.665-2.302 3.17-4.605 4.72-6.884 1.55-2.28 3.123-4.56 4.764-6.998.068.319.136.456.136.615v17.302c-.022.342-.022.638-.022 1.048zm-22.591-9.209c.16 4.901-4.012 9.506-9.278 9.528-5.334 0-9.574-4.354-9.482-9.71.09-4.924 4.057-9.324 9.574-9.3 5.197.045 9.346 4.444 9.186 9.482zM54.472 3.1c-4.354-.068-8.047 3.533-8.024 8.047.023 4.536 3.579 8.092 8.115 8.07 4.422-.023 7.819-3.853 7.819-8.116.023-4.285-3.647-8.115-7.91-8zm109.85 8.001c.045 5.13-4.126 9.552-9.346 9.552-5.084 0-9.437-3.944-9.46-9.506-.023-5.289 4.148-9.46 9.483-9.483 5.197-.023 9.346 4.24 9.323 9.437zm-17.347-.022c-.114 4.285 3.396 8.07 7.864 8.137 4.468.069 8.024-3.647 8.047-8.137.022-4.24-3.579-8.07-8.093-8.002-4.217.069-7.91 3.762-7.818 8.002zM262 2.097v1.254h-12.948c-.205.615-.228 5.129-.045 5.95h9.391v1.345h-9.46c-.023.319-.045.57-.045.82v6.68c0 .888.022.91.889.91h11.306c.296 0 .593.046.912.07v1.276c-4.833.068-9.62.023-14.384.023-.182-.661-.228-17.006-.091-18.305.524-.137 13.563-.182 14.475-.023zM109.295 18.168c.387-.433.661-.752.935-1.072.683.32 1.322.639 1.983.958 2.165 1.003 4.445 1.3 6.793 1.048 1.208-.136 2.393-.41 3.419-1.117 1.504-1.048 1.71-2.826.935-3.966-.525-.752-1.3-1.185-2.12-1.505-1.528-.592-3.123-.797-4.696-1.094-1.368-.25-2.713-.524-3.967-1.162-.889-.456-1.686-.98-2.165-1.915-.684-1.345-.593-3.67 1.026-4.947.957-.752 2.051-1.162 3.214-1.39 1.778-.365 3.556-.456 5.357-.16 1.094.183 2.165.48 3.237.753.091.022.136.136.273.228-.159.364-.319.729-.524 1.14-.296-.046-.57-.07-.821-.16-2.462-.82-4.969-.844-7.499-.342-1.117.228-2.212.684-2.873 1.778-.661 1.071-.433 2.393.57 3.191.98.775 2.143 1.094 3.328 1.368 1.619.365 3.283.57 4.901.98 1.186.296 2.348.775 3.306 1.596 1.162 1.026 1.527 2.348 1.345 3.83-.228 1.823-1.3 3.008-2.987 3.67-2.439.934-4.946 1.094-7.522.524-1.482-.32-2.918-.775-4.263-1.46-.387-.25-.752-.5-1.185-.774zm18.486 0c.342-.41.616-.73.889-1.049.684.32 1.322.638 1.961.935 2.188 1.026 4.49 1.345 6.884 1.071 1.14-.137 2.257-.433 3.282-1.049 1.87-1.116 2.052-3.943-.159-5.106-1.003-.524-2.052-.866-3.123-1.094-1.254-.25-2.53-.456-3.784-.73-1.3-.273-2.53-.706-3.625-1.458-2.279-1.55-2.074-4.764-.159-6.314a6.495 6.495 0 012.781-1.3 23.121 23.121 0 013.761-.387c1.778-.046 3.511.342 5.197.866.114.046.206.137.319.25-.182.388-.341.73-.524 1.163-.296-.045-.57-.068-.82-.16-2.462-.82-4.97-.82-7.5-.364a5 5 0 00-2.188.98c-1.573 1.277-1.505 3.397.547 4.422 1.253.639 2.598.935 3.989 1.163 1.618.274 3.237.524 4.764 1.14 1.185.479 2.28 1.048 2.941 2.234 1.025 1.869.592 4.695-1.55 5.972-1.049.638-2.212.935-3.42 1.14-2.325.41-4.582.091-6.793-.616-1.162-.364-2.256-.82-3.305-1.458-.137-.046-.205-.114-.365-.251zm-38.364 1.96c3.123-6.246 6.2-12.446 9.3-18.669.137.068.274.091.297.182a4437.574 4437.574 0 019.049 18.465c-.387.341-.729.615-1.299.615-.501-1.026-1.026-2.052-1.527-3.077-.502-1.003-1.003-1.984-1.482-2.987-.159-.364-.41-.478-.775-.478h-.752c-2.485 0-4.97.022-7.454-.023-.593 0-.912.182-1.163.73-.866 1.823-1.8 3.647-2.712 5.448-.228.455-.297.455-.753.25a2.497 2.497 0 01-.341-.182c-.069-.069-.16-.137-.388-.274zm9.346-15.364c-1.322 2.645-2.644 5.243-4.012 7.956h4.058c.684 0 1.367.023 2.051 0 .638-.023 1.277.068 1.938-.069-1.482-3.305-3.556-7.385-4.035-7.887zm100.573-3.305c3.055 6.2 6.109 12.423 9.187 18.67-.434.227-.798.432-1.231.66a100.04 100.04 0 01-.798-1.504c-.775-1.55-1.573-3.123-2.303-4.673-.182-.365-.387-.456-.752-.456h-8.434c-.433 0-.684.16-.866.57-.935 1.915-1.892 3.807-2.85 5.721-.045.092-.091.16-.136.251-.548.069-.844-.364-1.345-.524l9.323-18.715h.205zm3.875 11.238c-1.345-2.735-2.644-5.311-4.012-8.092-1.39 2.758-2.712 5.357-4.035 8.092h8.047zm27.833-10.623v16.937c.365.023.662.069.958.069h12.127v1.299c-.274.023-.479.068-.707.068h-13.061c-.73 0-.753-.023-.753-.775V2.826c0-.227.023-.455.046-.729.433-.023.843-.023 1.39-.023zM37.08 3.374v16.23c0 .73-.525 1.071-1.186.775-.114-.046-.228-.228-.25-.342-.046-.25-.024-.502-.024-.752V4.399c0-.319-.045-.638-.068-1.025H29.01V2.12c.501-.16 13.312-.228 14.475-.046.023.183.045.365.045.57v.707c-1.094 0-2.142.023-3.191.023h-3.26zM184.565 20.38h-1.368V3.42c-2.234-.069-4.4 0-6.634-.046V2.052h14.453v1.3h-6.429c-.022.98 0 1.914 0 2.826v11.306c-.022.957-.022 1.892-.022 2.895zM0 11.05C.013 4.948 4.987-.026 11.05 0c6.138.025 11.074 4.962 11.061 11.075 0 6.075-4.974 11.036-11.062 11.036C4.961 22.1 0 17.125 0 11.05zm20.086.075c.203-4.53-3.67-9.15-9.1-9.163-4.961 0-8.999 4.05-9.15 8.872-.165 5 3.999 9.442 9.137 9.43 5.266 0 9.278-4.481 9.113-9.139z" fill="#18181A"/><path d="M2.291 11.075c0-4.772 3.936-8.708 8.72-8.645 5.076.064 8.696 4.228 8.645 8.784-.05 4.772-4.05 8.683-8.872 8.607-4.645-.089-8.493-3.987-8.493-8.746zm4.683-.392h7.986v3.278h.848V9.733H6.113v4.228h.861v-3.278zM4.265 9.176H17.67v-.91H4.265v.91z" fill="#18181A"/></svg>