<svg width="35" height="35" fill="none" xmlns="http://www.w3.org/2000/svg"><path d="M0 17.49C.02 7.834 7.894-.04 17.49 0 27.206.04 35.02 7.854 35 17.53 35 27.147 27.126 35 17.49 35 7.853 34.98 0 27.107 0 17.49zm31.794.12c.32-7.172-5.81-14.484-14.404-14.505-7.854 0-14.245 6.411-14.485 14.044-.26 7.914 6.33 14.946 14.465 14.926 8.334 0 14.685-7.092 14.424-14.465z" fill="#212934"/><path d="M3.625 17.53c0-7.553 6.23-13.784 13.804-13.684 8.033.1 13.763 6.692 13.683 13.904-.08 7.553-6.411 13.744-14.044 13.623-7.353-.14-13.443-6.31-13.443-13.843zm7.413-.621h12.641v5.189h1.343v-6.692H9.675v6.692h1.363v-5.19zM6.75 14.525h21.217v-1.443H6.75v1.443z" fill="#212934"/></svg>