<svg width="20" height="26" fill="none" xmlns="http://www.w3.org/2000/svg"><mask id="a" fill="#fff"><path fill-rule="evenodd" clip-rule="evenodd" d="M11.606 1.37a2 2 0 00-3.212 0L3.71 7.68A9.98 9.98 0 000 15.453c0 5.523 4.477 10 10 10s10-4.477 10-10a9.98 9.98 0 00-3.71-7.775l-4.684-6.31z"/></mask><path fill-rule="evenodd" clip-rule="evenodd" d="M11.606 1.37a2 2 0 00-3.212 0L3.71 7.68A9.98 9.98 0 000 15.453c0 5.523 4.477 10 10 10s10-4.477 10-10a9.98 9.98 0 00-3.71-7.775l-4.684-6.31z" fill="#F61"/><path d="M8.394 1.37L7.591.772l.803.596zm3.212 0l.803-.597-.803.596zM3.71 7.68l.63.776.098-.08.075-.1-.803-.597zm12.58 0l-.803.595.075.102.099.08.629-.778zM9.197 1.964a1 1 0 011.606 0L12.409.773a3 3 0 00-4.818 0l1.606 1.192zm-4.684 6.31l4.684-6.31L7.591.773l-4.684 6.31 1.606 1.192zM1 15.454a8.98 8.98 0 013.34-6.998L3.08 6.902A10.98 10.98 0 00-1 15.454h2zm9 9a9 9 0 01-9-9h-2c0 6.075 4.925 11 11 11v-2zm9-9a9 9 0 01-9 9v2c6.075 0 11-4.925 11-11h-2zm-3.34-6.998A8.98 8.98 0 0119 15.454h2a10.98 10.98 0 00-4.08-8.552l-1.26 1.554zm-4.857-6.49l4.684 6.31 1.606-1.193-4.684-6.31-1.606 1.192z" fill="#fff" mask="url(#a)"/><path d="M7.46 14.678h6.308l-1.765-1.764a.322.322 0 01.456-.455l2.314 2.314.005.005.003.003.002.003.004.004.002.002.004.005a.304.304 0 01.03.044h.001a.498.498 0 01.004.008l.003.006v.001a.372.372 0 01.004.006v.001l.003.006v.002l.003.005.001.003.002.003.001.004.002.003.001.006v.001c.002.002.002.005.003.007l.002.007c.006.02.01.04.012.06v.01l.001.002v.05a.332.332 0 01-.012.06v.001a.143.143 0 01-.003.007l-.002.007v.002l-.002.005-.002.003-.001.004-.002.003-.001.004-.002.004-.001.002a.144.144 0 01-.003.006l-.003.007-.004.007a.27.27 0 01-.034.051l-.001.001a.194.194 0 01-.004.005l-.002.002-.004.004-.002.003-.003.003-.005.006-2.314 2.313a.322.322 0 01-.456-.455l1.764-1.764H6.234l1.764 1.764a.322.322 0 11-.456.456l-2.313-2.314-.006-.006-.003-.003-.002-.003-.004-.004-.001-.002-.005-.005a.317.317 0 01-.03-.044h-.001a.18.18 0 01-.007-.013v-.002a.185.185 0 01-.004-.006v-.001l-.003-.006v-.002l-.003-.004-.001-.004-.002-.003-.001-.004-.001-.003-.002-.006v-.001a.182.182 0 01-.003-.007l-.002-.007a.32.32 0 01-.012-.06v-.011l-.001-.005v-.046a.326.326 0 01.013-.06l.002-.008.002-.007v-.001l.003-.006v-.003l.002-.004.002-.003.001-.004.002-.004.001-.002.003-.006.003-.007.004-.007.004-.007a.325.325 0 01.03-.044l.001-.001.005-.005.001-.002a.091.091 0 01.004-.004l.002-.003.003-.003.006-.006L7.54 12.46a.322.322 0 11.456.455l-1.764 1.764H7.46z" fill="#fff"/></svg>