<svg width="22" height="22" xmlns="http://www.w3.org/2000/svg"><path d="M4.59.25c-.952 0-1.836.398-2.606 1.156a5.33 5.33 0 00-1.322 1.93A5.917 5.917 0 00.25 5.54c0 1.145.262 2.333.779 3.561.498 1.174 1.182 2.361 2.042 3.557a29.175 29.175 0 002.866 3.36 29.52 29.52 0 003.37 2.878c1.182.86 2.38 1.55 3.589 2.064 1.232.525 2.421.79 3.554.79.792 0 1.54-.147 2.238-.438.711-.291 1.343-.746 1.907-1.368.332-.366.596-.765.803-1.204.214-.452.322-.93.322-1.41a2.79 2.79 0 00-.214-1.059 2.278 2.278 0 00-.82-.978l-3.302-2.345a4.628 4.628 0 00-.85-.472 2.342 2.342 0 00-.894-.186c-.325 0-.631.075-.925.222l-.307.172a4.098 4.098 0 00-.728.596l-.689.678-.102-.044c-.229-.126-.62-.404-1.085-.797a17.27 17.27 0 01-.408-.356l-.43-.393-.462-.441-.249-.242a33.337 33.337 0 01-1.408-1.536l-.144-.173a7.752 7.752 0 01-.63-.864l-.045-.077-.022-.055.694-.72a4.09 4.09 0 00.673-.861c.197-.323.307-.697.307-1.079 0-.296-.071-.604-.2-.905a4.137 4.137 0 00-.481-.843L6.682 1.306a2.37 2.37 0 00-.968-.807A2.616 2.616 0 004.59.25zm0 1.5c.173 0 .342.037.485.106a.893.893 0 01.378.31l2.325 3.278c.148.205.25.384.318.55a.885.885 0 01.084.326c0 .1-.031.206-.1.32-.08.14-.183.28-.312.424l-.908.946c-.243.242-.37.563-.37.92 0 .142.017.272.052.412l.096.255.054.122c.21.387.552.857 1.015 1.405.508.587.991 1.115 1.488 1.621l.262.256.489.466c.312.292.602.551.889.795.54.457 1.017.795 1.424 1.01l.236.107c.199.076.364.101.545.101.366 0 .687-.137.94-.39l.757-.746c.21-.21.39-.351.54-.43.161-.095.257-.124.363-.124.094 0 .198.022.326.074.162.067.347.17.562.316l3.298 2.342a.789.789 0 01.298.33c.063.16.096.314.096.478 0 .257-.059.517-.178.77a3.375 3.375 0 01-.558.836c-.418.461-.867.784-1.368.99a4.278 4.278 0 01-1.666.324c-.92 0-1.913-.221-2.966-.67a16.82 16.82 0 01-3.293-1.896 27.997 27.997 0 01-3.193-2.727 27.643 27.643 0 01-2.712-3.178C3.491 10.673 2.863 9.58 2.41 8.517c-.442-1.05-.66-2.042-.66-2.977 0-.589.103-1.144.306-1.651a3.86 3.86 0 01.969-1.403C3.537 1.98 4.05 1.75 4.59 1.75zm9.41 2c1.02 0 2.047.572 2.878 1.468.815.873 1.372 1.957 1.372 2.782a.75.75 0 01-1.493.102L16.75 8c0-.38-.39-1.138-.97-1.76-.527-.568-1.13-.927-1.642-.982L14 5.25a.75.75 0 110-1.5zm0-3.5A7.745 7.745 0 0121.75 8a.75.75 0 11-1.5 0A6.245 6.245 0 0014 1.75a.75.75 0 110-1.5z" fill="#828A96"/></svg>