<svg width="22" height="20" xmlns="http://www.w3.org/2000/svg"><path d="M15.44.25l-.26.005a6.27 6.27 0 00-4.109 1.77l-.071.07-.072-.073A6.251 6.251 0 006.56.25C3.074.25.25 3.088.25 6.59c0 6.12 4.88 11.12 9.888 12.83.494.174 1.23.174 1.732-.003 5-1.707 9.88-6.706 9.88-12.827 0-3.502-2.824-6.34-6.31-6.34zm0 1.5c2.656 0 4.81 2.165 4.81 4.84 0 5.37-4.408 9.886-8.872 11.41a1.47 1.47 0 01-.748.003C6.158 16.476 1.75 11.96 1.75 6.59c0-2.675 2.154-4.84 4.81-4.84 1.532 0 2.938.725 3.838 1.937a.75.75 0 001.204 0A4.779 4.779 0 0115.44 1.75z" fill="#6E7A8A"/></svg>