<svg width="13" height="10" fill="none" xmlns="http://www.w3.org/2000/svg"><path d="M9.475 7.99a.986.986 0 01-.015 1.409 1.019 1.019 0 01-1.424 0L5.558 6.75 3.236 9.553c-.217.233-.62.248-.836 0l-.588-.603a.594.594 0 01-.016-.852l2.679-2.493L3.19 4.382c-.434-.402-.682-.526-1.022-.418-.34.124-.82.124-1.27-.17C-.046 3.19 0 2.014 0 2.014l.078-.124.975.635s.604.371 1.068-.341c.527-.836-.062-1.177-.062-1.177L1.084.388l.093-.124s.898-.573 1.95.031c.651.387.976 1.146.806 1.889-.093.449 0 .604.356.99l1.3 1.286 1.518-1.564 1.145 1.146-1.517 1.501 2.74 2.447zm1.564-4.753c.186-.186.496-.155.666.015l.17.17c.186.186.155.465-.015.635l-.93.93c-.185.185-.464.2-.65.015l-.17-.17a.467.467 0 010-.666c.031-.109-.062-.31-.248-.496-.387-.387-.836-.403-1.052-.201l-.31.325-1.13-1.161.325-.31c.356-.372-.047-.759-.047-.759-.99-.99-2.384-.96-2.384-.96L5.25.235c2.832-.745 3.9.493 4.287.865l.82.82c.202.217-.014.806.28 1.115.123.14.278.186.402.202zM8.763 9.213a.522.522 0 00.527-.526.522.522 0 00-.527-.527.522.522 0 00-.526.527c0 .294.232.526.526.526z" fill="#B7B7B7"/></svg>