<svg width="15" height="13" xmlns="http://www.w3.org/2000/svg" xmlns:xlink="http://www.w3.org/1999/xlink"><defs><path d="M4.519 12.855c5.422 0 8.387-4.945 8.387-9.233 0-.14-.003-.28-.009-.42a6.371 6.371 0 001.47-1.68 5.468 5.468 0 01-1.692.51A3.222 3.222 0 0013.971.239c-.57.371-1.2.641-1.872.787C11.562.395 10.796 0 9.947 0 8.32 0 7 1.453 7 3.245c0 .255.026.502.076.74C4.626 3.849 2.454 2.558 1 .595a3.48 3.48 0 00-.4 1.629c0 1.126.521 2.12 1.312 2.702A2.724 2.724 0 01.577 4.52v.041c0 1.572 1.016 2.884 2.365 3.182a2.705 2.705 0 01-1.331.055c.375 1.29 1.463 2.228 2.753 2.254-1.009.87-2.28 1.39-3.66 1.39-.238 0-.473-.016-.704-.046 1.305.921 2.854 1.458 4.519 1.458" id="a"/></defs><g fill="none" fill-rule="evenodd"><path d="M4.519 12.855c5.422 0 8.387-4.945 8.387-9.233 0-.14-.003-.28-.009-.42a6.371 6.371 0 001.47-1.68 5.468 5.468 0 01-1.692.51A3.222 3.222 0 0013.971.239c-.57.371-1.2.641-1.872.787C11.562.395 10.796 0 9.947 0 8.32 0 7 1.453 7 3.245c0 .255.026.502.076.74C4.626 3.849 2.454 2.558 1 .595a3.48 3.48 0 00-.4 1.629c0 1.126.521 2.12 1.312 2.702A2.724 2.724 0 01.577 4.52v.041c0 1.572 1.016 2.884 2.365 3.182a2.705 2.705 0 01-1.331.055c.375 1.29 1.463 2.228 2.753 2.254-1.009.87-2.28 1.39-3.66 1.39-.238 0-.473-.016-.704-.046 1.305.921 2.854 1.458 4.519 1.458" fill="#212934" fill-rule="nonzero"/><mask id="b" fill="#fff"><use xlink:href="#a"/></mask><path d="M12.897 3.202l-.622-.782-.397.316.02.507 1-.04zm1.47-1.68l.855.518 1.769-2.915L13.928.624l.44.898zm-1.692.51l-.55-.833.68 1.825-.13-.991zM13.971.239l.96.279.754-2.591L13.425-.6l.546.837zm-1.872.787l-.76.649.388.455.585-.127-.213-.977zm-5.023 2.96l-.055.998 1.304.072-.271-1.278-.978.208zM1 .595l.803-.596-.945-1.277L.116.128 1 .594zm.912 4.332l-.033.999 3.23.109L2.504 4.12l-.592.806zM.577 4.52l.523-.852-1.466-.898-.056 1.718 1 .032zm2.365 3.223l.287.957 3.689-1.105-3.76-.828-.216.976zm-1.331.055l.207-.978-1.634-.345.467 1.603.96-.28zm2.753 2.254l.653.757 1.974-1.703-2.606-.053-.02 1zM0 11.397l.129-.99-.705 1.807.576-.817zm4.519 2.458c6.17 0 9.386-5.612 9.386-10.233h-1.999c0 3.955-2.713 8.234-7.387 8.234v1.999zm9.386-10.233c0-.153-.003-.307-.009-.46l-1.997.081c.005.124.007.25.007.379h2zm-.385.362a7.37 7.37 0 001.702-1.944l-1.709-1.037a5.373 5.373 0 01-1.238 1.417l1.245 1.564zm.408-3.36a4.467 4.467 0 01-1.384.418l.262 1.982a6.467 6.467 0 002.001-.605L13.928.624zm-.702 2.243A4.22 4.22 0 0014.93.517l-1.92-.559a2.22 2.22 0 01-.887 1.24l1.102 1.669zM13.425-.6c-.472.308-.99.529-1.538.648l.425 1.953a6.596 6.596 0 002.206-.927L13.425-.6zm-.565.976C12.152-.453 11.118-1 9.948-1v2c.525 0 1.023.242 1.39.674L12.86.377zM9.948-1C7.68-1 6 .994 6 3.245h2C8 1.913 8.96 1 9.946 1v-2zM6 3.245c0 .322.033.64.098.948l1.956-.416a2.557 2.557 0 01-.055-.532H6zm1.131-.258C5.01 2.869 3.1 1.75 1.803-.001L.196 1.19c1.612 2.176 4.047 3.64 6.825 3.794l.11-1.996zM.116.127A4.49 4.49 0 00-.4 2.226h2c0-.43.105-.827.283-1.164L.116.128zM-.4 2.226c0 1.432.662 2.73 1.72 3.507l1.183-1.61C1.98 3.734 1.6 3.045 1.6 2.224H-.399zm2.345 1.703c-.3-.01-.588-.101-.846-.26L.055 5.374c.536.328 1.157.53 1.824.553l.067-1.998zm-2.368.56v.074h1.999V4.55v.004L-.423 4.49zm0 .074c0 1.986 1.29 3.748 3.149 4.158l.43-1.952c-.839-.185-1.58-1.048-1.58-2.206h-2zm3.077 2.224a1.705 1.705 0 01-.49.072v2c.368 0 .725-.056 1.064-.157l-.574-1.915zm-.49.072a1.67 1.67 0 01-.347-.037l-.414 1.956c.244.052.499.08.76.08v-2zM.65 8.078c.479 1.645 1.903 2.938 3.693 2.975l.04-1.999c-.79-.016-1.542-.6-1.814-1.534L.65 8.079zm3.06 1.219c-.841.726-1.885 1.146-3.008 1.146v1.999c1.64 0 3.138-.617 4.314-1.632L3.711 9.297zM.703 10.443c-.195 0-.387-.012-.574-.037L-.13 12.39c.275.035.553.053.832.053v-1.999zm-1.28 1.771c1.462 1.031 3.21 1.64 5.096 1.64v-1.998c-1.445 0-2.795-.465-3.943-1.275l-1.152 1.633z" fill="#AEBECD" fill-rule="nonzero" mask="url(#b)"/></g></svg>