<?xml version="1.0" encoding="UTF-8"?>
<svg width="22px" height="22px" viewBox="0 0 22 22" version="1.1" xmlns="http://www.w3.org/2000/svg" xmlns:xlink="http://www.w3.org/1999/xlink">
    <title>call</title>
    <g id="Page-1" stroke="none" stroke-width="1" fill="none" fill-rule="evenodd">
        <g id="call" transform="translate(1.000000, 1.000000)" fill="#FF6611" fill-rule="nonzero">
            <path d="M3.59,-0.75 C2.63804883,-0.75 1.753817,-0.352413746 0.983862052,0.405510656 C0.392233807,0.963417848 -0.0540419593,1.61387207 -0.337924464,2.33540677 C-0.611539485,3.01941191 -0.75,3.76363718 -0.75,4.54 C-0.75,5.68476993 -0.488452694,6.87263061 0.0287734686,8.10104275 C0.527444757,9.27500766 1.21110255,10.462276 2.07114671,11.6579471 C2.92615706,12.8323198 3.88073805,13.9511298 4.93711415,15.0177619 C6.00735759,16.0777638 7.1257249,17.0323428 8.30761961,17.8956398 C9.48854989,18.755441 10.6875977,19.4450895 11.8960094,19.9599779 C13.1276188,20.4847506 14.3171392,20.75 15.45,20.75 C16.2417214,20.75 16.9905037,20.6031235 17.6884615,20.3123077 C18.3991735,20.0210461 19.0309777,19.5660311 19.5954202,18.9439924 C19.9268186,18.5783117 20.1908324,18.1793575 20.3981865,17.7402547 C20.6118088,17.2878781 20.72,16.8092139 20.72,16.33 C20.72,15.9644159 20.6471925,15.6235445 20.5063575,15.271457 C20.3283001,14.8657048 20.0565051,14.5492311 19.6869075,14.2933559 L16.3841792,11.948454 C16.0755928,11.7384301 15.8022201,11.5855766 15.5339746,11.4758398 C15.2315879,11.3521361 14.9355276,11.29 14.64,11.29 C14.3154479,11.29 14.0086092,11.3652862 13.7147996,11.5124528 L13.4080787,11.6838158 C13.183131,11.8213518 12.9343214,12.0250185 12.6796699,12.2796699 L11.991,12.958 L11.888543,12.9136425 C11.6604699,12.7880995 11.2682222,12.5098773 10.8044567,12.1174603 C10.6702503,12.0035111 10.5348019,11.8853463 10.3959122,11.761069 L9.96671985,11.3680021 L9.50368383,10.9268777 C9.42295776,10.8487198 9.34027171,10.7680853 9.25535079,10.6847369 C8.79237219,10.2126643 8.32943323,9.70654965 7.84712651,9.14921744 L7.70308865,8.97634796 C7.42569463,8.63804745 7.21283503,8.34518351 7.07250535,8.1122603 L7.028,8.035 L7.006,7.98 L7.70049331,7.25996825 C7.97678409,6.98387608 8.20765308,6.69144203 8.37292213,6.39904294 C8.56975995,6.07642065 8.68,5.70239192 8.68,5.32 C8.68,5.02417647 8.60864756,4.71623437 8.47935877,4.41456053 C8.36922665,4.14507664 8.20899716,3.86391925 7.99865076,3.57177146 L5.68168731,0.30602001 C5.43605429,-0.0488706072 5.10618463,-0.320096769 4.71429363,-0.500969538 C4.37476661,-0.664037502 3.9843536,-0.75 3.59,-0.75 Z M3.59,0.75 C3.7631464,0.75 3.93158932,0.78708835 4.0754517,0.856142293 C4.23907603,0.931755537 4.35858857,1.0300214 4.45335586,1.16690748 L6.77831269,4.44397999 C6.92584524,4.64891743 7.02803779,4.82823643 7.09583978,4.99397463 C7.15427279,5.13057979 7.18,5.24161301 7.18,5.32 C7.18,5.42010808 7.14881148,5.52592628 7.07935108,5.64003979 C7.00009286,5.77966822 6.89705218,5.91999508 6.76777858,6.06413864 L5.85950669,7.01003175 C5.61721344,7.25212639 5.49,7.57318888 5.49,7.93 C5.49,8.07154743 5.50736623,8.20179412 5.54239312,8.34190172 L5.63848753,8.59717082 L5.69157832,8.7191391 C5.90250668,9.1058411 6.2437946,9.57648814 6.70746029,10.1244567 C7.21457786,10.7105298 7.69831421,11.2393815 8.19464343,11.7452555 L8.45690058,12.0010469 L8.94569714,12.4667712 C9.25826589,12.7591074 9.54768198,13.0181305 9.83457688,13.2617206 C10.3752418,13.7192077 10.8517354,14.0571857 11.2590842,14.2728409 L11.4945605,14.3793588 C11.6939752,14.454991 11.8590343,14.48 12.04,14.48 C12.4062269,14.48 12.7274977,14.3431624 12.9803301,14.0903301 L13.7368064,13.3438305 C13.9461769,13.1344832 14.1272123,12.9930493 14.2769245,12.9149386 C14.4382094,12.8186712 14.5344625,12.79 14.64,12.79 C14.7338842,12.79 14.8383276,12.8119202 14.9660254,12.8641602 C15.1284639,12.9306124 15.3128414,13.0337051 15.5282675,13.1801949 L18.8258208,15.521546 C18.9826243,15.6301662 19.0713291,15.7334525 19.1235137,15.852054 C19.1869742,16.0118722 19.22,16.1664932 19.22,16.33 C19.22,16.5868467 19.1612283,16.8468669 19.0418135,17.0997453 C18.8967107,17.4070218 18.7146476,17.6821394 18.4842598,17.9363604 C18.0661392,18.3971461 17.6172792,18.7204077 17.1155824,18.9260211 C16.5981591,19.1416004 16.0455335,19.25 15.45,19.25 C14.5291495,19.25 13.537327,19.028835 12.4839906,18.5800221 C11.3827569,18.1108007 10.2820463,17.4777123 9.19144496,16.683678 C8.07130112,15.8654849 7.00996674,14.9595862 5.99776195,13.9571142 C4.99926195,12.9488702 4.09384294,11.8876802 3.28632199,10.778555 C2.49104741,9.67290813 1.86254237,8.58142036 1.41030315,7.51677388 C0.968452694,6.46736939 0.75,5.47523007 0.75,4.54 C0.75,3.95136282 0.853278615,3.39624027 1.05635752,2.88854301 C1.25970888,2.37172451 1.5797163,1.90530846 2.02466532,1.48554524 C2.53730345,0.981154549 3.05139117,0.75 3.59,0.75 Z" id="Path"></path>
        </g>
    </g>
</svg>