<svg width="12" height="12" viewBox="0 0 12 12" fill="none" xmlns="http://www.w3.org/2000/svg">
<path d="M1.20086 12C1.01868 11.9991 0.844267 11.9261 0.715872 11.7968C0.587477 11.6676 0.515575 11.4927 0.515932 11.3105C0.517527 11.2413 0.528336 11.1726 0.548075 11.1062L1.04148 9.32143C1.0621 9.25554 1.0388 9.18911 1.00853 9.13661L1.00264 9.12589C1.0005 9.12241 0.990316 9.10821 0.983084 9.09777C0.975852 9.08732 0.967548 9.07607 0.960048 9.06509L0.954958 9.05786C0.331952 8.11361 -9.11933e-05 7.00723 2.86685e-05 5.87598C-0.00479286 4.33339 0.598701 2.87598 1.69988 1.77027C2.83937 0.628661 4.36351 7.44044e-07 5.99533 7.44044e-07C7.37964 -0.000683199 8.72289 0.470173 9.8038 1.335C10.8605 2.18545 11.595 3.37072 11.872 4.67464C11.9572 5.07076 12.0001 5.47481 12 5.88C12 7.45848 11.3936 8.94107 10.2921 10.0551C9.18102 11.1801 7.68902 11.7978 6.09122 11.7978C5.52871 11.7978 4.80896 11.6542 4.46342 11.5567C4.0477 11.4404 3.65367 11.2888 3.61028 11.2728C3.56436 11.2552 3.51561 11.2461 3.46644 11.246C3.4131 11.2457 3.36025 11.2561 3.31108 11.2768L3.28831 11.2856L1.48077 11.9387C1.392 11.976 1.29712 11.9968 1.20086 12Z" fill="#FF6611"/>
</svg>
