<?xml version="1.0" encoding="UTF-8"?>
<svg width="7px" height="14px" viewBox="0 0 7 14" version="1.1" xmlns="http://www.w3.org/2000/svg" xmlns:xlink="http://www.w3.org/1999/xlink">
    <title>facebook</title>
    <g id="Page-1" stroke="none" stroke-width="1" fill="none" fill-rule="evenodd">
        <g id="facebook" transform="translate(0.000000, -0.000000)" fill="#212934" fill-rule="nonzero">
            <path d="M6.257938,0.002706 L4.698208,1.11022302e-16 C2.945908,1.11022302e-16 1.813488,1.256279 1.813488,3.200699 L1.813488,4.676439 L0.245253,4.676439 C0.109739,4.676439 1.11022302e-16,4.795239 1.11022302e-16,4.941769 L1.11022302e-16,7.079949 C1.11022302e-16,7.226479 0.109864,7.345139 0.245253,7.345139 L1.813488,7.345139 L1.813488,12.740459 C1.813488,12.886959 1.923228,13.005659 2.058748,13.005659 L4.104848,13.005659 C4.240368,13.005659 4.350098,12.886859 4.350098,12.740459 L4.350098,7.345139 L6.183738,7.345139 C6.319258,7.345139 6.428988,7.226479 6.428988,7.079949 L6.429738,4.941769 C6.429738,4.871409 6.403838,4.804029 6.357918,4.754239 C6.311998,4.704449 6.249428,4.676439 6.184368,4.676439 L4.350098,4.676439 L4.350098,3.425439 C4.350098,2.824159 4.482618,2.518919 5.206988,2.518919 L6.257688,2.518509 C6.393078,2.518509 6.502818,2.399719 6.502818,2.253319 L6.502818,0.267899 C6.502818,0.121639 6.393208,0.002976 6.257938,0.002706 Z" id="Path"></path>
        </g>
    </g>
</svg>