<?xml version="1.0" encoding="UTF-8"?>
<svg width="22px" height="22px" viewBox="0 0 22 22" version="1.1" xmlns="http://www.w3.org/2000/svg" xmlns:xlink="http://www.w3.org/1999/xlink">
    <title>lock</title>
    <g id="Page-1" stroke="none" stroke-width="1" fill="none" fill-rule="evenodd">
        <g id="lock" transform="translate(1.000000, 1.000000)" fill="#25C27D" fill-rule="nonzero">
            <path d="M10,-1 C14.9237616,-1 16.9212702,1.35991135 16.9977108,5.73507466 L17,6 L17,8 C17,8.55228475 16.5522847,9 16,9 C15.4871642,9 15.0644928,8.61395981 15.0067277,8.11662113 L15,8 L15,6 C15,2.47617681 13.8109048,1 10,1 C6.27570671,1 5.05540402,2.40984035 5.00185943,5.76290562 L5,8 C5,8.55228475 4.55228475,9 4,9 C3.48716416,9 3.06449284,8.61395981 3.00672773,8.11662113 L3,8 L3,6 C3,1.45525176 4.97776322,-1 10,-1 Z" id="Path"></path>
            <path d="M10,10.5 C8.06701525,10.5 6.5,12.0670153 6.5,14 C6.5,15.9329847 8.06701525,17.5 10,17.5 C11.9329847,17.5 13.5,15.9329847 13.5,14 C13.5,12.0670153 11.9329847,10.5 10,10.5 Z M10,12.5 C10.8284153,12.5 11.5,13.1715847 11.5,14 C11.5,14.8284153 10.8284153,15.5 10,15.5 C9.17158475,15.5 8.5,14.8284153 8.5,14 C8.5,13.1715847 9.17158475,12.5 10,12.5 Z" id="Path"></path>
            <path d="M5,7 C0.44771525,7 -1,8.44771525 -1,13 L-1,15 C-1,19.5522847 0.44771525,21 5,21 L15,21 C19.5522847,21 21,19.5522847 21,15 L21,13 C21,8.53525919 19.6074307,7.0568295 15.2591992,7.00161798 L5,7 Z M15.22077,9.00080709 L15.6382575,9.00769708 L16.0246377,9.0225844 L16.3810663,9.04662456 L16.7086987,9.08097304 C18.1722562,9.26711614 18.7328839,9.82774384 18.919027,11.2913013 L18.9533754,11.6189337 L18.9774156,11.9753623 L18.9923029,12.3617425 L18.9991929,12.77923 L18.9991929,15.22077 L18.9923029,15.6382575 L18.9774156,16.0246377 L18.9533754,16.3810663 L18.919027,16.7086987 C18.7328839,18.1722562 18.1722562,18.7328839 16.7086987,18.919027 L16.3810663,18.9533754 L16.0246377,18.9774156 L15.6382575,18.9923029 L15.22077,18.9991929 L4.77430677,18.9991929 L4.34806487,18.9919336 C4.21146891,18.9881941 4.08028895,18.9830535 3.95431898,18.9763058 L3.59183302,18.9510358 C1.91337092,18.8036035 1.28699461,18.2749759 1.08464672,16.7370955 L1.04862598,16.4043066 C1.04356224,16.346373 1.03895119,16.2871878 1.03476709,16.2267253 L1.01457973,15.8484165 C1.01200038,15.7827417 1.00979646,15.7157381 1.00794224,15.6473799 L1.00080709,15.22077 L1.00080709,12.7743068 L1.00806637,12.3480649 C1.01180593,12.2114689 1.01694653,12.0802889 1.02369417,11.954319 L1.04896423,11.591833 C1.19639647,9.91337092 1.7250241,9.28699461 3.26290449,9.08464672 L3.59569341,9.04862598 C3.65362702,9.04356224 3.7128122,9.03895119 3.7732747,9.03476709 L4.15158353,9.01457973 C4.2172583,9.01200038 4.2842619,9.00979646 4.35262007,9.00794224 L4.77922999,9.00080709 L15.22077,9.00080709 Z" id="Path"></path>
        </g>
    </g>
</svg>