<?xml version="1.0" encoding="UTF-8"?>
<svg width="20px" height="13px" viewBox="0 0 20 13" version="1.1" xmlns="http://www.w3.org/2000/svg" xmlns:xlink="http://www.w3.org/1999/xlink">
    <title>menu</title>
    <g id="Page-1" stroke="none" stroke-width="1" fill="none" fill-rule="evenodd">
        <g id="menu" transform="translate(1.000000, 1.000000)" fill="#828A96" fill-rule="nonzero">
            <path d="M18,-0.25 C18.4142136,-0.25 18.75,0.0857864376 18.75,0.5 C18.75,0.879695766 18.4678461,1.19349096 18.1017706,1.24315338 L18,1.25 L0,1.25 C-0.414213562,1.25 -0.75,0.914213562 -0.75,0.5 C-0.75,0.120304234 -0.467846118,-0.193490961 -0.101770557,-0.243153384 L0,-0.25 L18,-0.25 Z" id="Path"></path>
            <path d="M18,4.75 C18.4142136,4.75 18.75,5.08578644 18.75,5.5 C18.75,5.87969577 18.4678461,6.19349096 18.1017706,6.24315338 L18,6.25 L0,6.25 C-0.414213562,6.25 -0.75,5.91421356 -0.75,5.5 C-0.75,5.12030423 -0.467846118,4.80650904 -0.101770557,4.75684662 L0,4.75 L18,4.75 Z" id="Path"></path>
            <path d="M18,9.75 C18.4142136,9.75 18.75,10.0857864 18.75,10.5 C18.75,10.8796958 18.4678461,11.193491 18.1017706,11.2431534 L18,11.25 L0,11.25 C-0.414213562,11.25 -0.75,10.9142136 -0.75,10.5 C-0.75,10.1203042 -0.467846118,9.80650904 -0.101770557,9.75684662 L0,9.75 L18,9.75 Z" id="Path"></path>
        </g>
    </g>
</svg>