<svg width="24" height="25" viewBox="0 0 24 25" fill="none" xmlns="http://www.w3.org/2000/svg">
<path d="M17 2.93018H7C4 2.93018 2 4.93018 2 7.93018V13.9302C2 16.9302 4 18.9302 7 18.9302H11L15.45 21.8902C16.11 22.3302 17 21.8602 17 21.0602V18.9302C20 18.9302 22 16.9302 22 13.9302V7.93018C22 4.93018 20 2.93018 17 2.93018ZM15.5 11.7502H8.5C8.09 11.7502 7.75 11.4102 7.75 11.0002C7.75 10.5902 8.09 10.2502 8.5 10.2502H15.5C15.91 10.2502 16.25 10.5902 16.25 11.0002C16.25 11.4102 15.91 11.7502 15.5 11.7502Z" fill="white"/>
</svg>
