<?xml version="1.0" encoding="UTF-8"?>
<svg width="22px" height="22px" viewBox="0 0 22 22" version="1.1" xmlns="http://www.w3.org/2000/svg" xmlns:xlink="http://www.w3.org/1999/xlink">
    <title>messages</title>
    <g id="Page-1" stroke="none" stroke-width="1" fill="none" fill-rule="evenodd">
        <g id="messages" transform="translate(1.000000, 1.000000)" fill="#FFFFFF" fill-rule="nonzero">
            <path d="M7.5,-0.75 C2.95477841,-0.75 -0.75,2.70574634 -0.75,7 L-0.744483687,7.285079 C-0.656416994,9.55805196 0.481454849,11.6403996 2.33336369,13.0418702 L2.398,13.089 L3.65714589,15.8601778 C4.19917583,17.0317054 5.76978277,17.2447722 6.59448069,16.2621534 L7.859,14.742 L8.01080911,14.7353777 C12.3195519,14.4879949 15.75,11.1322064 15.75,7 C15.75,5.85225698 15.481615,4.74482126 14.9693096,3.73159504 C13.6500365,1.02521312 10.7398105,-0.75 7.5,-0.75 Z M7.5,0.75 C10.17243,0.75 12.5558924,2.20389177 13.6258427,4.39866169 C14.0377396,5.21347784 14.25,6.0893267 14.25,7 C14.25,10.4416027 11.2392207,13.25 7.5,13.25 C7.27695215,13.25 7.06547705,13.3492772 6.92298783,13.520879 L5.44383833,15.2998565 C5.32864014,15.4371068 5.0997909,15.4060614 5.02067189,15.2350623 L3.68285411,12.2898222 C3.62757637,12.1681287 3.54078184,12.0634183 3.43145305,11.9865277 C1.75107521,10.8047235 0.75,8.97740201 0.75,7 C0.75,3.55839731 3.76077934,0.75 7.5,0.75 Z" id="Path"></path>
            <path d="M13.6309904,4.40848496 C14.0380396,5.21353784 14.2503,6.0893867 14.2503,7.00006 C14.2503,10.4416959 11.2395281,13.2501 7.50031,13.2501 C7.27726353,13.2501 7.06578961,13.349376 6.92330036,13.5209759 L5.99330036,14.6409759 C5.76501722,14.9158976 5.76240215,15.3136975 5.98705115,15.5915967 L6.17450477,15.8147013 C7.57910868,17.4236592 9.63550166,18.4316883 11.8829645,18.5885199 L12.141,18.601 L13.40359,20.1195847 L13.5015203,20.2290351 C14.3438293,21.0964341 15.8205125,20.8498015 16.3409719,19.7249377 L17.602,16.948 L17.431753,17.0735723 C19.5017983,15.6177163 20.7503,13.338693 20.7503,10.86 C20.7503,7.26704225 18.1192599,4.17650163 14.4679644,3.33905108 C13.848572,3.19698905 13.3442514,3.84137893 13.6309904,4.40848496 Z M15.544,5.287 L15.5874684,5.30639145 C17.7886588,6.35491386 19.2503,8.47985045 19.2503,10.86 C19.2503,12.8374271 18.2492007,14.6648404 16.568847,15.8466277 C16.4595208,15.9235164 16.3727278,16.0282236 16.3174499,16.1499135 L14.9774499,19.0998135 C14.8987053,19.26996 14.6731456,19.3014509 14.5589545,19.1629638 L13.07701,17.3805153 C12.9345184,17.2091306 12.7231824,17.11 12.5003,17.11 L12.2223218,17.1047738 C10.4685592,17.0387398 8.84882607,16.3500867 7.67500879,15.2175587 L7.56,15.102 L7.859,14.742 L8.01111896,14.7354777 C12.3198602,14.4880943 15.7503,11.1322967 15.7503,7.00006 C15.7503,6.42618849 15.6832037,5.86239381 15.5520693,5.31541372 L15.544,5.287 Z" id="Path"></path>
            <path d="M10,6.25 C10.4142136,6.25 10.75,6.58578644 10.75,7 C10.75,7.37969577 10.4678461,7.69349096 10.1017706,7.74315338 L10,7.75 L5,7.75 C4.58578644,7.75 4.25,7.41421356 4.25,7 C4.25,6.62030423 4.53215388,6.30650904 4.89822944,6.25684662 L5,6.25 L10,6.25 Z" id="Path"></path>
        </g>
    </g>
</svg>