<svg width="20" height="16" viewBox="0 0 20 16" fill="none" xmlns="http://www.w3.org/2000/svg">
<path d="M0 13.4545C0 14.1296 0.263392 14.7771 0.732233 15.2545C1.20107 15.7318 1.83696 16 2.5 16H17.5C18.163 16 18.7989 15.7318 19.2678 15.2545C19.7366 14.7771 20 14.1296 20 13.4545V6.45455H0V13.4545ZM2.94643 10C2.94643 9.63834 3.08753 9.2915 3.3387 9.03576C3.58986 8.78003 3.93051 8.63636 4.28571 8.63636H6.42857C6.78377 8.63636 7.12442 8.78003 7.37559 9.03576C7.62675 9.2915 7.76786 9.63834 7.76786 10V10.9091C7.76786 11.2708 7.62675 11.6176 7.37559 11.8733C7.12442 12.1291 6.78377 12.2727 6.42857 12.2727H4.28571C3.93051 12.2727 3.58986 12.1291 3.3387 11.8733C3.08753 11.6176 2.94643 11.2708 2.94643 10.9091V10ZM17.5 0H2.5C1.83696 0 1.20107 0.268181 0.732233 0.745547C0.263392 1.22291 0 1.87036 0 2.54545V3.72727H20V2.54545C20 1.87036 19.7366 1.22291 19.2678 0.745547C18.7989 0.268181 18.163 0 17.5 0Z" fill="#B7B7B7"/>
</svg>
