<?xml version="1.0" encoding="UTF-8"?>
<svg width="12px" height="12px" viewBox="0 0 12 12" version="1.1" xmlns="http://www.w3.org/2000/svg" xmlns:xlink="http://www.w3.org/1999/xlink">
    <title>phone</title>
    <g id="Page-1" stroke="none" stroke-width="1" fill="none" fill-rule="evenodd">
        <g id="phone" fill="#25C27D" fill-rule="nonzero">
            <path d="M10.8242,8.18318 L9.12749001,7.98946 C8.72000001,7.9427 8.31919001,8.08298 8.03195001,8.37023 L6.80281001,9.59937 C4.91234001,8.63743 3.36255001,7.09432 2.40061001,5.19715 L3.63644001,3.96133 C3.92368001,3.67408 4.06396001,3.27327 4.01720001,2.86578 L3.82348001,1.18239 C3.74332001,0.507691 3.17551001,0 2.49414001,0 L1.33848001,0 C0.583624007,0 -0.0443068931,0.627934 0.00245392687,1.38279 C0.356500007,7.08764 4.91902001,11.6435 10.6172,11.9975 C11.372,12.0443 11.9999656,11.4164 11.9999656,10.6615 L11.9999656,9.50585 C12.0066,8.83116 11.4989,8.26334 10.8242,8.18318 Z" id="Path"></path>
        </g>
    </g>
</svg>