<svg width="12" height="12" viewBox="0 0 12 12" fill="none" xmlns="http://www.w3.org/2000/svg">
<path d="M6 12C9.30851 12 12 9.30841 12 6C12 2.69159 9.30841 4.60347e-09 6 4.60347e-09C2.69149 -0.000128532 0 2.69146 0 5.99967C0 9.30818 2.69159 11.9997 6 11.9997V12ZM6 0.72824C8.90664 0.72824 11.2718 3.09293 11.2718 6C11.2718 8.90664 8.90681 11.2718 6 11.2718C3.09349 11.2716 0.728569 8.90667 0.728569 6C0.728569 3.09323 3.09352 0.728569 6 0.728569V0.72824Z" fill="#B7B7B7"/>
<path d="M5.99913 10.8037C8.64817 10.8037 10.8029 8.64864 10.8029 5.99986C10.8029 3.35082 8.64791 1.19604 5.99913 1.19604C3.35022 1.19592 1.19531 3.35082 1.19531 5.99986C1.19531 8.6489 3.35035 10.804 5.99913 10.804V10.8037ZM3.89487 7.38592L5.45951 6.1312C5.4491 6.08877 5.44203 6.0452 5.44203 5.99969C5.44203 5.77654 5.57482 5.585 5.76468 5.49618V2.01524C5.76468 1.88605 5.86944 1.78141 5.9985 1.78141C6.12756 1.78141 6.23233 1.88592 6.23233 2.01524V5.49519C6.42296 5.58376 6.55613 5.77567 6.55613 5.99933C6.55613 6.30655 6.30611 6.55619 5.99914 6.55619C5.91006 6.55619 5.82676 6.53318 5.75195 6.49578L4.1873 7.75037C4.14411 7.78508 4.09256 7.80179 4.04115 7.80179C3.97276 7.80179 3.90476 7.77184 3.85861 7.71425C3.77789 7.61347 3.79421 7.46628 3.89486 7.38569L3.89487 7.38592Z" fill="#B7B7B7"/>
</svg>
