<?xml version="1.0" encoding="UTF-8"?>
<svg width="20px" height="22px" viewBox="0 0 20 22" version="1.1" xmlns="http://www.w3.org/2000/svg" xmlns:xlink="http://www.w3.org/1999/xlink">
    <title>bag</title>
    <g id="Page-1" stroke="none" stroke-width="1" fill="none" fill-rule="evenodd">
        <g id="bag" transform="translate(1.000000, 1.000000)" fill="#6E7A8A" fill-rule="nonzero">
            <path d="M8.23855205,-0.724787287 C11.2697806,-1.0188617 13.8798046,1.30029679 13.9968763,4.29192318 L14.0009732,4.50170797 L14.0009732,5.88170797 C14.0009732,6.29592154 13.6651868,6.63170797 13.2509732,6.63170797 C12.8712775,6.63170797 12.5574823,6.34955409 12.5078198,5.98347853 L12.5009732,5.88170797 L12.5009732,4.50170797 C12.5009732,2.29236578 10.6007035,0.553091153 8.38067032,0.768462495 C6.6285926,0.931989749 5.10572597,2.65388232 5.00614828,4.5003125 L5.00097323,4.69170797 L5.00097323,5.66170797 C5.00097323,6.07592154 4.6651868,6.41170797 4.25097323,6.41170797 C3.87127747,6.41170797 3.55748227,6.12955409 3.50781985,5.76347853 L3.50097323,5.66170797 L3.50097323,4.69170797 C3.50097323,2.02036043 5.63587537,-0.48187581 8.23855205,-0.724787287 Z" id="Path"></path>
            <path d="M12.7507732,5.24169797 L4.75080323,5.24169797 C0.509670474,5.24169797 -1.06925233,7.11886176 -0.694646749,10.5041863 L0.0565948262,16.514724 C0.362169916,19.3678509 1.86597546,20.741698 5.75080323,20.741698 L11.7507732,20.741698 C15.53599,20.741698 17.0607229,19.4374014 17.4205018,16.7191372 L18.1949816,10.514724 C18.5708288,7.11886176 16.991906,5.24169797 12.7507732,5.24169797 Z M4.75080323,6.74169797 L12.7507732,6.74169797 C16.0758087,6.74169797 16.9839375,7.82136223 16.7053233,10.3392097 L15.9565648,16.3286719 C15.7290461,18.4510875 14.8636482,19.241698 11.7507732,19.241698 L5.75080323,19.241698 C2.72948345,19.241698 1.82538034,18.4969101 1.56817612,16.5245032 L0.795011641,10.3286719 C0.517638953,7.82136223 1.42576777,6.74169797 4.75080323,6.74169797 Z" id="Path"></path>
            <path d="M12.2554732,8.99169797 C12.807758,8.99169797 13.2554732,9.43941322 13.2554732,9.99169797 C13.2554732,10.5045338 12.869433,10.9272051 12.3720944,10.9849702 L12.2554732,10.991698 C11.6941885,10.991698 11.2464732,10.5439827 11.2464732,9.99169797 C11.2464732,9.47886213 11.6325134,9.05619081 12.1298521,8.9984257 L12.2554732,8.99169797 Z" id="Path"></path>
            <path d="M5.25446323,8.99169797 C5.80674798,8.99169797 6.25446323,9.43941322 6.25446323,9.99169797 C6.25446323,10.5045338 5.86842304,10.9272051 5.37108436,10.9849702 L5.25446323,10.991698 C4.69319848,10.991698 4.24548323,10.5439827 4.24548323,9.99169797 C4.24548323,9.47886213 4.63152342,9.05619081 5.12886211,8.9984257 L5.25446323,8.99169797 Z" id="Path"></path>
        </g>
    </g>
</svg>