<?xml version="1.0" encoding="UTF-8"?>
<svg width="10px" height="10px" viewBox="0 0 10 10" version="1.1" xmlns="http://www.w3.org/2000/svg" xmlns:xlink="http://www.w3.org/1999/xlink">
    <title>close</title>
    <g id="Page-1" stroke="none" stroke-width="1" fill="none" fill-rule="evenodd">
        <g id="close" transform="translate(1.000000, 1.000000)" fill="#828A96" fill-rule="nonzero">
            <path d="M7.66205705,-0.353553832 C7.85731944,-0.548815734 8.17390193,-0.548815339 8.36916383,-0.353552949 C8.54272997,-0.179986381 8.56201478,0.0894380446 8.42701849,0.284306017 L8.36916295,0.353553832 L0.359102949,8.36359383 C0.16384056,8.55885573 -0.15274193,8.55885534 -0.348003832,8.36359295 C-0.521569967,8.19002638 -0.540854781,7.92060196 -0.405858486,7.72573398 L-0.348002949,7.65648617 L7.66205705,-0.353553832 Z" id="Path"></path>
            <path d="M-0.353554935,-0.353551846 C-0.179989342,-0.527118956 0.0894349749,-0.546405283 0.284303705,-0.411410083 L0.353551846,-0.353554935 L8.36366185,7.65648506 C8.55892484,7.85174636 8.55892623,8.16832885 8.36366494,8.36359185 C8.19009934,8.53715896 7.92067503,8.55644528 7.72580629,8.42145008 L7.65655815,8.36359494 L-0.353551846,0.353554935 C-0.548814845,0.158293643 -0.548816228,-0.158288847 -0.353554935,-0.353551846 Z" id="Path"></path>
        </g>
    </g>
</svg>