<?xml version="1.0" encoding="UTF-8"?>
<svg width="14px" height="13px" viewBox="0 0 14 13" version="1.1" xmlns="http://www.w3.org/2000/svg" xmlns:xlink="http://www.w3.org/1999/xlink">
    <title>linkdin</title>
    <g id="Page-1" stroke="none" stroke-width="1" fill="none" fill-rule="evenodd">
        <g id="linkdin" fill="#212934" fill-rule="nonzero">
            <polygon id="Path" points="0.167968 4.14404 3.022706 4.14404 3.022706 12.73281 0.167968 12.73281"></polygon>
            <path d="M1.614976,4.4408921e-16 C0.638476,4.4408921e-16 -2.22044605e-16,0.641215 -2.22044605e-16,1.48401 C-2.22044605e-16,2.30821 0.619476,2.96772 1.577486,2.96772 L1.596076,2.96772 C2.591686,2.96772 3.211256,2.30821 3.211256,1.48401 C3.192666,0.641215 2.591686,4.4408921e-16 1.614976,4.4408921e-16 Z" id="Path"></path>
            <path d="M10.029206,3.93848 C8.514486,3.93848 7.835786,4.77091 7.456396,5.35624 L7.456396,4.14006 L4.601566,4.14006 L4.601566,12.72881 L7.456296,12.72881 L7.456296,7.93248 C7.456296,7.67573 7.474886,7.41939 7.550276,7.23579 C7.756636,6.723 8.226346,6.19182 9.014986,6.19182 C10.048006,6.19182 10.461206,6.97945 10.461206,8.13406 L10.461206,12.72881 L13.315706,12.72881 L13.315706,7.80416 C13.315706,5.16604 11.907306,3.93848 10.029206,3.93848 Z" id="Path"></path>
        </g>
    </g>
</svg>