<svg width="14" height="11" viewBox="0 0 14 11" fill="none" xmlns="http://www.w3.org/2000/svg">
<path d="M1.13514 4.4C0.507027 4.4 0 4.89133 0 5.5C0 6.10867 0.507027 6.6 1.13514 6.6C1.76324 6.6 2.27027 6.10867 2.27027 5.5C2.27027 4.89133 1.76324 4.4 1.13514 4.4ZM1.13514 0C0.507027 0 0 0.491333 0 1.1C0 1.70867 0.507027 2.2 1.13514 2.2C1.76324 2.2 2.27027 1.70867 2.27027 1.1C2.27027 0.491333 1.76324 0 1.13514 0ZM1.13514 8.8C0.507027 8.8 0 9.29867 0 9.9C0 10.5013 0.514595 11 1.13514 11C1.75568 11 2.27027 10.5013 2.27027 9.9C2.27027 9.29867 1.76324 8.8 1.13514 8.8ZM3.40541 10.6333H14V9.16667H3.40541V10.6333ZM3.40541 6.23333H14V4.76667H3.40541V6.23333ZM3.40541 0.366667V1.83333H14V0.366667H3.40541Z" fill="#B7B7B7"/>
</svg>
