<?xml version="1.0" encoding="UTF-8"?>
<svg width="19px" height="22px" viewBox="0 0 19 22" version="1.1" xmlns="http://www.w3.org/2000/svg" xmlns:xlink="http://www.w3.org/1999/xlink">
    <title>location</title>
    <g id="Page-1" stroke="none" stroke-width="1" fill="none" fill-rule="evenodd">
        <g id="location" transform="translate(1.000000, 1.000000)" fill="#FF6611" fill-rule="nonzero">
            <path d="M8.61999593,4.43994029 C6.48268196,4.43994029 4.75000593,6.17259714 4.75000593,8.30990029 C4.75000593,10.4472842 6.48265271,12.1799003 8.61999593,12.1799003 C10.7573403,12.1799003 12.4899959,10.447283 12.4899959,8.30990029 C12.4899959,6.1725983 10.7573111,4.43994029 8.61999593,4.43994029 Z M8.61999593,5.93994029 C9.92888915,5.93994029 10.9899959,7.00103063 10.9899959,8.30990029 C10.9899959,9.61884847 9.92892062,10.6799003 8.61999593,10.6799003 C7.31107389,10.6799003 6.25000593,9.61885112 6.25000593,8.30990029 C6.25000593,7.00102798 7.31110537,5.93994029 8.61999593,5.93994029 Z" id="Path"></path>
            <path d="M-0.488560506,6.32363843 C-1.5386843,10.9624443 0.558235365,15.288498 4.49229911,19.0800232 C6.80376475,21.2999033 10.4432742,21.2999033 12.743646,19.0796439 C16.6856237,15.2942102 18.7846931,10.9744627 17.7342946,6.33444134 C15.5978921,-3.10496605 1.65842755,-3.1143881 -0.488560506,6.32363843 Z M16.2712972,6.66555866 C17.1806729,10.6826272 15.3070576,14.5384049 11.7033158,17.9990379 C9.98231769,19.6600973 7.26182711,19.6600973 5.53226093,17.9990617 C1.93756453,14.5346063 0.0651054759,10.6716265 0.974246756,6.65559369 C2.76678207,-1.22427869 14.4873989,-1.21635642 16.2712972,6.66555866 Z" id="Path"></path>
        </g>
    </g>
</svg>