<?xml version="1.0" encoding="UTF-8"?>
<svg width="22px" height="22px" viewBox="0 0 22 22" version="1.1" xmlns="http://www.w3.org/2000/svg" xmlns:xlink="http://www.w3.org/1999/xlink">
    <title>search-normal</title>
    <g id="Page-1" stroke="none" stroke-width="1" fill="none" fill-rule="evenodd">
        <g id="search-normal" transform="translate(1.000000, 1.000000)" fill="#6E7A8A" fill-rule="nonzero">
            <path d="M9,-0.75 C3.61522644,-0.75 -0.75,3.61522644 -0.75,9 C-0.75,14.3848003 3.61521314,18.75 9,18.75 C14.3848136,18.75 18.75,14.3848136 18.75,9 C18.75,3.61521314 14.3848003,-0.75 9,-0.75 Z M9,0.75 C13.5563721,0.75 17.25,4.44363923 17.25,9 C17.25,13.5563864 13.5563864,17.25 9,17.25 C4.44363923,17.25 0.75,13.5563721 0.75,9 C0.75,4.44365356 4.44365356,0.75 9,0.75 Z" id="Path"></path>
            <path d="M18.5306132,15.9739631 L18.3569787,15.9698289 C16.7013668,15.9553059 15.6976562,17.3488071 16.2182369,18.9250098 C16.9447058,21.1181244 18.9484508,21.3866676 20.2251234,19.4647948 C21.3729416,17.7363156 20.5387359,16.0678907 18.5306132,15.9739631 Z M18.3504,17.4698 C19.2905715,17.4698 19.4953601,17.8522229 18.9756123,18.634902 C18.3910287,19.5149204 17.9753438,19.45921 17.6423562,18.4539645 C17.4428141,17.8497944 17.7204756,17.4643032 18.3504,17.4698 Z" id="Path"></path>
        </g>
    </g>
</svg>