<svg width="11" height="12" viewBox="0 0 11 12" fill="none" xmlns="http://www.w3.org/2000/svg">
<path d="M2.20237 3.75175C1.47959 3.75051 0.802392 4.1128 0.39096 4.72079C-0.0204463 5.32867 -0.113566 6.10465 0.142079 6.79622C0.397714 7.4878 0.969225 8.00674 1.67096 8.18431C2.37266 8.36179 3.11479 8.17524 3.65617 7.68526L6.63319 9.37461C6.51661 10.0778 6.73294 10.7959 7.21629 11.31C7.69964 11.8241 8.39278 12.0731 9.08432 11.9812C9.77576 11.8894 10.3836 11.4676 10.7227 10.8442C11.0617 10.221 11.0915 9.47015 10.8031 8.82074C10.5148 8.17133 9.94242 7.7003 9.26056 7.55128C8.57858 7.40225 7.86803 7.59292 7.34537 8.06518L4.36836 6.37573C4.41239 6.12785 4.41239 5.87389 4.36836 5.62603L7.34537 3.93668C7.8523 4.39356 8.53649 4.58673 9.20081 4.46048C9.86514 4.33422 10.4358 3.90257 10.7484 3.28996C11.0611 2.67723 11.081 1.95154 10.8024 1.32191C10.5238 0.692291 9.97778 0.228577 9.32143 0.0644103C8.66507 -0.0997749 7.97141 0.0537947 7.44019 0.480896C6.90896 0.907997 6.59922 1.56122 6.60025 2.2523C6.60095 2.37804 6.61194 2.50337 6.6332 2.62715L3.65618 4.3166C3.25556 3.95257 2.73824 3.75159 2.20239 3.7518L2.20237 3.75175Z" fill="#B7B7B7"/>
</svg>
