<?xml version="1.0" encoding="UTF-8"?>
<svg width="22px" height="19px" viewBox="0 0 22 19" version="1.1" xmlns="http://www.w3.org/2000/svg" xmlns:xlink="http://www.w3.org/1999/xlink">
    <title>sms</title>
    <g id="Page-1" stroke="none" stroke-width="1" fill="none" fill-rule="evenodd">
        <g id="sms" transform="translate(1.000000, 1.000000)" fill="#FF6611" fill-rule="nonzero">
            <path d="M15,-0.75 L5,-0.75 C1.40538668,-0.75 -0.75,1.25143049 -0.75,5 L-0.75,12 C-0.75,15.7485695 1.40538668,17.75 5,17.75 L15,17.75 C18.5946133,17.75 20.75,15.7485695 20.75,12 L20.75,5 C20.75,1.25143049 18.5946133,-0.75 15,-0.75 Z M5,0.75 L15,0.75 C17.7900021,0.75 19.25,2.10571237 19.25,5 L19.25,12 C19.25,14.8942876 17.7900021,16.25 15,16.25 L5,16.25 C2.20999794,16.25 0.75,14.8942876 0.75,12 L0.75,5 C0.75,2.10571237 2.20999794,0.75 5,0.75 Z" id="Path"></path>
            <path d="M14.5319355,4.91398325 C14.8555836,4.65547837 15.3275119,4.70828739 15.5860167,5.03193551 C15.8210212,5.32616106 15.7987414,5.74293218 15.5495867,6.01049568 L15.4680645,6.08601675 L12.3371305,8.58676151 C11.0880472,9.58117736 9.12804007,9.62261135 7.81808647,8.70976431 L7.65102132,8.5852854 L4.53102132,6.0852854 C4.20777712,5.82627562 4.15570483,5.35426552 4.4147146,5.03102132 C4.65017804,4.73716295 5.0616748,4.66741361 5.37740456,4.85175837 L5.46897868,4.9147146 L8.58713052,7.41323849 C9.29923284,7.9801549 10.4949119,8.01350292 11.263127,7.51390347 L11.4019355,7.41398325 L14.5319355,4.91398325 Z" id="Path"></path>
        </g>
    </g>
</svg>