<svg width="16" height="13" viewBox="0 0 16 13" fill="none" xmlns="http://www.w3.org/2000/svg">
<path d="M5.33105 12.9998C10.7531 12.9998 13.7182 8.05442 13.7182 3.76613C13.7182 3.62567 13.7156 3.4858 13.7099 3.3467C14.2854 2.88857 14.7856 2.31687 15.1803 1.66615C14.6521 1.92472 14.0836 2.09854 13.4875 2.17719C14.096 1.77526 14.5633 1.13972 14.7837 0.382108C14.2141 0.753855 13.5833 1.02393 12.9119 1.16981C12.374 0.53901 11.608 0.144531 10.76 0.144531C9.13226 0.144531 7.81209 1.59785 7.81209 3.38935C7.81209 3.64415 7.83801 3.89179 7.88853 4.12936C5.43859 3.99365 3.26604 2.70235 1.81232 0.738667C1.55926 1.21817 1.41323 1.77536 1.41323 2.36988C1.41323 3.49566 1.93366 4.48979 2.72497 5.07116C2.24136 5.05481 1.7871 4.90865 1.38995 4.66536C1.38951 4.679 1.38951 4.69226 1.38951 4.70677C1.38951 6.27849 2.40558 7.59077 3.75457 7.88813C3.50679 7.96233 3.2461 8.00228 2.97723 8.00228C2.78762 8.00228 2.60275 7.98177 2.42315 7.94375C2.79843 9.23321 3.88672 10.1715 5.17693 10.1978C4.16798 11.0684 2.89701 11.587 1.51568 11.587C1.2781 11.587 1.04323 11.572 0.8125 11.542C2.11712 12.4627 3.66627 12.9999 5.33113 12.9999" fill="#212934"/>
</svg>
