<?xml version="1.0" encoding="UTF-8"?>
<svg width="15px" height="13px" viewBox="0 0 15 13" version="1.1" xmlns="http://www.w3.org/2000/svg" xmlns:xlink="http://www.w3.org/1999/xlink">
    <title>twitter-border</title>
    <defs>
        <path d="M4.51855,12.855369 C9.9406,12.855369 12.9057,7.909889 12.9057,3.621599 C12.9057,3.481139 12.9031,3.341269 12.8974,3.202169 C13.4729,2.744039 13.9731,2.172339 14.3678,1.521619 C13.8396,1.780189 13.2711,1.954019 12.675,2.032659 C13.2835,1.630729 13.7508,0.995189 13.9712,0.237577 C13.4016,0.609324 12.7708,0.879399 12.0994,1.025279 C11.5615,0.394479 10.7955,2.49800181e-16 9.9475,2.49800181e-16 C8.31976,2.49800181e-16 6.99959,1.453319 6.99959,3.244819 C6.99959,3.499619 7.02551,3.747259 7.07603,3.984829 C4.62609,3.849119 2.45354,2.557819 0.99982,0.594136 C0.74676,1.073639 0.60073,1.630829 0.60073,2.225349 C0.60073,3.351129 1.12116,4.345259 1.91247,4.926629 C1.42886,4.910279 0.9746,4.764119 0.57745,4.520829 C0.57701,4.534469 0.57701,4.547729 0.57701,4.562239 C0.57701,6.133959 1.59308,7.446239 2.94207,7.743599 C2.69429,7.817799 2.4336,7.857749 2.16473,7.857749 C1.97512,7.857749 1.79025,7.837239 1.61065,7.799219 C1.98593,9.088679 3.07422,10.026969 4.36443,10.053269 C3.35548,10.923869 2.08451,11.442469 0.70318,11.442469 C0.4656,11.442469 0.23073,11.427469 0,11.397469 C1.30462,12.318169 2.85377,12.855369 4.51863,12.855369" id="path-1"></path>
    </defs>
    <g id="Page-1" stroke="none" stroke-width="1" fill="none" fill-rule="evenodd">
        <g id="twitter-border" transform="translate(0.000000, -0.000000)">
            <path d="M4.51855,12.855369 C9.9406,12.855369 12.9057,7.909889 12.9057,3.621599 C12.9057,3.481139 12.9031,3.341269 12.8974,3.202169 C13.4729,2.744039 13.9731,2.172339 14.3678,1.521619 C13.8396,1.780189 13.2711,1.954019 12.675,2.032659 C13.2835,1.630729 13.7508,0.995189 13.9712,0.237577 C13.4016,0.609324 12.7708,0.879399 12.0994,1.025279 C11.5615,0.394479 10.7955,0 9.9475,0 C8.31976,0 6.99959,1.453319 6.99959,3.244819 C6.99959,3.499619 7.02551,3.747259 7.07603,3.984829 C4.62609,3.849119 2.45354,2.557819 0.99982,0.594136 C0.74676,1.073639 0.60073,1.630829 0.60073,2.225349 C0.60073,3.351129 1.12116,4.345259 1.91247,4.926629 C1.42886,4.910279 0.9746,4.764119 0.57745,4.520829 C0.57701,4.534469 0.57701,4.547729 0.57701,4.562239 C0.57701,6.133959 1.59308,7.446239 2.94207,7.743599 C2.69429,7.817799 2.4336,7.857749 2.16473,7.857749 C1.97512,7.857749 1.79025,7.837239 1.61065,7.799219 C1.98593,9.088679 3.07422,10.026969 4.36443,10.053269 C3.35548,10.923869 2.08451,11.442469 0.70318,11.442469 C0.4656,11.442469 0.23073,11.427469 0,11.397469 C1.30462,12.318169 2.85377,12.855369 4.51863,12.855369" id="Path" fill="#212934" fill-rule="nonzero"></path>
            <g id="Clipped">
                <mask id="mask-2" fill="white">
                    <use xlink:href="#path-1"></use>
                </mask>
                <g id="Path"></g>
                <path d="M12.8974,3.202169 L12.2749,2.420169 L11.8779,2.736179 L11.8987,3.243169 L12.8974,3.202169 Z M14.3678,1.521619 L15.2224,2.039959 L16.9906,-0.875284 L13.9283,0.623913 L14.3678,1.521619 Z M12.675,2.032659 L12.1241,1.198639 L12.8057,3.023579 L12.675,2.032659 Z M13.9712,0.237577 L14.9309,0.516733 L15.6846,-2.074361 L13.4248,-0.599416 L13.9712,0.237577 Z M12.0994,1.025279 L11.3388,1.673819 L11.727,2.128999 L12.3116,2.001999 L12.0994,1.025279 Z M7.07603,3.984829 L7.02075,4.982809 L8.32549,5.055089 L8.05368,3.776929 L7.07603,3.984829 Z M0.99982,0.594136 L1.80315,-0.000572 L0.85757,-1.277851 L0.115849,0.127639 L0.99982,0.594136 Z M1.91247,4.926629 L1.8787,5.925569 L5.10893,6.034759 L2.50425,4.121139 L1.91247,4.926629 Z M0.57745,4.520829 L1.09955,3.668529 L-0.366205,2.770639 L-0.421542,4.488659 L0.57745,4.520829 Z M2.94207,7.743599 L3.22879,8.701109 L6.91781,7.596469 L3.15723,6.767529 L2.94207,7.743599 Z M1.61065,7.799219 L1.81764,6.821379 L0.184485,6.475679 L0.65096,8.078519 L1.61065,7.799219 Z M4.36443,10.053269 L5.0174,10.810069 L6.99091,9.107149 L4.38481,9.053999 L4.36443,10.053269 Z M0,11.397469 L0.128818,10.406369 L-0.576276,12.214169 L0,11.397469 Z M4.51855,13.854769 C10.6886,13.854769 13.9052,8.243049 13.9052,3.621599 L11.9062,3.621599 C11.9062,7.576729 9.1926,11.855769 4.51855,11.855769 L4.51855,13.854769 Z M13.9052,3.621599 C13.9052,3.468669 13.9023,3.315079 13.896,3.161159 L11.8987,3.243169 C11.9038,3.367459 11.9062,3.493609 11.9062,3.621599 L13.9052,3.621599 Z M13.5198,3.984159 C14.1909,3.449999 14.7686,2.788039 15.2224,2.039959 L13.5132,1.003269 C13.1775,1.556639 12.7549,2.038069 12.2749,2.420169 L13.5198,3.984159 Z M13.9283,0.623913 C13.4963,0.835416 13.032,0.977399 12.5442,1.041739 L12.8057,3.023579 C13.5103,2.930629 14.183,2.724949 14.8073,2.419319 L13.9283,0.623913 Z M13.2258,2.866679 C14.0409,2.328369 14.6473,1.491699 14.9309,0.516733 L13.0114,-0.041578 C12.8543,0.498687 12.5262,0.933089 12.1241,1.198639 L13.2258,2.866679 Z M13.4248,-0.599416 C12.9529,-0.291361 12.4347,-0.0703979 11.8872,0.048551 L12.3116,2.001999 C13.107,1.829209 13.8503,1.510009 14.5175,1.074569 L13.4248,-0.599416 Z M12.8599,0.376736 C12.1521,-0.453342 11.1176,-0.999509 9.9475,-0.999509 L9.9475,0.999509 C10.4734,0.999509 10.9709,1.242299 11.3388,1.673819 L12.8599,0.376736 Z M9.9475,-0.999509 C7.67963,-0.999509 6.00008,0.993759 6.00008,3.244819 L7.9991,3.244819 C7.9991,1.912889 8.9599,0.999509 9.9475,0.999509 L9.9475,-0.999509 Z M6.00008,3.244819 C6.00008,3.567479 6.03292,3.884869 6.09839,4.192739 L8.05368,3.776929 C8.01811,3.609639 7.9991,3.431759 7.9991,3.244819 L6.00008,3.244819 Z M7.13132,2.986859 C5.00963,2.869319 3.09949,1.750519 1.80315,-0.000572 L0.19649,1.188849 C1.8076,3.365129 4.24255,4.828909 7.02075,4.982809 L7.13132,2.986859 Z M0.115849,0.127639 C-0.212228,0.749313 -0.398776,1.466419 -0.398776,2.225349 L1.60024,2.225349 C1.60024,1.795229 1.70576,1.397979 1.88378,1.060639 L0.115849,0.127639 Z M-0.398776,2.225349 C-0.398776,3.656699 0.26313,4.955139 1.32069,5.732119 L2.50425,4.121139 C1.97919,3.735389 1.60024,3.045569 1.60024,2.225349 L-0.398776,2.225349 Z M1.94624,3.927689 C1.64555,3.917529 1.3583,3.827029 1.09955,3.668529 L0.055346,5.373139 C0.5909,5.701209 1.21217,5.903039 1.8787,5.925569 L1.94624,3.927689 Z M-0.421542,4.488659 C-0.422586,4.521069 -0.422500776,4.550429 -0.422500776,4.562239 L1.57652,4.562239 C1.57652,4.554219 1.57652,4.551359 1.5765441,4.549239 C1.5765441,4.547759 1.5765441,4.549479 1.57644,4.553009 L-0.421542,4.488659 Z M-0.422499,4.562239 C-0.422499,6.547519 0.86767,8.309849 2.72692,8.719679 L3.15723,6.767529 C2.31849,6.582639 1.57652,5.720399 1.57652,4.562239 L-0.422499,4.562239 Z M2.65536,6.786099 C2.49813,6.833179 2.33395,6.858239 2.16473,6.858239 L2.16473,8.857259 C2.53325,8.857259 2.89045,8.802419 3.22879,8.701109 L2.65536,6.786099 Z M2.16473,6.858239 C2.04766,6.858239 1.93216,6.845619 1.81764,6.821379 L1.40367,8.777069 C1.64834,8.828859 1.90258,8.857259 2.16473,8.857259 L2.16473,6.858239 Z M0.65096,8.078519 C1.12967,9.723409 2.55378,11.016069 4.34405,11.052569 L4.38481,9.053999 C3.59466,9.037889 2.84218,8.453949 2.57035,7.519919 L0.65096,8.078519 Z M3.71146,9.296569 C2.86964,10.022969 1.82647,10.442969 0.70318,10.442969 L0.70318,12.441969 C2.34255,12.441969 3.84131,11.824869 5.0174,10.810069 L3.71146,9.296569 Z M0.70318,10.442969 C0.50763,10.442969 0.31582,10.430669 0.128818,10.406369 L-0.128818,12.388669 C0.145646,12.424369 0.42356,12.441969 0.70318,12.441969 L0.70318,10.442969 Z M-0.576276,12.214169 C0.88486,13.245269 2.63308,13.854869 4.51863,13.854869 L4.51863,11.855869 C3.07445,11.855869 1.72438,11.391069 0.57628,10.580869 L-0.576276,12.214169 Z" id="Shape" fill="#AEBECD" fill-rule="nonzero" mask="url(#mask-2)"></path>
            </g>
        </g>
    </g>
</svg>