<svg width="129" height="40" viewBox="0 0 129 40" fill="none" xmlns="http://www.w3.org/2000/svg">
<path d="M67.5509 10.05C67.5509 11.4915 66.3897 12.6527 64.9483 12.6527C63.5068 12.6527 62.3457 11.4915 62.3457 10.05C62.3457 8.60861 63.4668 7.44745 64.9483 7.44745C66.4297 7.48749 67.5509 8.64865 67.5509 10.05ZM56.8201 15.2953C56.8201 15.5355 56.8201 15.9359 56.8201 15.9359C56.8201 15.9359 55.5789 14.3343 52.9363 14.3343C48.5719 14.3343 45.1685 17.6577 45.1685 22.2623C45.1685 26.8268 48.5319 30.1902 52.9363 30.1902C55.6189 30.1902 56.8201 28.5485 56.8201 28.5485V29.2292C56.8201 29.5495 57.0604 29.7898 57.3807 29.7898H60.6239V14.7347C60.6239 14.7347 57.661 14.7347 57.3807 14.7347C57.0604 14.7347 56.8201 15.015 56.8201 15.2953ZM56.8201 24.9449C56.2195 25.8258 55.0183 26.5866 53.5769 26.5866C51.0143 26.5866 49.0524 24.985 49.0524 22.2623C49.0524 19.5395 51.0143 17.9379 53.5769 17.9379C54.9783 17.9379 56.2596 18.7387 56.8201 19.5796V24.9449ZM63.0263 14.7347H66.8702V29.7898H63.0263V14.7347ZM120.444 14.3343C117.801 14.3343 116.56 15.9359 116.56 15.9359V7.48749H112.716V29.7898C112.716 29.7898 115.679 29.7898 115.959 29.7898C116.28 29.7898 116.52 29.5095 116.52 29.2292V28.5485C116.52 28.5485 117.761 30.1902 120.404 30.1902C124.768 30.1902 128.171 26.8268 128.171 22.2623C128.171 17.6977 124.768 14.3343 120.444 14.3343ZM119.803 26.5465C118.322 26.5465 117.16 25.7858 116.56 24.9049V19.5395C117.16 18.7387 118.442 17.8979 119.803 17.8979C122.366 17.8979 124.328 19.4995 124.328 22.2222C124.328 24.9449 122.366 26.5465 119.803 26.5465ZM110.714 20.8609V29.8298H106.87V21.3013C106.87 18.8188 106.069 17.8178 103.907 17.8178C102.746 17.8178 101.545 18.4184 100.784 19.2993V29.7898H96.9403V14.7347H99.9833C100.304 14.7347 100.544 15.015 100.544 15.2953V15.9359C101.665 14.7748 103.146 14.3343 104.628 14.3343C106.31 14.3343 107.711 14.8148 108.832 15.7758C110.193 16.8969 110.714 18.3383 110.714 20.8609ZM87.6109 14.3343C84.9683 14.3343 83.727 15.9359 83.727 15.9359V7.48749H79.8832V29.7898C79.8832 29.7898 82.8462 29.7898 83.1264 29.7898C83.4468 29.7898 83.687 29.5095 83.687 29.2292V28.5485C83.687 28.5485 84.9282 30.1902 87.5709 30.1902C91.9352 30.1902 95.3387 26.8268 95.3387 22.2623C95.3787 17.6977 91.9753 14.3343 87.6109 14.3343ZM86.9703 26.5465C85.4888 26.5465 84.3276 25.7858 83.727 24.9049V19.5395C84.3276 18.7387 85.6089 17.8979 86.9703 17.8979C89.5328 17.8979 91.4948 19.4995 91.4948 22.2222C91.4948 24.9449 89.5328 26.5465 86.9703 26.5465ZM76.5599 14.3343C77.721 14.3343 78.3216 14.5345 78.3216 14.5345V18.0981C78.3216 18.0981 75.1184 17.017 73.1164 19.2993V29.8298H69.2726V14.7347C69.2726 14.7347 72.2356 14.7347 72.5158 14.7347C72.8362 14.7347 73.0764 15.015 73.0764 15.2953V15.9359C73.7971 15.0951 75.3587 14.3343 76.5599 14.3343ZM36.64 28.4284C36.4398 27.9479 36.2396 27.4274 36.0394 26.987C35.719 26.2663 35.3987 25.5856 35.1184 24.9449L35.0784 24.9049C32.3156 18.8989 29.3527 12.8128 26.2296 6.80681L26.1094 6.56657C25.7891 5.96597 25.4688 5.32533 25.1485 4.68468C24.7481 3.96396 24.3477 3.2032 23.707 2.48248C22.4258 0.880881 20.5839 0 18.622 0C16.6199 0 14.8181 0.880881 13.4968 2.4024C12.8962 3.12312 12.4558 3.88388 12.0554 4.6046C11.7351 5.24525 11.4147 5.88589 11.0944 6.48649L10.9743 6.72673C7.89122 12.7327 4.88822 18.8188 2.12546 24.8248L2.08542 24.9049C1.80514 25.5455 1.48482 26.2262 1.1645 26.9469C0.964297 27.3874 0.764097 27.8679 0.563897 28.3884C0.0433767 29.8699 -0.116783 31.2713 0.0834167 32.7127C0.523857 35.7157 2.52586 38.2382 5.28862 39.3594C6.32966 39.7998 7.41074 40 8.53186 40C8.85218 40 9.25258 39.96 9.5729 39.9199C10.8942 39.7598 12.2556 39.3193 13.5769 38.5586C15.2185 37.6376 16.7801 36.3163 18.5419 34.3944C20.3036 36.3163 21.9052 37.6376 23.5068 38.5586C24.8282 39.3193 26.1895 39.7598 27.5108 39.9199C27.8312 39.96 28.2316 40 28.5519 40C29.673 40 30.7941 39.7998 31.7951 39.3594C34.5979 38.2382 36.5599 35.6757 37.0003 32.7127C37.3206 31.3113 37.1605 29.9099 36.64 28.4284ZM18.5819 30.5105C16.4198 27.7878 15.0183 25.2252 14.5379 23.0631C14.3377 22.1421 14.2976 21.3413 14.4177 20.6206C14.4978 19.98 14.7381 19.4194 15.0584 18.9389C15.8191 17.8579 17.1004 17.1772 18.5819 17.1772C20.0634 17.1772 21.3847 17.8178 22.1054 18.9389C22.4258 19.4194 22.666 19.98 22.7461 20.6206C22.8662 21.3413 22.8262 22.1822 22.626 23.0631C22.1455 25.1852 20.7441 27.7477 18.5819 30.5105ZM34.5579 32.3924C34.2776 34.4745 32.8762 36.2763 30.9142 37.0771C29.9533 37.4775 28.9122 37.5976 27.8712 37.4775C26.8702 37.3574 25.8692 37.037 24.8282 36.4364C23.3867 35.6356 21.9453 34.3944 20.2636 32.5526C22.9062 29.3093 24.5078 26.3463 25.1084 23.7037C25.3887 22.4625 25.4288 21.3413 25.3086 20.3003C25.1485 19.2993 24.7881 18.3784 24.2276 17.5776C22.9863 15.7758 20.9042 14.7347 18.5819 14.7347C16.2596 14.7347 14.1775 15.8158 12.9363 17.5776C12.3757 18.3784 12.0153 19.2993 11.8552 20.3003C11.695 21.3413 11.7351 22.5025 12.0554 23.7037C12.656 26.3463 14.2976 29.3493 16.9002 32.5926C15.2586 34.4344 13.7771 35.6757 12.3357 36.4765C11.2946 37.0771 10.2936 37.3974 9.29262 37.5175C8.21154 37.6376 7.1705 37.4775 6.24958 37.1171C4.28762 36.3163 2.88622 34.5145 2.60594 32.4324C2.48582 31.4314 2.5659 30.4304 2.9663 29.3093C3.08642 28.9089 3.28662 28.5085 3.48682 28.028C3.7671 27.3874 4.08742 26.7067 4.40774 26.026L4.44778 25.9459C7.21054 19.98 10.1735 13.8939 13.2566 7.96797L13.3767 7.72773C13.697 7.12713 14.0173 6.48649 14.3377 5.88589C14.658 5.24524 15.0183 4.64464 15.4588 4.12412C16.2996 3.16316 17.4207 2.64264 18.662 2.64264C19.9032 2.64264 21.0244 3.16316 21.8652 4.12412C22.3056 4.64464 22.666 5.24524 22.9863 5.88589C23.3066 6.48649 23.627 7.12713 23.9473 7.72773L24.0674 7.96797C27.1104 13.9339 30.0734 20.02 32.8362 25.986V26.026C33.1565 26.6667 33.4368 27.3874 33.7571 28.028C33.9573 28.5085 34.1575 28.9089 34.2776 29.3093C34.5979 30.3503 34.718 31.3514 34.5579 32.3924Z" fill="#FF5A5F"/>
</svg>
