<svg width="129" height="48" viewBox="0 0 129 48" fill="none" xmlns="http://www.w3.org/2000/svg">
<g clip-path="url(#clip0_797_9624)">
<path d="M44.3439 24.0526C44.3481 22.2602 43.7979 20.5103 42.7689 19.0428C41.7398 17.5752 40.2821 16.4617 38.5955 15.8549C38.749 15.0726 38.8264 14.2773 38.8266 13.4801C38.8281 10.8413 37.9928 8.26997 36.4408 6.13585C34.8888 4.00172 32.7 2.4147 30.1892 1.60296C27.6783 0.79122 24.9747 0.796569 22.4671 1.61824C19.9595 2.43991 17.7771 4.03558 16.2335 6.17583C15.0947 5.29337 13.6994 4.80608 12.2589 4.78776C10.8183 4.76944 9.41102 5.2211 8.25018 6.07432C7.08934 6.92754 6.23818 8.13583 5.82564 9.51617C5.41311 10.8965 5.46166 12.3737 5.96394 13.724C4.27339 14.3402 2.81209 15.4593 1.7766 16.9308C0.741115 18.4024 0.181106 20.1557 0.171905 21.955C0.167214 23.7536 0.720196 25.5095 1.75472 26.9808C2.78924 28.4521 4.25442 29.5666 5.94854 30.1707C5.79858 30.9526 5.72208 31.7468 5.72004 32.543C5.71752 35.1787 6.55212 37.7471 8.10351 39.8779C9.65489 42.0087 11.8429 43.5918 14.352 44.3988C16.8612 45.2059 19.5618 45.1953 22.0645 44.3685C24.5672 43.5416 26.7426 41.9414 28.2772 39.7984C29.4126 40.6831 30.8056 41.1733 32.2448 41.1948C33.684 41.2163 35.091 40.7678 36.2523 39.9174C37.4137 39.0671 38.266 37.8611 38.68 36.4826C39.0941 35.104 39.0473 33.6281 38.5467 32.2785C40.2382 31.6634 41.7004 30.5446 42.7365 29.0729C43.7726 27.6012 44.3327 25.8473 44.3413 24.0475" fill="white"/>
<path d="M17.5374 19.9502L27.2037 24.3635L36.9598 15.8192C37.1003 15.1142 37.1699 14.3969 37.1677 13.678C37.1672 11.3507 36.4218 9.0846 35.0407 7.21135C33.6596 5.33811 31.7152 3.95605 29.4921 3.26742C27.2689 2.57879 24.8838 2.61973 22.6856 3.38425C20.4874 4.14878 18.5916 5.59675 17.2756 7.51629L15.6504 15.9219L17.5374 19.9502Z" fill="#FEC514"/>
<path d="M7.53244 30.1865C7.3899 30.9025 7.31853 31.6309 7.31934 32.361C7.31939 34.6981 8.06856 36.9736 9.4569 38.8535C10.8452 40.7335 12.7996 42.1189 15.0332 42.8065C17.2668 43.4941 19.662 43.4476 21.8673 42.6738C24.0725 41.9001 25.9716 40.4398 27.286 38.5074L28.8957 30.1197L26.7468 26.0119L17.0446 21.5908L7.53244 30.1865Z" fill="#00BFB3"/>
<path d="M7.47363 13.4595L14.0975 15.0231L15.5481 7.49033C14.6471 6.80717 13.5491 6.43423 12.4185 6.42734C11.2879 6.42046 10.1854 6.78 9.27621 7.45214C8.36702 8.12428 7.7 9.07285 7.37505 10.1558C7.05009 11.2388 7.08468 12.3979 7.47363 13.4595Z" fill="#F04E98"/>
<path d="M6.89816 15.0361C5.44482 15.5266 4.18044 16.4577 3.28087 17.7001C2.3813 18.9425 1.89126 20.4343 1.87891 21.9681C1.87786 23.4505 2.32803 24.898 3.16957 26.1184C4.0111 27.3387 5.20414 28.274 6.59008 28.7999L15.884 20.3994L14.1767 16.7537L6.89816 15.0361Z" fill="#1BA9F5"/>
<path d="M28.9854 38.507C29.8848 39.1867 30.98 39.5573 32.1074 39.5633C33.2348 39.5693 34.3339 39.2104 35.2406 38.5403C36.1472 37.8702 36.8128 36.9248 37.1379 35.8453C37.463 34.7658 37.4302 33.61 37.0444 32.5507L30.4257 31.0103L28.9854 38.507Z" fill="#93C90E"/>
<path d="M30.3317 29.2673L37.6179 30.9695C39.0721 30.4804 40.3374 29.5495 41.2371 28.3069C42.1369 27.0642 42.6264 25.5717 42.6372 24.0375C42.6359 22.5582 42.1848 21.1144 41.3439 19.8974C40.5029 18.6805 39.3118 17.748 37.9286 17.2236L28.3984 25.5677L30.3317 29.2673Z" fill="#0077CC"/>
<path d="M61.9327 31.9115L62.8159 31.8216L62.8775 33.6188C60.9122 33.9156 58.9291 34.0785 56.9417 34.1066C54.7508 34.1066 53.1984 33.4725 52.2844 32.2042C51.3704 30.9359 50.9143 28.9624 50.916 26.2837C50.916 20.9487 53.0367 18.2803 57.278 18.2786C59.3319 18.2786 60.8638 18.852 61.8737 19.9988C62.8835 21.1455 63.3901 22.9427 63.3935 25.3903L63.2729 27.1259H53.2292C53.2292 28.8101 53.5339 30.0578 54.1432 30.8691C54.7526 31.6804 55.812 32.0861 57.3217 32.0861C58.8347 32.0912 60.3717 32.033 61.9327 31.9115ZM61.1111 25.3081C61.1111 23.4408 60.8125 22.122 60.2151 21.3518C59.6178 20.5816 58.6439 20.1956 57.2934 20.1939C55.943 20.1939 54.928 20.5995 54.2485 21.4108C53.569 22.2221 53.219 23.5212 53.1984 25.3081H61.1111Z" fill="#1C1E23"/>
<path d="M66.5771 33.9859V13.9603H68.8595V33.9859H66.5771Z" fill="#1C1E23"/>
<path d="M83.2345 23.1772V30.8537C83.2345 31.6239 85.1292 31.5828 85.1292 31.5828L85.0137 33.6008C83.4091 33.6008 82.0817 33.7343 81.2858 32.9615C79.5623 33.727 77.6954 34.1165 75.8096 34.104C74.4112 34.104 73.3457 33.7078 72.6132 32.9153C71.8806 32.1229 71.5152 30.9838 71.5169 29.4981C71.5169 28.0159 71.8926 26.9247 72.644 26.2247C73.3954 25.5246 74.5721 25.0968 76.1742 24.941L80.9521 24.4866V23.1772C80.9521 22.1502 80.7296 21.4091 80.2845 20.9538C80.0407 20.7249 79.753 20.5478 79.4388 20.4331C79.1247 20.3184 78.7905 20.2684 78.4566 20.2863H72.4591V18.276H78.3051C80.0304 18.276 81.2833 18.6723 82.0637 19.4647C82.8442 20.2572 83.2345 21.4947 83.2345 23.1772ZM73.8558 29.3852C73.8558 31.2525 74.626 32.1862 76.1665 32.1862C77.5561 32.1846 78.9355 31.9476 80.246 31.4853L80.9444 31.2414V26.2196L76.4489 26.6457C75.5349 26.7279 74.8751 26.9915 74.4694 27.4365C74.0638 27.8815 73.8592 28.5311 73.8558 29.3852Z" fill="#1C1E23"/>
<path d="M92.1457 20.3171C89.9326 20.3171 88.826 21.0873 88.826 22.6278C88.826 23.3398 89.0828 23.8421 89.5963 24.1348C90.1097 24.4275 91.2659 24.7322 93.0648 25.0488C94.8722 25.3655 96.1508 25.8071 96.9005 26.3736C97.6502 26.9401 98.0259 28.0047 98.0276 29.5674C98.0276 31.1318 97.5252 32.2786 96.5205 33.0077C95.5158 33.7369 94.0498 34.1023 92.1226 34.104C90.8645 34.104 86.6643 33.6368 86.6643 33.6368L86.7875 31.6599C89.2009 31.8909 90.9441 32.0629 92.1226 32.0629C93.301 32.0629 94.197 31.8755 94.8158 31.5007C95.4345 31.1258 95.7426 30.4968 95.7426 29.6136C95.7426 28.7305 95.4859 28.1323 94.9518 27.8165C94.4178 27.5007 93.2676 27.2029 91.4833 26.9179C89.699 26.6329 88.4281 26.217 87.6784 25.6701C86.9287 25.1233 86.5513 24.1066 86.5513 22.6252C86.5513 21.1438 87.0648 20.0578 88.12 19.3389C89.1752 18.6201 90.4692 18.2735 92.0301 18.2735C93.2676 18.2735 97.5629 18.5893 97.5629 18.5893V20.579C95.2959 20.4789 93.4422 20.3171 92.1457 20.3171Z" fill="#1C1E23"/>
<path d="M109.029 20.5585H104.189V27.8344C104.189 29.5786 104.316 30.7245 104.569 31.2722C104.826 31.8216 105.427 32.0938 106.379 32.0938L109.088 31.9115L109.242 33.7985C108.216 33.9881 107.178 34.1005 106.136 34.1348C104.554 34.1348 103.459 33.7489 102.849 32.9769C102.24 32.205 101.936 30.7339 101.938 28.5636V20.5585H99.7864V18.5816H101.948V13.9243H104.2V18.5816H109.029V20.5585Z" fill="#1C1E23"/>
<path d="M112.202 16.6381V13.9885H114.485V16.6381H112.202ZM112.202 33.9859V18.5816H114.485V33.9859H112.202Z" fill="#1C1E23"/>
<path d="M124.372 18.276C125.512 18.3247 126.647 18.4473 127.771 18.6432L128.5 18.733L128.41 20.5893C127.217 20.4381 126.018 20.3473 124.816 20.3171C123.091 20.3171 121.919 20.7279 121.301 21.5495C120.683 22.371 120.373 23.8926 120.372 26.1143C120.372 28.3394 120.661 29.8867 121.24 30.7561C121.818 31.6256 123.025 32.0621 124.86 32.0655L128.454 31.7934L128.546 33.6804C127.147 33.9174 125.734 34.0598 124.315 34.1066C121.943 34.1066 120.305 33.4973 119.401 32.2786C118.498 31.06 118.046 29.006 118.046 26.1169C118.046 23.226 118.533 21.1969 119.507 20.0296C120.48 18.8623 122.102 18.2778 124.372 18.276Z" fill="#1C1E23"/>
</g>
<defs>
<clipPath id="clip0_797_9624">
<rect width="128" height="48" fill="white" transform="translate(0.171875)"/>
</clipPath>
</defs>
</svg>
