<svg width="35" height="35" viewBox="0 0 35 35" fill="none" xmlns="http://www.w3.org/2000/svg">
<path d="M0 17.4901C0.0200343 7.83355 7.8935 -0.0399163 17.4899 0.000152259C27.2065 0.0402208 35.0199 7.85358 34.9998 17.5301C34.9998 27.1466 27.1264 35 17.4899 35C7.85343 34.98 0 27.1065 0 17.4901ZM31.7944 17.6103C32.1149 10.438 25.9844 3.1255 17.3897 3.10546C9.53631 3.10546 3.14538 9.51643 2.90497 17.1495C2.64452 25.063 9.23579 32.095 17.3697 32.075C25.704 32.075 32.0548 24.9829 31.7944 17.6103Z" fill="#212934"/>
<path d="M3.625 17.5298C3.625 9.97689 9.85565 3.74623 17.4286 3.84641C25.4623 3.94658 31.1921 10.5378 31.112 17.7502C31.0319 25.3031 24.701 31.4937 17.068 31.3735C9.71542 31.2332 3.625 25.0627 3.625 17.5298ZM11.0377 16.9087C15.305 16.9087 19.4521 16.9087 23.6793 16.9087C23.6793 18.6718 23.6793 20.3947 23.6793 22.0976C24.1801 22.0976 24.6009 22.0976 25.0216 22.0976C25.0216 19.8137 25.0216 17.6099 25.0216 15.4062C19.8728 15.4062 14.7841 15.4062 9.67535 15.4062C9.67535 17.65 9.67535 19.8538 9.67535 22.0976C10.1361 22.0976 10.5569 22.0976 11.0377 22.0976C11.0377 20.3747 11.0377 18.6718 11.0377 16.9087ZM6.75034 14.5247C13.8425 14.5247 20.8945 14.5247 27.9666 14.5247C27.9666 14.0238 27.9666 13.563 27.9666 13.0822C20.8545 13.0822 13.8224 13.0822 6.75034 13.0822C6.75034 13.5831 6.75034 14.0238 6.75034 14.5247Z" fill="#212934"/>
</svg>
