<svg width="130" height="48" viewBox="0 0 130 48" fill="none" xmlns="http://www.w3.org/2000/svg">
<path d="M49.0672 15.4618C49.0087 14.3626 49.1607 13.2049 49.418 12.0706C49.991 9.60312 51.0902 7.39294 52.7508 5.46342C54.0254 3.97827 55.5223 2.77378 57.2413 1.83826C58.2938 1.26525 59.393 0.832564 60.5391 0.516824C62.1528 0.0724496 63.8017 -0.0444897 65.4739 0.0139807C66.3744 0.0490629 67.2514 0.201084 68.1285 0.388189C69.3915 0.657152 70.5843 1.11322 71.7303 1.69793C73.2505 2.48143 74.6187 3.51051 75.8115 4.75008C76.8172 5.80255 77.6709 6.96026 78.3608 8.2466C78.9923 9.42771 79.4601 10.6673 79.7641 11.9653C80.1383 13.544 80.2786 15.1461 80.1383 16.7599C79.9395 19.1923 79.2262 21.4726 77.9515 23.5775C77.285 24.6768 76.5015 25.6825 75.5893 26.5946C74.3731 27.7991 72.9932 28.7931 71.4496 29.5415C70.5141 29.9976 69.5552 30.3718 68.5495 30.6291C66.9708 31.0267 65.3687 31.2488 63.7315 31.1085C62.8428 31.0267 61.954 30.9331 61.077 30.7226C60.0362 30.4653 59.0305 30.1613 58.0716 29.7052C56.5865 29.0036 55.2066 28.1148 54.0021 26.9805C52.7391 25.7877 51.6866 24.4429 50.8681 22.9227C50.26 21.7883 49.8039 20.6072 49.4998 19.356C49.2075 18.0696 49.0321 16.8184 49.0672 15.4618ZM64.5969 0.70393C56.5397 0.680542 49.57 7.34616 49.7922 15.9179C49.8974 19.9173 51.4177 23.3436 54.2827 26.1385C57.253 29.027 60.8314 30.4536 64.9828 30.3601C72.7243 30.1847 79.5536 23.8231 79.4367 15.2747C79.3197 7.2643 72.7594 0.715624 64.5969 0.70393Z" fill="#18181A"/>
<path d="M93.6445 38.394C93.7381 38.3823 93.8199 38.3706 93.8901 38.3706C95.2232 38.3706 96.5681 38.3472 97.9012 38.394C98.6145 38.4174 99.3162 38.5694 99.9009 39.0372C100.252 39.3178 100.474 39.6686 100.532 40.1013C100.626 40.7796 100.567 41.4227 100.065 41.949C99.9009 42.1127 99.7138 42.253 99.515 42.4284C99.6319 42.4869 99.7488 42.5571 99.8658 42.6155C100.708 43.0833 101.117 43.82 101.152 44.7673C101.187 45.5858 100.988 46.3343 100.345 46.8956C99.9126 47.2698 99.4097 47.492 98.8601 47.5972C98.3806 47.6791 97.8895 47.7375 97.3983 47.7492C96.2874 47.7726 95.1648 47.7609 94.0538 47.7609C93.9252 47.7609 93.8083 47.7375 93.6562 47.7258C93.6445 44.5918 93.6445 41.5046 93.6445 38.394ZM94.428 47.0125C94.5099 47.0242 94.5801 47.0359 94.6385 47.0359C95.539 47.0359 96.4277 47.0359 97.3282 47.0359C97.9129 47.0359 98.4976 46.9891 99.0472 46.7903C99.6904 46.5681 100.182 46.1705 100.345 45.4806C100.404 45.2233 100.392 44.9427 100.38 44.6737C100.345 44.0422 100.029 43.5745 99.4799 43.2821C98.8952 42.9664 98.2637 42.8377 97.6205 42.826C96.9306 42.8143 96.2406 42.8143 95.5624 42.8143C95.1882 42.8143 94.8139 42.8143 94.4514 42.8143C94.3462 43.1535 94.3462 46.6149 94.428 47.0125ZM94.4163 42.0425C94.4748 42.0659 94.4982 42.0776 94.5216 42.0776C95.6091 42.0776 96.6967 42.101 97.7842 42.0659C98.2988 42.0542 98.8016 41.949 99.2577 41.6566C99.9242 41.2239 100.1 39.9259 99.1875 39.4464C98.7198 39.2009 98.2286 39.1307 97.7258 39.1073C96.7435 39.0722 95.7495 39.0956 94.7672 39.0956C94.393 39.0956 94.3579 39.1307 94.3579 39.5283C94.3579 40.2416 94.3579 40.955 94.3579 41.6683C94.3696 41.8087 94.4047 41.9373 94.4163 42.0425Z" fill="#18181A"/>
<path d="M29.4335 47.7608C29.1763 47.7842 28.9775 47.7959 28.7202 47.8076C28.7202 46.5447 28.7202 45.3285 28.7202 44.1123C28.7202 42.9078 28.7202 41.7033 28.6734 40.4871C27.9367 41.446 27.2701 42.4517 26.5919 43.4457C25.9136 44.4397 25.2354 45.422 24.522 46.4628C24.3817 46.2757 24.2531 46.1237 24.1361 45.9599C22.9316 44.2058 21.7271 42.44 20.5227 40.6859C20.4759 40.6158 20.4174 40.5573 20.3122 40.4287C20.3005 40.6275 20.2888 40.7561 20.2888 40.8964C20.2888 42.978 20.2888 45.0478 20.2888 47.1294C20.2888 47.2229 20.2888 47.3165 20.2888 47.3983C20.2771 47.7491 20.2303 47.7959 19.8795 47.7959C19.5988 47.7842 19.5637 47.7491 19.5404 47.4919C19.5287 47.3983 19.5404 47.3048 19.5404 47.2229C19.5404 44.3579 19.5404 41.4811 19.5404 38.6161C19.5404 38.4524 19.5637 38.2886 19.6105 38.1132C21.2828 40.417 22.8498 42.7792 24.5103 45.1531C25.364 43.972 26.1358 42.7909 26.931 41.6215C27.7262 40.452 28.5331 39.2826 29.3751 38.0314C29.4101 38.1951 29.4452 38.2653 29.4452 38.3471C29.4452 38.8266 29.4452 39.306 29.4452 39.7855C29.4452 42.2646 29.4452 44.7438 29.4452 47.2229C29.4335 47.3983 29.4335 47.5503 29.4335 47.7608Z" fill="#18181A"/>
<path d="M17.8437 43.0364C17.9256 45.5506 15.7856 47.9128 13.0842 47.9245C10.3478 47.9245 8.17271 45.691 8.21949 42.9429C8.26627 40.4169 10.301 38.16 13.131 38.1717C15.7972 38.1951 17.9256 40.452 17.8437 43.0364ZM13.0608 38.9201C10.8273 38.885 8.93283 40.7327 8.94452 43.0481C8.95622 45.3752 10.7805 47.1995 13.1076 47.1878C15.3763 47.1761 17.1187 45.2115 17.1187 43.0247C17.1304 40.8262 15.2476 38.8616 13.0608 38.9201Z" fill="#18181A"/>
<path d="M69.4172 43.0247C69.4406 45.6559 67.3006 47.9246 64.6226 47.9246C62.0148 47.9246 59.7813 45.9015 59.7696 43.0481C59.7579 40.3351 61.8979 38.1951 64.6343 38.1834C67.3006 38.1717 69.4289 40.3585 69.4172 43.0247ZM60.518 43.013C60.4595 45.2115 62.2604 47.1527 64.5525 47.1878C66.8445 47.2229 68.6688 45.3168 68.6805 43.013C68.6922 40.8379 66.8445 38.8733 64.5291 38.9084C62.3657 38.9435 60.4712 40.8379 60.518 43.013Z" fill="#18181A"/>
<path d="M119.525 38.4057C119.525 38.6045 119.525 38.8033 119.525 39.0488C117.303 39.0488 115.081 39.0488 112.883 39.0488C112.778 39.3646 112.766 41.68 112.86 42.101C114.45 42.101 116.052 42.101 117.677 42.101C117.677 42.3466 117.677 42.5454 117.677 42.7909C116.064 42.7909 114.462 42.7909 112.824 42.7909C112.813 42.9547 112.801 43.0833 112.801 43.2119C112.801 44.3579 112.801 45.4923 112.801 46.6383C112.801 47.0944 112.813 47.1061 113.257 47.1061C114.754 47.1061 116.239 47.1061 117.736 47.1061C118.18 47.1061 118.613 47.1061 119.057 47.1061C119.209 47.1061 119.361 47.1294 119.525 47.1411C119.525 47.3633 119.525 47.5504 119.525 47.796C117.046 47.8311 114.59 47.8077 112.146 47.8077C112.053 47.4686 112.029 39.0839 112.099 38.4174C112.368 38.3472 119.057 38.3238 119.525 38.4057Z" fill="#18181A"/>
<path d="M121.059 46.6734C121.257 46.4395 121.398 46.2758 121.561 46.077C122.17 46.4746 122.813 46.7319 123.479 46.919C124.45 47.188 125.444 47.2464 126.438 47.0476C126.917 46.9541 127.362 46.8255 127.771 46.5448C128.367 46.1472 128.59 45.5976 128.461 44.9076C128.402 44.6036 128.215 44.3697 127.981 44.1709C127.549 43.7967 127.011 43.6096 126.473 43.4926C125.666 43.3055 124.847 43.1886 124.041 43.0015C123.327 42.8261 122.614 42.6156 122.041 42.1011C121.678 41.7736 121.468 41.376 121.421 40.8966C121.304 39.7038 121.971 38.967 122.965 38.5811C123.982 38.1835 125.046 38.1017 126.134 38.2069C126.812 38.2654 127.467 38.4057 128.11 38.6045C128.192 38.6279 128.262 38.6864 128.356 38.7332C128.262 38.9437 128.169 39.1308 128.075 39.3413C127.923 39.3179 127.783 39.3062 127.654 39.2594C126.391 38.8384 125.105 38.8384 123.807 39.084C123.397 39.1658 123.012 39.3296 122.684 39.5985C121.877 40.2534 121.901 41.3059 122.965 41.8672C123.608 42.2063 124.298 42.3466 125.011 42.4636C125.841 42.6039 126.672 42.7442 127.467 43.0483C128.028 43.2588 128.554 43.5394 128.894 44.0657C129.572 45.1064 129.256 46.615 128.169 47.2581C127.631 47.5739 127.058 47.7376 126.45 47.8428C125.245 48.0533 124.076 47.913 122.918 47.5388C122.322 47.34 121.749 47.1295 121.222 46.7904C121.199 46.7436 121.14 46.7202 121.059 46.6734Z" fill="#18181A"/>
<path d="M41.1875 46.6499C41.3863 46.4277 41.5266 46.264 41.667 46.1003C42.0178 46.264 42.3452 46.4277 42.6843 46.5914C43.7953 47.106 44.9647 47.258 46.1692 47.1293C46.789 47.0592 47.397 46.9188 47.9233 46.5563C48.6951 46.0184 48.8003 45.1063 48.4027 44.5216C48.1338 44.1357 47.7362 43.9135 47.3152 43.7497C46.5317 43.4457 45.7131 43.3405 44.9062 43.1884C44.2046 43.0598 43.5146 42.9195 42.8714 42.592C42.4154 42.3582 42.0061 42.0892 41.7605 41.6097C41.4097 40.9198 41.4565 39.727 42.2867 39.0721C42.7779 38.6862 43.3392 38.4757 43.9356 38.3588C44.8477 38.1717 45.7599 38.1249 46.6837 38.2769C47.245 38.3705 47.7946 38.5225 48.3443 38.6628C48.391 38.6745 48.4144 38.733 48.4846 38.7798C48.4027 38.9669 48.3209 39.154 48.2156 39.3645C48.0636 39.3411 47.9233 39.3294 47.7946 39.2826C46.5317 38.8616 45.2453 38.8499 43.9473 39.1072C43.3743 39.2242 42.813 39.458 42.4738 40.0193C42.1347 40.569 42.2517 41.2472 42.7662 41.6565C43.269 42.0541 43.8654 42.2178 44.4735 42.3582C45.3038 42.5453 46.1575 42.6505 46.9878 42.861C47.5958 43.013 48.1922 43.2586 48.6834 43.6796C49.2798 44.2058 49.4669 44.8841 49.3733 45.6442C49.2564 46.5797 48.7068 47.1878 47.8414 47.5269C46.5902 48.0064 45.3038 48.0883 43.9824 47.7959C43.2223 47.6322 42.4855 47.3983 41.7956 47.0475C41.5968 46.9188 41.4097 46.7902 41.1875 46.6499Z" fill="#18181A"/>
<path d="M50.6719 46.65C50.8473 46.4396 50.9876 46.2758 51.1279 46.1121C51.4788 46.2758 51.8062 46.4396 52.1336 46.5916C53.2563 47.1178 54.4374 47.2815 55.6652 47.1412C56.2499 47.071 56.823 46.919 57.3492 46.6033C58.3081 46.0303 58.4017 44.5802 57.2673 43.9838C56.7528 43.7148 56.2149 43.5394 55.6652 43.4225C55.0221 43.2938 54.3672 43.1886 53.724 43.0483C53.0575 42.9079 52.426 42.6858 51.8647 42.2999C50.6953 41.5047 50.8005 39.8558 51.7828 39.0606C52.2038 38.7215 52.695 38.4993 53.2095 38.394C53.841 38.2771 54.4958 38.2069 55.139 38.1952C56.0511 38.1718 56.9399 38.3706 57.8053 38.6396C57.8637 38.663 57.9105 38.7098 57.969 38.7682C57.8754 38.967 57.7936 39.1424 57.7 39.3646C57.548 39.3412 57.4077 39.3296 57.279 39.2828C56.0161 38.8618 54.7297 38.8618 53.4317 39.0957C53.0341 39.1658 52.6365 39.3412 52.309 39.5985C51.5022 40.2534 51.5372 41.3409 52.5897 41.8672C53.2329 42.1946 53.9228 42.3466 54.6362 42.4636C55.4664 42.6039 56.2967 42.7325 57.0802 43.0483C57.6883 43.2938 58.2496 43.5862 58.5888 44.1943C59.115 45.1532 58.8928 46.6033 57.7936 47.2581C57.2556 47.5856 56.6592 47.7376 56.0395 47.8428C54.8467 48.0533 53.6889 47.8896 52.5546 47.5271C51.9582 47.34 51.3969 47.1061 50.859 46.7787C50.7888 46.7553 50.7537 46.7202 50.6719 46.65Z" fill="#18181A"/>
<path d="M30.9883 47.6556C32.5904 44.4514 34.1691 41.2706 35.7595 38.0781C35.8296 38.1132 35.8998 38.1249 35.9115 38.1717C37.4668 41.3291 39.0104 44.4748 40.554 47.6439C40.3552 47.8193 40.1798 47.9596 39.8875 47.9596C39.6302 47.4334 39.3612 46.9071 39.104 46.3809C38.8467 45.8664 38.5894 45.3635 38.3439 44.849C38.262 44.6619 38.1334 44.6034 37.9463 44.6034C37.8176 44.6034 37.689 44.6034 37.5603 44.6034C36.2857 44.6034 35.011 44.6151 33.7364 44.5917C33.4323 44.5917 33.2686 44.6853 33.14 44.9659C32.6956 45.9015 32.2162 46.837 31.7484 47.7608C31.6315 47.9947 31.5964 47.9947 31.3625 47.8895C31.304 47.8661 31.2456 47.831 31.1871 47.7959C31.152 47.7608 31.1052 47.7257 30.9883 47.6556ZM35.7828 39.7738C35.1046 41.1303 34.4263 42.4634 33.7247 43.855C34.1223 43.855 34.4614 43.855 34.7889 43.855C35.128 43.855 35.4671 43.855 35.8062 43.855C36.1571 43.855 36.5079 43.8667 36.8587 43.855C37.1861 43.8433 37.5136 43.8901 37.8527 43.8199C37.0926 42.1243 36.0284 40.031 35.7828 39.7738Z" fill="#18181A"/>
<path d="M87.3764 38.0781C88.9434 41.2589 90.5104 44.4514 92.0891 47.6556C91.8669 47.7725 91.6798 47.8778 91.4576 47.9947C91.3056 47.714 91.177 47.4685 91.0483 47.2229C90.6507 46.4277 90.2414 45.6208 89.8672 44.8256C89.7737 44.6385 89.6684 44.5917 89.4813 44.5917C88.043 44.5917 86.6046 44.5917 85.1545 44.5917C84.9323 44.5917 84.8037 44.6736 84.7102 44.8841C84.2307 45.8664 83.7395 46.837 83.2484 47.8193C83.225 47.8661 83.2016 47.9011 83.1782 47.9479C82.8976 47.983 82.7456 47.7608 82.4883 47.679C84.0904 44.4631 85.6808 41.2706 87.2712 38.0781C87.2945 38.0781 87.3296 38.0781 87.3764 38.0781ZM89.3644 43.8433C88.6744 42.44 88.0079 41.1186 87.3062 39.6919C86.5929 41.1069 85.9146 42.44 85.2364 43.8433C86.628 43.8433 87.9494 43.8433 89.3644 43.8433Z" fill="#18181A"/>
<path d="M103.643 38.394C103.643 41.2942 103.643 44.1709 103.643 47.0827C103.83 47.0944 103.982 47.1178 104.134 47.1178C106.04 47.1178 107.946 47.1178 109.864 47.1178C110.016 47.1178 110.168 47.1178 110.355 47.1178C110.355 47.3634 110.355 47.5622 110.355 47.7844C110.215 47.7961 110.11 47.8195 109.993 47.8195C107.759 47.8195 105.526 47.8195 103.292 47.8195C102.918 47.8195 102.906 47.8078 102.906 47.4219C102.906 44.5451 102.906 41.6567 102.906 38.7799C102.906 38.663 102.918 38.5461 102.93 38.4057C103.152 38.394 103.362 38.394 103.643 38.394Z" fill="#18181A"/>
<path d="M4.1397 39.0604C4.1397 39.2592 4.1397 39.4113 4.1397 39.5633C4.1397 42.0775 4.1397 44.6034 4.1397 47.1177C4.1397 47.2112 4.1397 47.3048 4.1397 47.3866C4.1397 47.7608 3.87074 47.9362 3.53161 47.7842C3.47314 47.7608 3.41467 47.6673 3.40297 47.6088C3.37959 47.4802 3.39128 47.3515 3.39128 47.2229C3.39128 44.6736 3.39128 42.136 3.39128 39.5867C3.39128 39.423 3.36789 39.2592 3.3562 39.0604C2.22187 39.0604 1.12263 39.0604 0 39.0604C0 38.8266 0 38.6278 0 38.4173C0.25727 38.3354 6.82934 38.3003 7.42573 38.3939C7.43743 38.4874 7.44912 38.581 7.44912 38.6862C7.44912 38.7915 7.44912 38.8967 7.44912 39.0488C6.88781 39.0488 6.34988 39.0604 5.81195 39.0604C5.26233 39.0604 4.7244 39.0604 4.1397 39.0604Z" fill="#18181A"/>
<path d="M79.7999 47.7844C79.5427 47.7844 79.3322 47.7844 79.0983 47.7844C79.0983 44.8842 79.0983 42.0075 79.0983 39.084C77.9523 39.0489 76.8413 39.084 75.6953 39.0606C75.6953 38.8267 75.6953 38.6162 75.6953 38.3823C78.1745 38.3823 80.6185 38.3823 83.1094 38.3823C83.1094 38.5928 83.1094 38.8033 83.1094 39.0489C82.0218 39.0489 80.946 39.0489 79.8116 39.0489C79.7999 39.5517 79.8116 40.0312 79.8116 40.4989C79.8116 40.9784 79.8116 41.4579 79.8116 41.9373C79.8116 42.4285 79.8116 42.9196 79.8116 43.4225C79.8116 43.9019 79.8116 44.3814 79.8116 44.8608C79.8116 45.3403 79.8116 45.8198 79.8116 46.2992C79.7999 46.7904 79.7999 47.2698 79.7999 47.7844Z" fill="#18181A"/>
<path d="M72.8908 13.2283C72.8908 15.5905 72.8908 17.9644 72.8908 20.3734C72.3997 20.3968 71.9085 20.4202 71.4057 20.35C71.4057 18.4556 71.4057 16.6196 71.4057 14.7836C71.0899 14.6901 58.2382 14.6784 57.8055 14.772C57.8055 16.6196 57.8055 18.4673 57.8055 20.35C57.2909 20.35 56.8232 20.35 56.332 20.35C56.332 17.9527 56.332 15.5905 56.332 13.2166C56.6712 13.1231 72.54 13.1114 72.8908 13.2283Z" fill="#18181A"/>
<path d="M53.1836 12.1875C53.1836 11.6613 53.1836 11.1818 53.1836 10.679C60.8081 10.679 68.3976 10.679 76.0455 10.679C76.0455 10.9479 76.0455 11.1935 76.0455 11.4274C76.0455 11.6613 76.0455 11.8951 76.0455 12.1524C75.9403 12.1758 75.8584 12.2109 75.7765 12.2109C68.4093 12.2109 61.042 12.2109 53.6747 12.2109C53.5227 12.2109 53.3707 12.1992 53.1836 12.1875Z" fill="#18181A"/>
</svg>
