<svg width="129" height="48" fill="none" xmlns="http://www.w3.org/2000/svg"><g clip-path="url(#clip0_797_9624)"><path d="M44.344 24.053a8.69 8.69 0 00-5.748-8.198 12.475 12.475 0 00-22.362-9.68 6.626 6.626 0 00-10.27 7.549 8.809 8.809 0 00-5.792 8.231 8.698 8.698 0 005.777 8.216 12.441 12.441 0 0022.329 9.628 6.616 6.616 0 0010.269-7.52 8.803 8.803 0 005.794-8.232" fill="#fff"/><path d="M17.537 19.95l9.667 4.413 9.756-8.544c.14-.705.21-1.422.208-2.141a10.901 10.901 0 00-19.892-6.162l-1.626 8.406 1.887 4.028z" fill="#FEC514"/><path d="M7.532 30.186a11.074 11.074 0 00-.213 2.175 10.93 10.93 0 0019.967 6.146l1.61-8.387-2.15-4.108-9.701-4.421-9.513 8.595z" fill="#00BFB3"/><path d="M7.474 13.46l6.623 1.563 1.451-7.533a5.233 5.233 0 00-8.074 5.97z" fill="#F04E98"/><path d="M6.898 15.036a7.38 7.38 0 00-5.02 6.932A7.302 7.302 0 006.59 28.8l9.294-8.4-1.707-3.646-7.279-1.718z" fill="#1BA9F5"/><path d="M28.985 38.507a5.224 5.224 0 008.06-5.956l-6.62-1.54-1.44 7.496z" fill="#93C90E"/><path d="M30.332 29.267l7.286 1.703a7.368 7.368 0 005.02-6.932 7.294 7.294 0 00-4.71-6.814l-9.53 8.344 1.934 3.7z" fill="#07C"/><path d="M61.933 31.912l.883-.09.061 1.797c-1.965.297-3.948.46-5.935.488-2.191 0-3.744-.635-4.658-1.903-.914-1.268-1.37-3.242-1.368-5.92 0-5.335 2.12-8.004 6.362-8.005 2.054 0 3.586.573 4.596 1.72 1.01 1.146 1.516 2.944 1.52 5.391l-.121 1.736H53.229c0 1.684.305 2.932.914 3.743.61.811 1.669 1.217 3.179 1.217 1.513.005 3.05-.053 4.61-.174zm-.822-6.604c0-1.867-.298-3.186-.896-3.956-.597-.77-1.571-1.156-2.922-1.158-1.35 0-2.365.405-3.044 1.217-.68.811-1.03 2.11-1.05 3.897h7.912zm5.466 8.678V13.96h2.282v20.026h-2.282zm16.657-10.809v7.677c0 .77 1.895.729 1.895.729l-.115 2.018c-1.605 0-2.932.133-3.728-.64a13.274 13.274 0 01-5.476 1.143c-1.399 0-2.464-.396-3.197-1.189-.732-.792-1.098-1.931-1.096-3.417 0-1.482.376-2.573 1.127-3.273.751-.7 1.928-1.128 3.53-1.284l4.778-.454v-1.31c0-1.027-.222-1.768-.668-2.223a2.476 2.476 0 00-1.827-.668h-5.998v-2.01h5.846c1.725 0 2.978.396 3.759 1.189.78.792 1.17 2.03 1.17 3.712zm-9.378 6.208c0 1.867.77 2.801 2.31 2.801a12.306 12.306 0 004.08-.7l.698-.245V26.22l-4.495.426c-.914.082-1.574.345-1.98.79-.405.445-.61 1.095-.613 1.95zm18.29-9.068c-2.213 0-3.32.77-3.32 2.31 0 .713.257 1.215.77 1.508.514.292 1.67.597 3.469.914 1.807.317 3.086.758 3.835 1.325.75.566 1.126 1.63 1.128 3.193 0 1.565-.503 2.712-1.508 3.44-1.004.73-2.47 1.095-4.397 1.097-1.258 0-5.459-.467-5.459-.467l.123-1.977c2.414.23 4.157.403 5.336.403 1.178 0 2.074-.188 2.693-.562.618-.375.927-1.004.927-1.887 0-.884-.257-1.482-.791-1.797-.534-.316-1.684-.614-3.469-.9-1.784-.284-3.055-.7-3.805-1.247-.75-.547-1.127-1.563-1.127-3.045 0-1.481.514-2.567 1.569-3.286 1.055-.719 2.35-1.066 3.91-1.066 1.238 0 5.533.316 5.533.316v1.99c-2.267-.1-4.12-.262-5.417-.262zm16.883.241h-4.84v7.276c0 1.745.127 2.89.38 3.438.257.55.858.822 1.81.822l2.709-.183.154 1.887a20.91 20.91 0 01-3.106.337c-1.582 0-2.677-.386-3.287-1.158-.609-.772-.913-2.243-.911-4.413v-8.006h-2.152v-1.976h2.162v-4.658h2.252v4.658h4.829v1.976zm3.173-3.92v-2.65h2.283v2.65h-2.283zm0 17.348V18.582h2.283v15.404h-2.283zm12.17-15.71a26.34 26.34 0 013.399.367l.729.09-.09 1.856a35.712 35.712 0 00-3.594-.272c-1.725 0-2.897.41-3.515 1.232-.618.822-.928 2.344-.929 4.565 0 2.225.289 3.773.868 4.642.578.87 1.785 1.306 3.62 1.31l3.594-.273.092 1.887c-1.399.237-2.812.38-4.231.427-2.372 0-4.01-.61-4.914-1.828-.903-1.219-1.355-3.273-1.355-6.162 0-2.891.487-4.92 1.461-6.087.973-1.168 2.595-1.752 4.865-1.754z" fill="#1C1E23"/></g><defs><clipPath id="clip0_797_9624"><path fill="#fff" transform="translate(.172)" d="M0 0h128v48H0z"/></clipPath></defs></svg>