<svg width="129" height="40" fill="none" xmlns="http://www.w3.org/2000/svg"><path d="M67.55 10.05a2.597 2.597 0 01-2.602 2.603 2.597 2.597 0 01-2.602-2.603c0-1.441 1.12-2.603 2.602-2.603 1.482.04 2.603 1.202 2.603 2.603zm-10.73 5.245v.64s-1.241-1.6-3.884-1.6c-4.364 0-7.767 3.323-7.767 7.927 0 4.565 3.363 7.928 7.767 7.928 2.683 0 3.884-1.642 3.884-1.642v.681c0 .32.24.56.56.56h3.244V14.736H57.38c-.32 0-.56.28-.56.56zm0 9.65c-.6.88-1.802 1.642-3.243 1.642-2.563 0-4.525-1.602-4.525-4.325s1.962-4.324 4.525-4.324c1.401 0 2.683.8 3.243 1.642v5.365zm6.206-10.21h3.844V29.79h-3.844V14.735zm57.418-.4c-2.643 0-3.884 1.6-3.884 1.6V7.488h-3.844V29.79h3.243c.321 0 .561-.28.561-.56v-.681s1.241 1.641 3.884 1.641c4.364 0 7.767-3.363 7.767-7.928 0-4.564-3.403-7.928-7.727-7.928zm-.641 12.212c-1.481 0-2.643-.761-3.243-1.642v-5.366c.6-.8 1.882-1.641 3.243-1.641 2.563 0 4.525 1.602 4.525 4.324 0 2.723-1.962 4.325-4.525 4.325zm-9.089-5.686v8.969h-3.844V21.3c0-2.482-.801-3.483-2.963-3.483-1.161 0-2.362.6-3.123 1.481v10.49H96.94V14.736h3.043c.321 0 .561.28.561.56v.64c1.121-1.16 2.602-1.6 4.084-1.6 1.682 0 3.083.48 4.204 1.44 1.361 1.122 1.882 2.563 1.882 5.086zm-23.103-6.527c-2.643 0-3.884 1.602-3.884 1.602V7.487h-3.844V29.79h3.243c.32 0 .561-.28.561-.56v-.681s1.241 1.641 3.884 1.641c4.364 0 7.768-3.363 7.768-7.928.04-4.564-3.364-7.928-7.728-7.928zm-.64 12.213c-1.482 0-2.643-.761-3.244-1.642v-5.366c.6-.8 1.882-1.641 3.243-1.641 2.563 0 4.525 1.602 4.525 4.324 0 2.723-1.962 4.325-4.525 4.325zM76.56 14.334c1.161 0 1.762.2 1.762.2v3.564s-3.204-1.081-5.206 1.201v10.53h-3.843V14.736h3.243c.32 0 .56.28.56.56v.64c.721-.84 2.283-1.6 3.484-1.6zM36.64 28.428c-.2-.48-.4-1-.6-1.441-.321-.72-.641-1.401-.922-2.042l-.04-.04A417.984 417.984 0 0026.23 6.807l-.12-.24c-.32-.601-.641-1.242-.962-1.882-.4-.721-.8-1.482-1.441-2.203C22.426.881 20.584 0 18.622 0c-2.002 0-3.804.88-5.125 2.402-.6.721-1.041 1.482-1.442 2.203-.32.64-.64 1.28-.96 1.881l-.12.24c-3.085 6.008-6.088 12.094-8.851 18.1l-.04.08c-.28.64-.6 1.321-.92 2.042-.2.44-.4.92-.601 1.441-.52 1.482-.68 2.883-.48 4.325a8.51 8.51 0 005.205 6.646c1.04.44 2.122.641 3.243.641.32 0 .72-.04 1.04-.08 1.322-.16 2.684-.6 4.005-1.361 1.642-.921 3.203-2.243 4.965-4.165 1.762 1.922 3.363 3.244 4.965 4.165 1.321.76 2.682 1.2 4.004 1.36.32.041.72.081 1.04.081 1.122 0 2.243-.2 3.244-.64 2.803-1.122 4.765-3.684 5.205-6.647.32-1.402.16-2.803-.36-4.285zM18.582 30.51c-2.162-2.722-3.564-5.285-4.044-7.447-.2-.92-.24-1.722-.12-2.442.08-.641.32-1.202.64-1.682.761-1.081 2.042-1.762 3.524-1.762 1.481 0 2.803.64 3.523 1.762.32.48.561 1.041.641 1.682.12.72.08 1.561-.12 2.442-.48 2.122-1.882 4.685-4.044 7.448zm15.976 1.882a5.95 5.95 0 01-3.644 4.685c-.96.4-2.002.52-3.043.4-1-.12-2.002-.44-3.043-1.04-1.441-.801-2.883-2.043-4.564-3.884 2.642-3.244 4.244-6.207 4.844-8.85.28-1.24.32-2.362.2-3.403a6.497 6.497 0 00-1.08-2.722c-1.242-1.802-3.324-2.843-5.646-2.843s-4.405 1.08-5.646 2.843c-.56.8-.92 1.721-1.08 2.722a8.313 8.313 0 00.2 3.404c.6 2.642 2.242 5.645 4.844 8.889-1.641 1.841-3.123 3.083-4.564 3.883-1.041.601-2.042.921-3.043 1.041a6.404 6.404 0 01-3.043-.4 5.95 5.95 0 01-3.644-4.685 6.628 6.628 0 01.36-3.123c.12-.4.32-.8.52-1.281.281-.64.601-1.321.922-2.002l.04-.08a437.724 437.724 0 018.809-17.978l.12-.24c.32-.6.64-1.242.96-1.842.321-.64.681-1.241 1.122-1.762.84-.96 1.962-1.481 3.203-1.481 1.241 0 2.362.52 3.203 1.481.44.52.801 1.121 1.121 1.762.32.6.641 1.241.961 1.842l.12.24a531.221 531.221 0 018.77 18.018v.04c.32.64.6 1.361.92 2.002.2.48.4.88.52 1.281.32 1.041.441 2.042.28 3.083z" fill="#FF5A5F"/></svg>