<svg width="115" height="48" fill="none" xmlns="http://www.w3.org/2000/svg"><path d="M93.1 14.56c1.492 0 2.648-1.181 2.648-2.665A2.624 2.624 0 0093.1 9.26c-1.461 0-2.679 1.181-2.679 2.635-.03 1.484 1.218 2.665 2.68 2.665zm-22.83 1.847h3.988v2.423c1.005-1.453 3.227-2.786 5.845-2.786 4.961 0 8.736 4.21 8.736 9.389 0 5.149-3.775 9.389-8.736 9.389-2.618 0-4.81-1.333-5.845-2.787V42h-3.987V16.407zm9.102 3.241c-3.227 0-5.449 2.514-5.449 5.785 0 3.24 2.222 5.785 5.449 5.785 3.196 0 5.418-2.514 5.418-5.785 0-3.24-2.222-5.785-5.418-5.785zm18.659-3.241h3.988v2.454c1.096-1.817 3.165-2.817 5.509-2.817 4.201 0 6.941 2.968 6.941 7.541v10.873h-3.988V24.253c0-2.847-1.461-4.573-3.774-4.573-2.649 0-4.688 2.059-4.688 5.905v8.875h-3.988V16.407zm-58.139-.363c-2.344 0-4.414 1-5.51 2.817V9.26h-3.987v25.199h3.987v-8.875c0-3.846 2.04-5.906 4.688-5.906 2.313 0 3.774 1.727 3.774 4.574v10.207h3.988V23.584c-.03-4.573-2.74-7.541-6.94-7.541zm55.156.364h-3.987v18.05h3.987v-18.05zM58.551 34.822c-5.357 0-9.497-4.15-9.497-9.389 0-5.24 4.14-9.389 9.497-9.389 5.358 0 9.498 4.15 9.498 9.389 0 5.24-4.14 9.389-9.498 9.389zm0-3.695c3.197 0 5.449-2.484 5.449-5.694s-2.252-5.694-5.449-5.694c-3.226 0-5.479 2.484-5.479 5.694s2.253 5.694 5.48 5.694z" fill="#2C3242"/><path d="M15.873 14.087c-.03 1.207-.881 2.927-2.309 2.927-.88 0-1.61-.725-1.61-1.6v-.03c-.03-1.418-.668-2.655-1.67-3.53a5.206 5.206 0 00-2.734-1.176 4.853 4.853 0 013.493-1.449c1.731 0 3.311.996 4.222 2.444.426.724.638 1.6.608 2.414zm-5.65.121c.76.965 1.215 2.805.121 3.71a1.634 1.634 0 01-2.278-.18 4.9 4.9 0 00-3.554-1.63 4.87 4.87 0 00-2.855.845 4.791 4.791 0 011.731-3.349c1.367-1.116 3.28-1.448 4.921-.784.76.271 1.428.754 1.914 1.388zM5.97 17.889c1.185.24 2.764 1.387 2.521 2.775-.152.875-1.002 1.448-1.883 1.298h-.03a4.85 4.85 0 00-3.767 1.025 4.84 4.84 0 00-1.64 2.474 4.978 4.978 0 01-.851-3.68 4.961 4.961 0 013.28-3.742 4.873 4.873 0 012.37-.15zm-.88 5.551c1.062-.573 3.006-.694 3.705.513.456.754.182 1.75-.577 2.202-1.215.724-1.975 1.9-2.248 3.198-.182.966-.091 1.991.365 2.927a4.785 4.785 0 01-3.008-2.263 4.89 4.89 0 01.061-4.948c.425-.694 1.002-1.267 1.701-1.63zm2.915 4.797c.456-1.116 1.853-2.444 3.16-1.961a1.597 1.597 0 01.971 2.052c-.455 1.327-.273 2.715.365 3.861a4.814 4.814 0 002.157 2.022c-1.155.543-2.491.663-3.767.18a4.887 4.887 0 01-3.16-3.831c-.09-.784 0-1.599.274-2.323zm5.347 1.81c-.395-1.146-.183-3.047 1.154-3.53.85-.302 1.762.12 2.066.966a4.889 4.889 0 002.794 2.745c.912.362 1.975.422 2.977.181-.516 1.146-1.488 2.082-2.764 2.565-1.67.603-3.585.24-4.89-.936-.608-.573-1.094-1.237-1.337-1.991zm5.285-2.021c-1.033-.634-2.126-2.233-1.397-3.44a1.669 1.669 0 012.217-.603 4.955 4.955 0 003.919.332 4.985 4.985 0 002.4-1.78 4.733 4.733 0 01-.486 3.71 4.851 4.851 0 01-4.344 2.414c-.85 0-1.671-.21-2.309-.633zm2.734-4.918c-1.215.18-3.068-.362-3.311-1.75-.182-.845.425-1.69 1.306-1.84h.03a4.757 4.757 0 003.19-2.233 4.67 4.67 0 00.668-2.866c1.033.694 1.823 1.81 2.035 3.137.304 1.72-.394 3.53-1.761 4.616-.638.483-1.398.845-2.157.936zm-1.094-5.491c-.82.905-2.582 1.69-3.675.784a1.584 1.584 0 01-.213-2.262 4.776 4.776 0 001.003-3.772 4.937 4.937 0 00-1.337-2.655 4.933 4.933 0 013.615 1.117 4.808 4.808 0 011.64 4.676 4.464 4.464 0 01-1.032 2.112z" fill="#175FFF"/></svg>