<svg width="130" height="48" fill="none" xmlns="http://www.w3.org/2000/svg"><path d="M49.067 15.462c-.058-1.1.094-2.257.351-3.391.573-2.468 1.672-4.678 3.333-6.608a15.84 15.84 0 014.49-3.625A15.427 15.427 0 0160.54.517c1.614-.445 3.263-.561 4.935-.503.9.035 1.777.187 2.654.374 1.263.27 2.456.725 3.602 1.31a15.528 15.528 0 014.081 3.052 15.957 15.957 0 012.55 3.497c.631 1.18 1.1 2.42 1.403 3.718.374 1.579.515 3.181.374 4.795-.199 2.432-.912 4.713-2.187 6.817a15.904 15.904 0 01-2.362 3.018 15.436 15.436 0 01-4.14 2.947 15.21 15.21 0 01-2.9 1.087c-1.578.398-3.18.62-4.818.48-.888-.082-1.777-.176-2.654-.386-1.04-.258-2.046-.562-3.005-1.018-1.486-.701-2.865-1.59-4.07-2.724a15.98 15.98 0 01-3.134-4.058 14.998 14.998 0 01-1.368-3.567c-.292-1.286-.468-2.538-.433-3.894zM64.597.704C56.54.68 49.57 7.346 49.792 15.918c.105 4 1.626 7.426 4.49 10.22 2.971 2.889 6.55 4.316 10.7 4.222 7.742-.175 14.572-6.537 14.455-15.085C79.32 7.265 72.759.715 64.597.704zm29.047 37.69c.094-.012.176-.023.246-.023 1.333 0 2.678-.024 4.011.023.714.023 1.415.175 2 .643.351.28.573.632.631 1.064.094.679.035 1.322-.467 1.848-.164.164-.351.304-.55.48.117.058.234.128.35.186.843.468 1.252 1.205 1.287 2.152.035.819-.164 1.567-.807 2.129a3.12 3.12 0 01-1.485.701c-.48.082-.97.14-1.462.152-1.11.024-2.233.012-3.344.012-.129 0-.246-.024-.398-.035-.012-3.134-.012-6.221-.012-9.332zm.784 8.619c.082.011.152.023.21.023h2.69c.585 0 1.17-.047 1.72-.246.642-.222 1.134-.62 1.297-1.31.059-.257.047-.537.035-.806-.035-.632-.351-1.1-.9-1.392-.585-.316-1.216-.444-1.86-.456-.69-.012-1.38-.012-2.058-.012h-1.11c-.106.34-.106 3.8-.024 4.199zm-.012-4.97c.059.023.082.035.106.035 1.087 0 2.175.023 3.262-.012.515-.012 1.018-.117 1.474-.41.666-.432.842-1.73-.07-2.21-.468-.245-.96-.315-1.462-.339-.983-.035-1.977-.011-2.959-.011-.374 0-.41.035-.41.432v2.14c.013.14.048.27.06.374zM29.433 47.76a14.22 14.22 0 01-.713.048v-3.696c0-1.204 0-2.409-.047-3.625-.736.959-1.403 1.965-2.081 2.959-.678.994-1.357 1.976-2.07 3.017-.14-.187-.269-.34-.386-.503-1.204-1.754-2.409-3.52-3.613-5.274-.047-.07-.106-.129-.21-.257-.012.198-.024.327-.024.467V47.4c-.012.35-.059.397-.41.397-.28-.012-.315-.047-.339-.304-.011-.094 0-.187 0-.27v-8.606c0-.164.024-.327.07-.503 1.673 2.304 3.24 4.666 4.9 7.04.854-1.181 1.626-2.362 2.421-3.532.795-1.169 1.602-2.338 2.444-3.59.035.164.07.234.07.316v8.876c-.012.175-.012.327-.012.538zm-11.589-4.724c.082 2.515-2.058 4.877-4.76 4.889-2.736 0-4.911-2.234-4.865-4.982a4.86 4.86 0 014.912-4.771c2.666.023 4.795 2.28 4.713 4.864zM13.06 38.92c-2.234-.035-4.128 1.813-4.116 4.128.011 2.327 1.835 4.151 4.163 4.14 2.268-.012 4.01-1.977 4.01-4.163.012-2.199-1.87-4.163-4.057-4.105zm56.357 4.105c.024 2.63-2.116 4.9-4.794 4.9-2.608 0-4.842-2.023-4.853-4.877-.012-2.713 2.128-4.853 4.864-4.865 2.667-.011 4.795 2.175 4.783 4.842zm-8.899-.012c-.059 2.199 1.742 4.14 4.034 4.175 2.292.035 4.117-1.871 4.128-4.175.012-2.175-1.836-4.14-4.15-4.105-2.164.035-4.059 1.93-4.012 4.105zm59.007-4.607v.643h-6.642c-.105.316-.117 2.631-.023 3.052h4.817v.69h-4.853c-.011.164-.023.292-.023.42v3.427c0 .456.012.468.456.468h5.8c.152 0 .304.023.468.035v.655c-2.479.035-4.935.012-7.379.012-.093-.34-.117-8.724-.047-9.39.269-.07 6.958-.094 7.426-.012zm1.534 8.267c.198-.233.339-.397.502-.596.609.398 1.252.655 1.918.842a6.331 6.331 0 002.959.129c.479-.094.924-.223 1.333-.503.596-.398.819-.947.69-1.637-.059-.304-.246-.538-.48-.737-.432-.374-.97-.561-1.508-.678-.807-.188-1.626-.304-2.432-.492-.714-.175-1.427-.385-2-.9a1.811 1.811 0 01-.62-1.204c-.117-1.193.55-1.93 1.544-2.316 1.017-.398 2.081-.48 3.169-.374a9.402 9.402 0 011.976.398c.082.023.152.081.246.128-.094.21-.187.398-.281.608-.152-.023-.292-.035-.421-.082-1.263-.42-2.549-.42-3.847-.175a2.54 2.54 0 00-1.123.514c-.807.655-.783 1.708.281 2.27.643.338 1.333.479 2.046.596.83.14 1.661.28 2.456.584.561.21 1.087.491 1.427 1.018.678 1.04.362 2.549-.725 3.192-.538.316-1.111.48-1.719.585-1.205.21-2.374.07-3.532-.304-.596-.199-1.169-.41-1.696-.749-.023-.046-.082-.07-.163-.117zm-79.871-.023c.198-.222.339-.386.479-.55.35.164.678.328 1.017.491 1.111.515 2.28.667 3.485.538.62-.07 1.228-.21 1.754-.573.772-.538.877-1.45.48-2.034-.27-.386-.667-.608-1.088-.772-.783-.304-1.602-.41-2.409-.562-.701-.128-1.391-.269-2.035-.596-.456-.234-.865-.503-1.11-.982-.351-.69-.305-1.883.526-2.538.49-.386 1.052-.596 1.649-.713.912-.187 1.824-.234 2.748-.082.561.093 1.11.245 1.66.386.047.012.07.07.14.117a11.25 11.25 0 01-.268.584c-.152-.023-.293-.035-.421-.081-1.263-.421-2.55-.433-3.848-.176-.573.117-1.134.351-1.473.912-.34.55-.222 1.228.292 1.638.503.397 1.1.56 1.708.701.83.187 1.684.293 2.514.503.608.152 1.204.398 1.695.819.597.526.784 1.204.69 1.964-.117.936-.666 1.544-1.532 1.883-1.25.48-2.537.561-3.859.269-.76-.164-1.496-.398-2.186-.748-.2-.13-.386-.258-.608-.398zm9.484 0c.175-.21.316-.374.456-.538.35.164.678.328 1.006.48 1.122.526 2.303.69 3.531.55.585-.071 1.158-.223 1.684-.539.96-.573 1.053-2.023-.082-2.62a6.219 6.219 0 00-1.602-.56c-.643-.13-1.298-.234-1.941-.375-.666-.14-1.298-.362-1.86-.748-1.169-.795-1.063-2.444-.081-3.24.42-.339.912-.56 1.426-.666a11.869 11.869 0 011.93-.199c.912-.023 1.8.176 2.666.445.059.023.105.07.164.128-.094.199-.175.374-.269.597-.152-.024-.292-.035-.421-.082-1.263-.421-2.55-.421-3.847-.187-.398.07-.796.245-1.123.503-.807.654-.772 1.742.28 2.268.644.328 1.334.48 2.047.597.83.14 1.66.269 2.444.584.608.246 1.17.538 1.509 1.146.526.96.304 2.41-.795 3.064-.538.328-1.135.48-1.755.585-1.192.21-2.35.047-3.484-.316a7.563 7.563 0 01-1.696-.748c-.07-.024-.105-.059-.187-.129zm-19.684 1.006c1.602-3.205 3.181-6.385 4.772-9.578.07.035.14.047.151.094 1.556 3.157 3.1 6.303 4.643 9.472-.199.175-.374.316-.666.316-.258-.527-.527-1.053-.784-1.58-.257-.514-.515-1.017-.76-1.531-.082-.187-.21-.246-.398-.246h-.386c-1.274 0-2.549.012-3.824-.011-.304 0-.467.093-.596.374-.444.935-.924 1.871-1.392 2.795-.117.234-.152.234-.386.128-.058-.023-.116-.058-.175-.093a.99.99 0 00-.199-.14zm4.795-7.882c-.678 1.356-1.357 2.69-2.058 4.081h2.081c.351 0 .702.012 1.053 0 .327-.012.655.035.994-.035-.76-1.696-1.825-3.789-2.07-4.046zm51.593-1.696c1.567 3.18 3.134 6.373 4.713 9.578-.222.117-.41.222-.631.339a65.282 65.282 0 01-.41-.772c-.397-.795-.807-1.602-1.18-2.397-.094-.188-.2-.234-.387-.234h-4.326c-.223 0-.351.082-.445.292-.48.982-.97 1.953-1.462 2.935-.023.047-.046.082-.07.129-.28.035-.432-.187-.69-.269l4.783-9.6h.105zm1.988 5.765c-.69-1.403-1.356-2.724-2.058-4.151-.713 1.415-1.391 2.748-2.07 4.151h4.128zm14.279-5.449v8.689c.187.011.339.035.491.035h6.221v.666c-.14.012-.245.035-.362.035h-6.701c-.374 0-.386-.011-.386-.397V38.78c0-.117.012-.234.024-.374.222-.012.432-.012.713-.012zM4.14 39.06v8.327c0 .374-.27.55-.608.397-.059-.023-.117-.117-.129-.175-.023-.129-.012-.258-.012-.386v-7.636c0-.164-.023-.328-.035-.527H0v-.643c.257-.082 6.83-.117 7.426-.023.011.093.023.187.023.292v.363c-.561 0-1.1.011-1.637.011H4.14zm75.66 8.724h-.702v-8.7c-1.146-.035-2.257 0-3.403-.023v-.679h7.414v.667h-3.297c-.012.503 0 .982 0 1.45v5.8c-.012.491-.012.97-.012 1.485z" fill="#18181A"/><path d="M72.89 13.228v7.145c-.49.024-.981.047-1.484-.023v-5.566c-.316-.094-13.168-.106-13.6-.012v5.578h-1.474v-7.133c.34-.094 16.208-.106 16.559.011zm-19.706-1.04v-1.509h22.862v1.473c-.106.024-.188.059-.27.059H53.675c-.152 0-.304-.012-.491-.024z" fill="#18181A"/></svg>