<svg width="20" height="22" xmlns="http://www.w3.org/2000/svg"><g fill="#6E7A8A"><path d="M9.239.275a5.25 5.25 0 015.758 5.017l.004.21v1.38a.75.75 0 01-1.493.101l-.007-.101v-1.38a3.75 3.75 0 00-4.12-3.734C7.629 1.932 6.106 3.654 6.006 5.5l-.005.192v.97a.75.75 0 01-1.493.101L4.5 6.662v-.97C4.501 3.02 6.636.518 9.239.275z"/><path d="M13.75 6.242h-8c-4.24 0-5.82 1.877-5.445 5.262l.752 6.01c.305 2.854 1.809 4.228 5.694 4.228h6c3.785 0 5.31-1.305 5.67-4.023l.774-6.204c.376-3.396-1.203-5.273-5.444-5.273zm-8 1.5h8c3.326 0 4.234 1.08 3.955 3.597l-.748 5.99c-.228 2.122-1.093 2.913-4.206 2.913h-6c-3.022 0-3.926-.745-4.183-2.717l-.773-6.196c-.277-2.508.63-3.587 3.956-3.587z"/><path d="M13.255 9.992a1 1 0 01.117 1.993l-.117.007a1 1 0 01-.126-1.993l.126-.007zm-7.001 0a1 1 0 01.117 1.993l-.117.007a1 1 0 01-.126-1.993l.126-.007z"/></g></svg>