<svg width="12" height="11" xmlns="http://www.w3.org/2000/svg"><path d="M11.634.36A5.152 5.152 0 008.67.113c-.991.21-1.9.709-2.617 1.434a5.034 5.034 0 00-2.69-1.46A4.987 4.987 0 00.336.464.571.571 0 000 .988v8.694c0 .173.082.335.221.433a.51.51 0 00.477.062 4.986 4.986 0 014.588.58 1.367 1.367 0 001.544.01 5.15 5.15 0 014.5-.651.516.516 0 00.52-.133.54.54 0 00.15-.373V.895a.582.582 0 00-.366-.535zM5.25 3.07v5.915A6.48 6.48 0 001.5 8.41V1.65a3.511 3.511 0 011.87 0c.612.17 1.17.501 1.613.962.102.125.192.261.267.405v.052z" fill="#509D47"/></svg>