<svg width="14" height="11" fill="none" xmlns="http://www.w3.org/2000/svg"><path d="M1.135 4.4C.507 4.4 0 4.891 0 5.5c0 .609.507 1.1 1.135 1.1S2.27 6.109 2.27 5.5c0-.609-.507-1.1-1.135-1.1zm0-4.4C.507 0 0 .491 0 1.1c0 .609.507 1.1 1.135 1.1S2.27 1.709 2.27 1.1C2.27.491 1.763 0 1.135 0zm0 8.8C.507 8.8 0 9.299 0 9.9c0 .601.515 1.1 1.135 1.1s1.135-.499 1.135-1.1c0-.601-.507-1.1-1.135-1.1zm2.27 1.833H14V9.167H3.405v1.466zm0-4.4H14V4.767H3.405v1.466zm0-5.866v1.466H14V.367H3.405z" fill="#B7B7B7"/></svg>