<svg width="22" height="22" xmlns="http://www.w3.org/2000/svg"><g fill="#25C27D"><path d="M11 0c4.924 0 6.921 2.36 6.998 6.735L18 7v2a1 1 0 01-1.993.117L16 9V7c0-3.524-1.19-5-5-5-3.724 0-4.945 1.41-4.998 4.763L6 9a1 1 0 01-1.993.117L4 9V7c0-4.545 1.978-7 7-7zm0 11.5a3.5 3.5 0 100 7 3.5 3.5 0 000-7zm0 2a1.5 1.5 0 110 3 1.5 1.5 0 010-3z"/><path d="M6 8c-4.552 0-6 1.448-6 6v2c0 4.552 1.448 6 6 6h10c4.552 0 6-1.448 6-6v-2c0-4.465-1.393-5.943-5.74-5.998L6 8zm10.22 2l.418.008.387.015.356.024.328.034c1.463.186 2.024.747 2.21 2.21l.034.328.024.356.015.387.007.417v2.442l-.007.417-.015.387-.024.356-.034.328c-.186 1.463-.747 2.024-2.21 2.21l-.328.034-.356.024-.387.015-.417.007H5.774l-.426-.007a15.097 15.097 0 01-.394-.016l-.362-.025c-1.679-.147-2.305-.676-2.507-2.214l-.036-.333a9.849 9.849 0 01-.014-.177l-.02-.379a16.581 16.581 0 01-.007-.2L2 16.22v-2.447l.007-.426c.004-.137.009-.268.016-.394l.025-.362c.147-1.679.676-2.305 2.214-2.507l.333-.036.177-.014.379-.02.2-.007L5.78 10h10.442z"/></g></svg>