<svg width="22" height="22" xmlns="http://www.w3.org/2000/svg"><g fill="#FFF"><path d="M8.5.25C3.955.25.25 3.706.25 8l.006.285c.088 2.273 1.225 4.355 3.077 5.757l.065.047 1.26 2.771c.541 1.172 2.112 1.385 2.936.402l1.265-1.52.152-.007C13.32 15.488 16.75 12.132 16.75 8a7.207 7.207 0 00-.78-3.268C14.65 2.025 11.74.25 8.5.25zm0 1.5c2.672 0 5.056 1.454 6.126 3.649A5.72 5.72 0 0115.25 8c0 3.442-3.01 6.25-6.75 6.25a.75.75 0 00-.577.27l-1.48 1.78c-.114.137-.343.106-.422-.065L4.683 13.29a.75.75 0 00-.252-.303C2.751 11.805 1.75 9.977 1.75 8c0-3.442 3.01-6.25 6.75-6.25z"/><path d="M14.631 5.408c.407.806.62 1.681.62 2.592 0 3.442-3.011 6.25-6.75 6.25a.75.75 0 00-.578.271l-.93 1.12a.75.75 0 00-.006.95l.188.224c1.404 1.609 3.46 2.617 5.708 2.774l.258.012 1.263 1.519.098.109c.842.867 2.319.62 2.839-.504l1.261-2.777-.17.126c2.07-1.456 3.318-3.735 3.318-6.214 0-3.593-2.63-6.683-6.282-7.52a.75.75 0 00-.837 1.068zm1.913.879l.043.02C18.79 7.354 20.25 9.48 20.25 11.86c0 1.977-1 3.805-2.681 4.987a.75.75 0 00-.252.303l-1.34 2.95c-.078.17-.304.201-.418.063l-1.482-1.782a.75.75 0 00-.577-.271l-.278-.005c-1.753-.066-3.373-.755-4.547-1.887l-.115-.116.299-.36.152-.007c4.309-.247 7.74-3.603 7.74-7.735 0-.574-.068-1.138-.199-1.685l-.008-.028zM11 7.25a.75.75 0 01.102 1.493L11 8.75H6a.75.75 0 01-.102-1.493L6 7.25h5z"/></g></svg>