<svg width="20" height="16" fill="none" xmlns="http://www.w3.org/2000/svg"><path d="M0 13.454c0 .676.263 1.323.732 1.8A2.478 2.478 0 002.5 16h15a2.48 2.48 0 001.768-.745 2.57 2.57 0 00.732-1.8v-7H0v7zM2.946 10c0-.362.142-.709.393-.964.25-.256.592-.4.947-.4h2.143c.355 0 .695.144.947.4.25.255.392.602.392.964v.91c0 .36-.141.708-.392.963-.252.256-.592.4-.947.4H4.286c-.355 0-.696-.144-.947-.4a1.376 1.376 0 01-.393-.964V10zM17.5 0h-15C1.837 0 1.201.268.732.746A2.57 2.57 0 000 2.546v1.181h20V2.545a2.57 2.57 0 00-.732-1.8A2.478 2.478 0 0017.5 0z" fill="#B7B7B7"/></svg>