<svg width="22" height="19" xmlns="http://www.w3.org/2000/svg"><g fill="#F61"><path d="M16 .25H6C2.405.25.25 2.251.25 6v7c0 3.749 2.155 5.75 5.75 5.75h10c3.595 0 5.75-2.001 5.75-5.75V6c0-3.749-2.155-5.75-5.75-5.75zM6 1.75h10c2.79 0 4.25 1.356 4.25 4.25v7c0 2.894-1.46 4.25-4.25 4.25H6c-2.79 0-4.25-1.356-4.25-4.25V6c0-2.894 1.46-4.25 4.25-4.25z"/><path d="M15.532 5.914A.75.75 0 0116.55 7.01l-.082.076-3.13 2.5c-1.25.995-3.21 1.037-4.52.124l-.167-.125-3.12-2.5a.75.75 0 01.846-1.233l.092.063 3.118 2.498c.712.567 1.908.6 2.676.1l.139-.099 3.13-2.5z"/></g></svg>