<svg width="12" height="12" fill="none" xmlns="http://www.w3.org/2000/svg"><path d="M1.2 12a.688.688 0 01-.652-.894l.493-1.785c.021-.065-.002-.132-.032-.184l-.006-.011-.02-.028-.023-.033-.005-.007A5.777 5.777 0 010 5.876 5.76 5.76 0 011.7 1.77 6.021 6.021 0 015.995 0C7.38 0 8.723.47 9.804 1.335a5.874 5.874 0 012.068 3.34 5.898 5.898 0 01-1.58 5.38 5.855 5.855 0 01-4.2 1.743c-.563 0-1.283-.144-1.629-.241-.415-.117-.81-.268-.853-.284a.404.404 0 00-.299.004l-.023.009-1.807.653A.79.79 0 011.2 12z" fill="#F61"/></svg>