<svg width="12" height="12" fill="none" xmlns="http://www.w3.org/2000/svg"><path d="M6 12c3.309 0 6-2.692 6-6S9.308 0 6 0C2.691 0 0 2.691 0 6c0 3.308 2.692 6 6 6zM6 .728A5.278 5.278 0 0111.272 6 5.278 5.278 0 016 11.272 5.278 5.278 0 01.729 6 5.277 5.277 0 016 .729z" fill="#B7B7B7"/><path d="M6 10.804A4.81 4.81 0 0010.802 6a4.81 4.81 0 00-4.804-4.804A4.809 4.809 0 001.195 6 4.81 4.81 0 006 10.804zM3.894 7.386L5.46 6.13a.557.557 0 01.305-.635v-3.48a.234.234 0 01.467 0v3.48A.556.556 0 016 6.555a.55.55 0 01-.247-.06L4.187 7.75a.232.232 0 01-.328-.036.234.234 0 01.036-.328z" fill="#B7B7B7"/></svg>