<svg width="22" height="22" xmlns="http://www.w3.org/2000/svg"><g fill="#6E7A8A"><path d="M15.25 13.064a.75.75 0 011.283-.097l.058.097 2.14 4.27a.75.75 0 01-1.29.76l-.051-.088-1.471-2.932-1.468 2.932a.75.75 0 01-.913.374l-.094-.04a.75.75 0 01-.374-.912l.04-.094 2.14-4.27z"/><path d="M17.69 16.16a.75.75 0 01.102 1.493l-.102.007h-3.52a.75.75 0 01-.102-1.493l.102-.007h3.52z"/><path d="M15.92 10.09a5.83 5.83 0 10.001 11.661 5.83 5.83 0 00-.001-11.66zm0 1.5a4.33 4.33 0 11-.002 8.661 4.33 4.33 0 01.002-8.66zM7.94.25H4.02C1.587.25.25 1.584.25 4.01v3.92c0 2.407 1.257 3.743 3.559 3.78H7.94c2.48.06 3.83-1.29 3.77-3.788V4.02C11.77 1.593 10.427.25 7.94.25zm-3.92 1.5h3.92c1.59 0 2.258.607 2.272 2.072L10.21 7.94c.038 1.596-.561 2.258-2.067 2.272L4.02 10.21c-1.612.032-2.27-.628-2.27-2.28V4.01c0-1.597.665-2.26 2.27-2.26z"/><path d="M8.01 4.1a.75.75 0 01.102 1.493L8.01 5.6H3.95a.75.75 0 01-.102-1.493L3.95 4.1h4.06z"/><path d="M5.97 3.42a.75.75 0 01.744.648l.007.102v.68a.75.75 0 01-1.493.102L5.22 4.85v-.68a.75.75 0 01.75-.75z"/><path d="M6.99 4.09a.75.75 0 01.75.75c0 2.157-1.698 3.92-3.8 3.92a.75.75 0 010-1.5c1.261 0 2.3-1.08 2.3-2.42a.75.75 0 01.75-.75z"/><path d="M5.713 6.398a.75.75 0 011.05.155c.3.406.689.649 1.094.698l.153.009a.75.75 0 010 1.5c-.96 0-1.843-.492-2.452-1.313a.75.75 0 01.155-1.05zM1 13.25a.75.75 0 01.75.75 6.246 6.246 0 004.693 6.055l.134.032-.27-.451a.75.75 0 01.173-.97l.084-.06a.75.75 0 01.97.174l.06.084 1.05 1.75A.75.75 0 018 21.75 7.745 7.745 0 01.25 14a.75.75 0 01.75-.75zm13-13A7.745 7.745 0 0121.75 8a.75.75 0 11-1.5 0 6.246 6.246 0 00-4.693-6.055l-.135-.033.271.452a.75.75 0 01-.173.97l-.084.06a.75.75 0 01-.97-.174l-.06-.084-1.05-1.75A.75.75 0 0114 .25z"/></g></svg>