<svg width="16" height="13" fill="none" xmlns="http://www.w3.org/2000/svg"><path d="M5.331 13c5.422 0 8.387-4.946 8.387-9.234 0-.14-.002-.28-.008-.42a6.371 6.371 0 001.47-1.68 5.468 5.468 0 01-1.692.511A3.222 3.222 0 0014.784.382c-.57.372-1.2.642-1.872.788C12.374.539 11.608.145 10.76.145c-1.628 0-2.948 1.453-2.948 3.244 0 .255.026.503.077.74-2.45-.135-4.623-1.427-6.077-3.39a3.49 3.49 0 00-.399 1.63c0 1.127.52 2.12 1.312 2.702a2.724 2.724 0 01-1.335-.406v.042c0 1.571 1.016 2.884 2.365 3.181a2.705 2.705 0 01-1.332.056c.375 1.29 1.464 2.228 2.754 2.254-1.009.87-2.28 1.389-3.661 1.389-.238 0-.473-.015-.704-.045C2.117 12.462 3.667 13 5.332 13" fill="#212934"/></svg>