<svg width="122" height="48" viewBox="0 0 122 48" fill="none" xmlns="http://www.w3.org/2000/svg">
<g clip-path="url(#clip0_797_9625)">
<path d="M38.0972 32.4265L39.5653 28.995C41.1728 30.1854 43.2694 30.8155 45.3666 30.8155C46.9044 30.8155 47.8828 30.2205 47.8828 29.3103C47.8477 26.7891 38.6215 28.7499 38.5513 22.4113C38.5162 19.1898 41.3823 16.7037 45.4368 16.7037C47.8477 16.7037 50.2596 17.2992 51.9719 18.665L50.6 22.1697C49.0246 21.1567 47.0788 20.4504 45.2267 20.4504C43.9686 20.4504 43.1296 21.0454 43.1296 21.8163C43.1647 24.3024 52.4616 22.9366 52.5663 28.995C52.5663 32.2866 49.7699 34.5978 45.7856 34.5978C42.8504 34.5978 40.1593 33.8976 38.0967 32.4265H38.0972ZM96.5552 27.7524C96.1846 28.4109 95.6456 28.9589 94.9933 29.3403C94.3411 29.7217 93.5991 29.9227 92.8436 29.9228C90.4888 29.9228 88.5801 28.0101 88.5801 25.6508C88.5801 23.2914 90.4888 21.3787 92.8436 21.3787C93.5991 21.3788 94.3411 21.5798 94.9933 21.9612C95.6456 22.3426 96.1846 22.8906 96.5552 23.5491L100.637 21.2835C99.108 18.5513 96.1918 16.7037 92.8436 16.7037C87.9119 16.7037 83.9141 20.7091 83.9141 25.6508C83.9141 30.5919 87.9119 34.5978 92.8436 34.5978C96.1918 34.5978 99.108 32.7502 100.637 30.018L96.5552 27.7524ZM55.2149 34.2474H60.3174V9.25586H55.2154L55.2149 34.2474ZM103.214 9.25586V34.2474H108.316V26.76L114.363 34.2474H120.885L113.196 25.3525L120.325 17.0526H114.083L108.316 23.9531V9.25586H103.214ZM76.0377 17.0536V19.0851C75.1991 17.6841 73.137 16.7037 70.9702 16.7037C66.4967 16.7037 62.967 20.661 62.967 25.6332C62.967 30.6055 66.4967 34.5978 70.9702 34.5978C73.137 34.5978 75.1991 33.6174 76.0377 32.2164V34.2474H81.1402V17.0536H76.0377ZM76.0377 27.787C75.3039 29.0125 73.7661 29.9223 72.0538 29.9223C69.6985 29.9223 67.7898 28.0101 67.7898 25.6508C67.7898 23.2914 69.6985 21.3787 72.0538 21.3787C73.7661 21.3787 75.3039 22.3241 76.0377 23.5842V27.787Z" fill="#18181A"/>
<path d="M11.1499 8.70361C9.49635 8.70361 8.15605 10.0469 8.15605 11.7035C8.15565 12.0971 8.23278 12.4868 8.38302 12.8506C8.53326 13.2143 8.75368 13.5449 9.03169 13.8235C9.30969 14.1021 9.63985 14.3231 10.0033 14.4741C10.3667 14.6251 10.7564 14.703 11.1499 14.7034H14.1443V11.7035C14.145 10.9086 13.8299 10.1461 13.2683 9.58348C12.7068 9.0209 11.9448 8.70441 11.1499 8.70361ZM11.1499 16.7033H3.16575C1.51218 16.7033 0.171875 18.0466 0.171875 19.7037C0.171875 21.3603 1.51218 22.7036 3.16575 22.7036H11.1504C12.8035 22.7036 14.1443 21.3603 14.1443 19.7037C14.1443 18.0466 12.8035 16.7033 11.1499 16.7033Z" fill="#36C5F0"/>
<path d="M30.1131 19.7037C30.1131 18.0466 28.7722 16.7033 27.1187 16.7033C25.4651 16.7033 24.1248 18.0466 24.1248 19.7037V22.7036H27.1187C27.9135 22.7028 28.6755 22.3863 29.2371 21.8237C29.7986 21.2612 30.1137 20.4986 30.1131 19.7037ZM22.1289 19.7037V11.7035C22.1295 10.9086 21.8145 10.1461 21.2529 9.58348C20.6914 9.0209 19.9294 8.70441 19.1345 8.70361C17.4809 8.70361 16.1406 10.0469 16.1406 11.7035V19.7032C16.1406 21.3608 17.4809 22.7041 19.1345 22.7041C19.9294 22.7033 20.6914 22.3868 21.2529 21.8242C21.8145 21.2617 22.1295 20.4991 22.1289 19.7042" fill="#2EB67D"/>
<path d="M19.1345 38.7036C19.9294 38.7028 20.6914 38.3863 21.2529 37.8237C21.8145 37.2612 22.1295 36.4986 22.1289 35.7037C22.1295 34.9088 21.8145 34.1463 21.2529 33.5837C20.6914 33.0211 19.9294 32.7046 19.1345 32.7038H16.1406V35.7037C16.1406 37.3603 17.4809 38.7036 19.1345 38.7036ZM19.1345 30.7039H27.1192C28.7723 30.7039 30.1131 29.3606 30.1131 27.7035C30.1137 26.9086 29.7986 26.1461 29.2371 25.5835C28.6755 25.0209 27.9135 24.7044 27.1187 24.7036H19.1345C17.4809 24.7036 16.1406 26.0469 16.1406 27.7035C16.1402 28.0971 16.2174 28.4868 16.3676 28.8506C16.5178 29.2143 16.7383 29.5449 17.0163 29.8235C17.2943 30.1021 17.6244 30.3231 17.9879 30.4741C18.3513 30.6251 18.7409 30.703 19.1345 30.7034" fill="#ECB22E"/>
<path d="M0.171877 27.7035C0.171481 28.0971 0.248607 28.4868 0.398849 28.8506C0.549092 29.2143 0.769509 29.5449 1.04752 29.8235C1.32552 30.1021 1.65568 30.3231 2.01912 30.4741C2.38257 30.6251 2.7722 30.703 3.16575 30.7034C3.96062 30.7026 4.72263 30.3861 5.28417 29.8235C5.84571 29.261 6.1608 28.4984 6.16013 27.7035V24.7036H3.16575C1.51218 24.7036 0.171877 26.0469 0.171877 27.7035ZM8.15605 27.7035V35.7032C8.15605 37.3603 9.49635 38.7036 11.1499 38.7036C11.9448 38.7028 12.7068 38.3863 13.2683 37.8237C13.8299 37.2612 14.145 36.4986 14.1443 35.7037V27.7035C14.1447 27.3099 14.0676 26.9201 13.9173 26.5563C13.767 26.1925 13.5465 25.8619 13.2685 25.5833C12.9904 25.3048 12.6602 25.0837 12.2967 24.9327C11.9332 24.7818 11.5435 24.7039 11.1499 24.7036C9.49635 24.7036 8.15605 26.0469 8.15605 27.7035Z" fill="#E01E5A"/>
</g>
<defs>
<clipPath id="clip0_797_9625">
<rect width="121" height="48" fill="white" transform="translate(0.171875)"/>
</clipPath>
</defs>
</svg>
