<svg width="262" height="23" viewBox="0 0 262 23" fill="none" xmlns="http://www.w3.org/2000/svg">
<path d="M211.554 2.07457C211.736 2.05177 211.896 2.02897 212.032 2.02897C214.631 2.02897 217.253 1.98339 219.851 2.07457C221.242 2.12016 222.609 2.4165 223.749 3.32831C224.433 3.87539 224.866 4.55926 224.98 5.40268C225.162 6.72481 225.049 7.97854 224.068 9.00433C223.749 9.32346 223.384 9.597 222.997 9.93893C223.225 10.0529 223.453 10.1897 223.681 10.3037C225.322 11.2155 226.12 12.6516 226.188 14.498C226.257 16.0936 225.869 17.5525 224.615 18.6467C223.772 19.3762 222.792 19.8093 221.72 20.0144C220.786 20.174 219.828 20.288 218.871 20.3108C216.705 20.3564 214.517 20.3336 212.352 20.3336C212.101 20.3336 211.873 20.288 211.577 20.2652C211.554 14.156 211.554 8.1381 211.554 2.07457ZM213.081 18.8747C213.241 18.8975 213.377 18.9203 213.491 18.9203C215.247 18.9203 216.979 18.9203 218.734 18.9203C219.874 18.9203 221.014 18.8291 222.085 18.4415C223.339 18.0084 224.296 17.2334 224.615 15.8885C224.729 15.387 224.707 14.8399 224.684 14.3156C224.615 13.0847 224 12.1729 222.929 11.603C221.789 10.9875 220.558 10.7368 219.304 10.714C217.959 10.6912 216.614 10.6912 215.292 10.6912C214.563 10.6912 213.833 10.6912 213.127 10.6912C212.921 11.3522 212.921 18.0996 213.081 18.8747ZM213.058 9.18669C213.172 9.23228 213.218 9.25507 213.263 9.25507C215.383 9.25507 217.503 9.30067 219.623 9.23228C220.626 9.20948 221.606 9.00433 222.495 8.43445C223.795 7.59102 224.137 5.06074 222.359 4.12614C221.447 3.64744 220.489 3.51068 219.509 3.46509C217.594 3.3967 215.657 3.44228 213.742 3.44228C213.013 3.44228 212.944 3.51067 212.944 4.28571C212.944 5.67622 212.944 7.06673 212.944 8.45724C212.967 8.73078 213.035 8.98153 213.058 9.18669Z" fill="#18181A"/>
<path d="M86.3857 20.3333C85.8842 20.3789 85.4967 20.4017 84.9952 20.4245C84.9952 17.9626 84.9952 15.5919 84.9952 13.2212C84.9952 10.8733 84.9952 8.52538 84.904 6.15468C83.4679 8.02389 82.1686 9.98427 80.8465 11.9219C79.5244 13.8595 78.2022 15.7743 76.8117 17.803C76.5382 17.4383 76.2874 17.142 76.0595 16.8228C73.7116 13.4036 71.3637 9.96149 69.0158 6.5422C68.9246 6.40543 68.8106 6.29145 68.6054 6.0407C68.5826 6.42822 68.5598 6.67897 68.5598 6.95251C68.5598 11.0101 68.5598 15.0448 68.5598 19.1024C68.5598 19.2847 68.5598 19.4671 68.5598 19.6267C68.5371 20.3105 68.4459 20.4017 67.762 20.4017C67.2149 20.3789 67.1465 20.3105 67.101 19.809C67.0782 19.6267 67.101 19.4443 67.101 19.2847C67.101 13.6999 67.101 8.09227 67.101 2.50744C67.101 2.1883 67.1465 1.86917 67.2377 1.52725C70.4974 6.01791 73.552 10.6225 76.7889 15.25C78.453 12.9477 79.9575 10.6453 81.5075 8.36582C83.0576 6.08629 84.6305 3.80677 86.2718 1.36768C86.3401 1.68681 86.4085 1.82358 86.4085 1.98315C86.4085 2.91776 86.4085 3.85236 86.4085 4.78696C86.4085 9.61955 86.4085 14.4521 86.4085 19.2847C86.3857 19.6267 86.3857 19.923 86.3857 20.3333Z" fill="#18181A"/>
<path d="M63.7951 11.124C63.9547 16.025 59.7832 20.6296 54.5175 20.6524C49.1834 20.6524 44.9435 16.2985 45.0346 10.9417C45.1258 6.01789 49.0922 1.61841 54.6086 1.6412C59.806 1.68679 63.9547 6.08627 63.7951 11.124ZM54.4719 3.10009C50.118 3.0317 46.4252 6.63335 46.448 11.1468C46.4707 15.6831 50.0268 19.2391 54.5631 19.2163C58.9853 19.1935 62.3818 15.3639 62.3818 11.1012C62.4046 6.81572 58.7346 2.98611 54.4719 3.10009Z" fill="#18181A"/>
<path d="M164.322 11.1014C164.367 16.2303 160.196 20.6526 154.976 20.6526C149.892 20.6526 145.539 16.709 145.516 11.147C145.493 5.85847 149.664 1.68695 154.999 1.66415C160.196 1.64136 164.345 5.90407 164.322 11.1014ZM146.975 11.0786C146.861 15.3641 150.371 19.1481 154.839 19.2165C159.307 19.2849 162.863 15.5693 162.886 11.0786C162.908 6.83867 159.307 3.00908 154.793 3.07746C150.576 3.14585 146.883 6.83867 146.975 11.0786Z" fill="#18181A"/>
<path d="M262 2.09728C262 2.4848 262 2.87232 262 3.35102C257.669 3.35102 253.338 3.35102 249.052 3.35102C248.847 3.96649 248.824 8.47995 249.007 9.30058C252.107 9.30058 255.23 9.30058 258.398 9.30058C258.398 9.77928 258.398 10.1668 258.398 10.6455C255.252 10.6455 252.129 10.6455 248.938 10.6455C248.915 10.9646 248.893 11.2154 248.893 11.4661C248.893 13.7001 248.893 15.9112 248.893 18.1451C248.893 19.0341 248.915 19.0569 249.782 19.0569C252.699 19.0569 255.594 19.0569 258.512 19.0569C259.378 19.0569 260.222 19.0569 261.088 19.0569C261.384 19.0569 261.681 19.1025 262 19.1253C262 19.5584 262 19.9232 262 20.4019C257.167 20.4702 252.38 20.4247 247.616 20.4247C247.434 19.7636 247.388 3.4194 247.525 2.12007C248.049 1.9833 261.088 1.93772 262 2.09728Z" fill="#18181A"/>
<path d="M109.295 18.1678C109.682 17.7347 109.956 17.4155 110.23 17.0964C110.913 17.4155 111.552 17.7347 112.213 18.0538C114.378 19.0568 116.658 19.3531 119.006 19.1024C120.214 18.9656 121.399 18.6921 122.425 17.9854C123.929 16.9368 124.135 15.1588 123.36 14.019C122.835 13.2668 122.06 12.8337 121.24 12.5145C119.712 11.9219 118.117 11.7167 116.544 11.4204C115.176 11.1696 113.831 10.8961 112.577 10.2578C111.688 9.80192 110.891 9.27762 110.412 8.34301C109.728 6.99809 109.819 4.67298 111.438 3.39644C112.395 2.6442 113.489 2.23389 114.652 2.00594C116.43 1.64121 118.208 1.55003 120.009 1.84637C121.103 2.02873 122.174 2.32507 123.246 2.59861C123.337 2.6214 123.382 2.73538 123.519 2.82656C123.36 3.19129 123.2 3.55601 122.995 3.96632C122.699 3.92073 122.425 3.89795 122.174 3.80677C119.712 2.98614 117.205 2.96334 114.675 3.46484C113.558 3.69279 112.463 4.14869 111.802 5.24287C111.141 6.31424 111.369 7.63637 112.372 8.4342C113.352 9.20924 114.515 9.52837 115.7 9.80192C117.319 10.1666 118.983 10.3718 120.601 10.7821C121.787 11.0784 122.949 11.5571 123.907 12.3778C125.069 13.4036 125.434 14.7257 125.252 16.2074C125.024 18.031 123.952 19.2164 122.265 19.8774C119.826 20.812 117.319 20.9716 114.743 20.4017C113.261 20.0826 111.825 19.6267 110.48 18.9428C110.093 18.6921 109.728 18.4413 109.295 18.1678Z" fill="#18181A"/>
<path d="M127.781 18.1677C128.123 17.7574 128.397 17.4383 128.67 17.1191C129.354 17.4383 129.992 17.7574 130.631 18.0537C132.819 19.0795 135.121 19.3987 137.515 19.1251C138.655 18.9883 139.772 18.692 140.797 18.0765C142.667 16.9596 142.849 14.133 140.638 12.9704C139.635 12.4461 138.586 12.1042 137.515 11.8762C136.261 11.6255 134.985 11.4203 133.731 11.1468C132.431 10.8732 131.201 10.4401 130.106 9.68789C127.827 8.13781 128.032 4.92368 129.947 3.3736C130.767 2.71254 131.725 2.27943 132.728 2.07427C133.959 1.84632 135.235 1.70954 136.489 1.68675C138.267 1.64116 140 2.02869 141.686 2.55298C141.8 2.59857 141.892 2.68975 142.005 2.80372C141.823 3.19124 141.664 3.53316 141.481 3.96627C141.185 3.92068 140.911 3.8979 140.661 3.80672C138.199 2.98609 135.691 2.98608 133.161 3.44199C132.386 3.57876 131.611 3.92068 130.973 4.42218C129.4 5.69871 129.468 7.81868 131.52 8.84446C132.773 9.48273 134.118 9.77906 135.509 10.007C137.127 10.2806 138.746 10.5313 140.273 11.1468C141.458 11.6255 142.553 12.1954 143.214 13.3807C144.239 15.2499 143.806 18.0765 141.664 19.3531C140.615 19.9913 139.452 20.2877 138.244 20.4928C135.919 20.9031 133.662 20.584 131.451 19.8774C130.289 19.5126 129.195 19.0567 128.146 18.4185C128.009 18.3729 127.941 18.3045 127.781 18.1677Z" fill="#18181A"/>
<path d="M89.417 20.1283C92.5399 13.8824 95.6173 7.68209 98.7174 1.45898C98.8542 1.52737 98.991 1.55018 99.0138 1.64136C102.046 7.79607 105.055 13.928 108.063 20.1055C107.676 20.4474 107.334 20.721 106.764 20.721C106.263 19.6952 105.738 18.6694 105.237 17.6436C104.735 16.6406 104.234 15.6604 103.755 14.6574C103.596 14.2927 103.345 14.1787 102.98 14.1787C102.729 14.1787 102.479 14.1787 102.228 14.1787C99.7432 14.1787 97.2586 14.2015 94.7739 14.1559C94.1812 14.1559 93.8621 14.3383 93.6113 14.8854C92.7451 16.709 91.8105 18.5326 90.8987 20.3335C90.6707 20.7894 90.6023 20.7894 90.1464 20.5842C90.0325 20.5386 89.9185 20.4702 89.8045 20.4018C89.7361 20.3335 89.6449 20.2651 89.417 20.1283ZM98.763 4.76429C97.4409 7.40854 96.1188 10.0072 94.7511 12.7198C95.5261 12.7198 96.1872 12.7198 96.8254 12.7198C97.4865 12.7198 98.1476 12.7198 98.8086 12.7198C99.4925 12.7198 100.176 12.7426 100.86 12.7198C101.498 12.697 102.137 12.7882 102.798 12.6515C101.316 9.34615 99.2417 5.26579 98.763 4.76429Z" fill="#18181A"/>
<path d="M199.336 1.45898C202.391 7.65929 205.445 13.8824 208.523 20.1283C208.089 20.3562 207.725 20.5614 207.292 20.7894C206.995 20.2423 206.744 19.7636 206.494 19.2849C205.719 17.7348 204.921 16.1619 204.191 14.6118C204.009 14.2471 203.804 14.1559 203.439 14.1559C200.635 14.1559 197.832 14.1559 195.005 14.1559C194.572 14.1559 194.321 14.3155 194.139 14.7258C193.204 16.6406 192.247 18.5326 191.289 20.4474C191.244 20.5386 191.198 20.607 191.153 20.6982C190.605 20.7666 190.309 20.3335 189.808 20.1739C192.931 13.9052 196.031 7.68209 199.131 1.45898C199.176 1.45898 199.245 1.45898 199.336 1.45898ZM203.211 12.6971C201.866 9.96162 200.567 7.38576 199.199 4.60474C197.809 7.36296 196.487 9.96162 195.164 12.6971C197.877 12.6971 200.453 12.6971 203.211 12.6971Z" fill="#18181A"/>
<path d="M231.044 2.07422C231.044 7.72744 231.044 13.3351 231.044 19.0111C231.409 19.0339 231.706 19.0795 232.002 19.0795C235.718 19.0795 239.433 19.0795 243.172 19.0795C243.468 19.0795 243.764 19.0795 244.129 19.0795C244.129 19.5582 244.129 19.9457 244.129 20.3788C243.855 20.4016 243.65 20.4472 243.422 20.4472C239.068 20.4472 234.715 20.4472 230.361 20.4472C229.631 20.4472 229.608 20.4244 229.608 19.6721C229.608 14.0645 229.608 8.43409 229.608 2.82646C229.608 2.59851 229.631 2.37057 229.654 2.09702C230.087 2.07423 230.497 2.07422 231.044 2.07422Z" fill="#18181A"/>
<path d="M37.0793 3.37357C37.0793 3.76108 37.0793 4.05742 37.0793 4.35376C37.0793 9.25474 37.0793 14.1785 37.0793 19.0795C37.0793 19.2619 37.0793 19.4442 37.0793 19.6038C37.0793 20.3332 36.555 20.6751 35.8939 20.3788C35.78 20.3332 35.666 20.1509 35.6432 20.0369C35.5976 19.7861 35.6204 19.5354 35.6204 19.2846C35.6204 14.3153 35.6204 9.36871 35.6204 4.39935C35.6204 4.08022 35.5748 3.76108 35.552 3.37357C33.3409 3.37357 31.1981 3.37357 29.0098 3.37357C29.0098 2.91766 29.0098 2.53014 29.0098 2.11983C29.5113 1.96026 42.3222 1.89187 43.4847 2.07423C43.5075 2.2566 43.5303 2.43896 43.5303 2.64411C43.5303 2.84927 43.5303 3.05444 43.5303 3.35078C42.4362 3.35078 41.3876 3.37357 40.339 3.37357C39.2676 3.37357 38.219 3.37357 37.0793 3.37357Z" fill="#18181A"/>
<path d="M184.565 20.3791C184.063 20.3791 183.653 20.3791 183.197 20.3791C183.197 14.7259 183.197 9.11828 183.197 3.41947C180.963 3.35109 178.797 3.41947 176.563 3.37388C176.563 2.91797 176.563 2.50766 176.563 2.05176C181.396 2.05176 186.16 2.05176 191.016 2.05176C191.016 2.46207 191.016 2.87239 191.016 3.35109C188.896 3.35109 186.799 3.35109 184.587 3.35109C184.565 4.33128 184.587 5.26588 184.587 6.17769C184.587 7.1123 184.587 8.0469 184.587 8.9815C184.587 9.9389 184.587 10.8963 184.587 11.8765C184.587 12.8111 184.587 13.7457 184.587 14.6803C184.587 15.6149 184.587 16.5495 184.587 17.4841C184.565 18.4415 184.565 19.3761 184.565 20.3791Z" fill="#18181A"/>
<path d="M0 11.0494C0.0126567 4.94887 4.98675 -0.0252172 11.0493 9.61899e-05C17.1878 0.0254096 22.1239 4.96153 22.1113 11.0747C22.1113 17.15 17.1372 22.1114 11.0493 22.1114C4.96143 22.0987 0 17.1246 0 11.0494ZM20.0862 11.1254C20.2887 6.59425 16.4158 1.97454 10.986 1.96189C6.0246 1.96189 1.98711 6.01204 1.83522 10.8342C1.67069 15.8337 5.83475 20.2762 10.9734 20.2635C16.2386 20.2635 20.2508 15.783 20.0862 11.1254Z" fill="#18181A"/>
<path d="M2.29102 11.075C2.29102 6.3034 6.22725 2.36716 11.0115 2.43044C16.0868 2.49372 19.7067 6.65778 19.656 11.2142C19.6054 15.9858 15.6059 19.8967 10.7837 19.8208C6.13866 19.7322 2.29102 15.8339 2.29102 11.075ZM6.974 10.6826C9.66988 10.6826 12.2898 10.6826 14.9604 10.6826C14.9604 11.7964 14.9604 12.8849 14.9604 13.9607C15.2768 13.9607 15.5426 13.9607 15.8084 13.9607C15.8084 12.5178 15.8084 11.1256 15.8084 9.73337C12.5556 9.73337 9.34081 9.73337 6.11334 9.73337C6.11334 11.1509 6.11334 12.5432 6.11334 13.9607C6.40445 13.9607 6.67024 13.9607 6.974 13.9607C6.974 12.8722 6.974 11.7964 6.974 10.6826ZM4.26546 9.17647C8.74594 9.17647 13.2011 9.17647 17.6689 9.17647C17.6689 8.86005 17.6689 8.56895 17.6689 8.26519C13.1758 8.26519 8.73328 8.26519 4.26546 8.26519C4.26546 8.58161 4.26546 8.86005 4.26546 9.17647Z" fill="#18181A"/>
</svg>
