<?xml version="1.0" encoding="UTF-8"?>
<svg width="12px" height="11px" viewBox="0 0 12 11" version="1.1" xmlns="http://www.w3.org/2000/svg" xmlns:xlink="http://www.w3.org/1999/xlink">
    <title>book</title>
    <g id="Page-1" stroke="none" stroke-width="1" fill="none" fill-rule="evenodd">
        <g id="book" fill="#509D47" fill-rule="nonzero">
            <path d="M11.633806,0.359752959 C10.690306,-0.0120983405 9.66095602,-0.0978566405 8.67052602,0.112933959 C7.68001602,0.323626959 6.77103602,0.821678959 6.05383602,1.54671996 C5.32635602,0.790662959 4.38696602,0.280884959 3.36369602,0.0870639595 C2.34048602,-0.106770041 1.28327602,0.0248615595 0.336235023,0.463847959 C0.236535023,0.509190959 0.151781023,0.582807959 0.0921875232,0.675691959 C0.0324908232,0.768682959 0.000526831193,0.877168959 6.02319241e-06,0.988163959 L6.02319241e-06,9.68221996 C-0.000812695807,9.85468996 0.0818777232,10.0166 0.221067023,10.1153 C0.360257023,10.2142 0.538331023,10.2373 0.697517023,10.1773 C1.45274602,9.89666996 2.26295602,9.80294996 3.06096602,9.90390996 C3.85898602,10.0047 4.62176602,10.2974 5.28627602,10.7575 C5.51629602,10.9162 5.78819602,11.0007 6.06626602,11 C6.33794602,11.0005 6.60373602,10.9193 6.82996602,10.7664 C7.48344602,10.3207 8.22742602,10.0306 9.00670602,9.91784996 C9.78587602,9.80506996 10.580106,9.87250996 11.330006,10.1151 C11.380106,10.1313 11.432406,10.1394 11.485006,10.1392 C11.622206,10.1379 11.753506,10.0815 11.849906,9.98234996 C11.946406,9.88318996 12.000306,9.74924996 12.000006,9.60985996 L12.000006,0.895431959 C11.999406,0.778983959 11.964006,0.665470959 11.898606,0.569849959 C11.833306,0.474242959 11.740906,0.400938959 11.633806,0.359681959 L11.633806,0.359752959 Z M5.25004602,3.07028996 L5.25004602,8.98517996 C4.08300602,8.42282996 2.77863602,8.22240996 1.50015602,8.40880996 L1.50015602,1.65081996 C2.11238602,1.48179996 2.75802602,1.48179996 3.37027602,1.65091996 C3.98249602,1.82014996 4.53915602,2.15230996 4.98271602,2.61318996 C5.08540602,2.73843996 5.17500602,2.87414996 5.25017602,3.01822996 L5.25017602,3.07027996 L5.25004602,3.07028996 Z" id="Shape"></path>
        </g>
    </g>
</svg>