<?xml version="1.0" encoding="UTF-8"?>
<svg width="16px" height="16px" viewBox="0 0 16 16" version="1.1" xmlns="http://www.w3.org/2000/svg" xmlns:xlink="http://www.w3.org/1999/xlink">
    <title>check-round</title>
    <g id="Page-1" stroke="none" stroke-width="1" fill="none" fill-rule="evenodd">
        <g id="check-round" fill="#25C27D" fill-rule="nonzero">
            <polygon id="Path" points="7.303051 11.0573221 3.320311 7.34032207 4.327161 6.26221207 7.202111 8.94287207 13.525601 1.79968207 14.633401 2.77690207"></polygon>
            <path d="M7.999721,15.9998221 C5.141611,15.9998221 2.500561,14.4750221 1.071711,11.9998221 C-0.357237,9.52459207 -0.357237,6.47516207 1.071711,4.00001207 C2.500871,1.52482207 5.141771,0 7.999721,0 C9.209021,-0.00302039959 10.403001,0.27066907 11.490301,0.80021007 L10.845501,2.12947207 L10.845301,2.12926207 C9.959001,1.69761207 8.985681,1.47446207 7.999721,1.47711207 C6.109691,1.47792207 4.313211,2.29938207 3.075951,3.72818207 C1.838641,5.15692207 1.282331,7.05247207 1.551571,8.92322207 C1.820591,10.7940221 2.888571,12.4558221 4.478341,13.4781221 C6.068311,14.5002221 8.023531,14.7818221 9.837161,14.2501221 C11.650901,13.7181221 13.144401,12.4254221 13.930601,10.7065221 C14.716701,8.98783207 14.718301,7.01229207 13.934601,5.29258207 L15.278701,4.67717207 L15.278501,4.67717207 C16.408201,7.15398207 16.201101,10.0355221 14.729101,12.3250221 C13.257101,14.6149221 10.722001,15.9996221 7.999631,16.0002221 L7.999721,15.9998221 Z" id="Path"></path>
        </g>
    </g>
</svg>