<?xml version="1.0" encoding="UTF-8"?>
<svg width="22px" height="22px" viewBox="0 0 22 22" version="1.1" xmlns="http://www.w3.org/2000/svg" xmlns:xlink="http://www.w3.org/1999/xlink">
    <title>clock</title>
    <g id="Page-1" stroke="none" stroke-width="1" fill="none" fill-rule="evenodd">
        <g id="clock" transform="translate(1.000000, 1.000000)" fill="#FF6611" fill-rule="nonzero">
            <path d="M10,-1 C3.92771525,-1 -1,3.92771525 -1,10 C-1,16.0722847 3.92771525,21 10,21 C16.0722847,21 21,16.0722847 21,10 C21,3.92771525 16.0722847,-1 10,-1 Z M10,1 C14.9677153,1 19,5.03228475 19,10 C19,14.9677153 14.9677153,19 10,19 C5.03228475,19 1,14.9677153 1,10 C1,5.03228475 5.03228475,1 10,1 Z" id="Path"></path>
            <path d="M9.6299,4.51001 C10.1427358,4.51001 10.5654072,4.89605019 10.6231723,5.39338887 L10.6299,5.51001 L10.6299,9.61 C10.6299,9.85522396 10.8297082,10.232839 11.0423714,10.4134403 L11.1223575,10.4712874 L14.2223575,12.3212874 C14.6966114,12.6043099 14.8516351,13.2182036 14.5686126,13.6924575 C14.305806,14.1328361 13.7577073,14.2979601 13.3010342,14.0926988 L13.1974425,14.0387126 L10.1000976,12.1902915 C9.30845909,11.7211724 8.70897693,10.7274075 8.63713399,9.79540356 L8.6299,9.61 L8.6299,5.51001 C8.6299,4.95772525 9.07761525,4.51001 9.6299,4.51001 Z" id="Path"></path>
        </g>
    </g>
</svg>