<?xml version="1.0" encoding="UTF-8"?>
<svg width="22px" height="20px" viewBox="0 0 22 20" version="1.1" xmlns="http://www.w3.org/2000/svg" xmlns:xlink="http://www.w3.org/1999/xlink">
    <title>heart-outline</title>
    <g id="Page-1" stroke="none" stroke-width="1" fill="none" fill-rule="evenodd">
        <g id="heart-outline" transform="translate(1.000000, 1.000000)" fill="#6E7A8A" fill-rule="nonzero">
            <path d="M14.44,-0.75 L14.1793023,-0.744598689 C12.6206188,-0.679945071 11.1657416,-0.0377860833 10.0712974,1.02429943 L10,1.096 L9.92841611,1.02324701 C8.77385563,-0.0988079653 7.22207156,-0.75 5.56,-0.75 C2.07377151,-0.75 -0.75,2.08780267 -0.75,5.59 C-0.75,11.7108603 4.12913726,16.7099825 9.13769557,18.4198006 C9.6319123,18.5942724 10.3680877,18.5942724 10.8696151,18.4172628 C15.8708627,16.7099825 20.75,11.7108603 20.75,5.59 C20.75,2.08780267 17.9262285,-0.75 14.44,-0.75 Z M14.44,0.75 C17.0961324,0.75 19.25,2.91457 19.25,5.59 C19.25,10.9598273 14.8420119,15.4762141 10.3776956,17.0002394 C10.1919123,17.0657676 9.8080877,17.0657676 9.62961509,17.0027772 C5.15798812,15.4762141 0.75,10.9598273 0.75,5.59 C0.75,2.91457 2.90386755,0.75 5.56,0.75 C7.09160838,0.75 8.49780727,1.47518026 9.39788157,2.68716148 C9.69775108,3.09094617 10.3022489,3.09094617 10.6021184,2.68716148 C11.4997836,1.47842429 12.9146077,0.75 14.44,0.75 Z" id="Path"></path>
        </g>
    </g>
</svg>