<svg width="13" height="10" viewBox="0 0 13 10" fill="none" xmlns="http://www.w3.org/2000/svg">
<path d="M9.47542 7.98965C9.86247 8.3767 9.86247 8.99601 9.45978 9.39852C9.07273 9.78557 8.43798 9.78557 8.03558 9.39852L5.55838 6.75103L3.2361 9.55337C3.0193 9.7856 2.61678 9.80095 2.40011 9.55337L1.81179 8.94961C1.56411 8.71728 1.56411 8.3303 1.79635 8.09799L4.47476 5.60536L3.18963 4.3824C2.75616 3.97989 2.50846 3.85604 2.16784 3.96435C1.82721 4.08819 1.34728 4.08819 0.898347 3.79408C-0.046055 3.19033 0.000372051 2.01369 0.000372051 2.01369L0.0777849 1.88985L1.05315 2.5246C1.05315 2.5246 1.65691 2.89611 2.12138 2.18397C2.64774 1.34799 2.05941 1.00734 2.05941 1.00734L1.08404 0.388024L1.17699 0.264086C1.17699 0.264086 2.07497 -0.308774 3.12776 0.295072C3.77804 0.682123 4.10313 1.44072 3.93288 2.18385C3.84002 2.63279 3.93288 2.7876 4.28896 3.17468L5.58942 4.4597L7.10668 2.89602L8.25233 4.04166L6.73507 5.54349L9.47542 7.98965ZM11.039 3.23673C11.2249 3.05092 11.5346 3.0819 11.7048 3.25217L11.8751 3.42244C12.0609 3.60825 12.0299 3.88691 11.8596 4.05718L10.9307 4.98613C10.7449 5.17194 10.4662 5.18738 10.2804 5.00157L10.1102 4.8313C9.92425 4.64549 9.92425 4.35137 10.1102 4.16556C10.1411 4.05716 10.0481 3.8559 9.86248 3.66999C9.47543 3.28294 9.02649 3.26748 8.80969 3.46874L8.50003 3.79383L7.36982 2.63265L7.69491 2.323C8.0511 1.95148 7.64848 1.5644 7.64848 1.5644C6.65766 0.573677 5.26414 0.604671 5.26414 0.604671L5.2487 0.233154C8.08195 -0.510081 9.15038 0.728518 9.53735 1.10003L10.3579 1.92059C10.5592 2.13738 10.3425 2.72571 10.6366 3.03524C10.7605 3.17462 10.9153 3.22125 11.0391 3.23669L11.039 3.23673ZM8.76326 9.21292C9.05745 9.21292 9.28961 8.98068 9.28961 8.68656C9.28961 8.39236 9.05737 8.1602 8.76326 8.1602C8.46906 8.1602 8.2369 8.39244 8.2369 8.68656C8.2368 8.98066 8.46894 9.21292 8.76326 9.21292Z" fill="#B7B7B7"/>
</svg>
