<?xml version="1.0" encoding="UTF-8"?>
<svg width="14px" height="14px" viewBox="0 0 14 14" version="1.1" xmlns="http://www.w3.org/2000/svg" xmlns:xlink="http://www.w3.org/1999/xlink">
    <title>search</title>
    <g id="Page-1" stroke="none" stroke-width="1" fill="none" fill-rule="evenodd">
        <g id="search" transform="translate(1.000000, 1.000000)" fill="#828A96" fill-rule="nonzero">
            <path d="M4.98701,-0.5 C1.95661763,-0.5 -0.5,1.95661763 -0.5,4.98701 C-0.5,8.01739918 1.95661443,10.474 4.98701,10.474 C8.01740237,10.474 10.474,8.01740237 10.474,4.98701 C10.474,1.95661443 8.01739918,-0.5 4.98701,-0.5 Z M4.98701,0.5 C7.46511319,0.5 9.474,2.50889794 9.474,4.98701 C9.474,7.46511763 7.46511763,9.474 4.98701,9.474 C2.50889794,9.474 0.5,7.46511319 0.5,4.98701 C0.5,2.50890237 2.50890237,0.5 4.98701,0.5 Z" id="Path"></path>
            <path d="M8.21675661,8.21675661 C8.39032296,8.04319026 8.65974736,8.02390511 8.8546155,8.15890116 L8.92386339,8.21675661 L12.3524534,11.6453466 C12.5477155,11.8406088 12.5477155,12.1571912 12.3524534,12.3524534 C12.178887,12.5260197 11.9094626,12.5453049 11.7145945,12.4103088 L11.6453466,12.3524534 L8.21675661,8.92386339 C8.02149446,8.72860124 8.02149446,8.41201876 8.21675661,8.21675661 Z" id="Path"></path>
        </g>
    </g>
</svg>