<?xml version="1.0" encoding="UTF-8"?>
<svg width="22px" height="22px" viewBox="0 0 22 22" version="1.1" xmlns="http://www.w3.org/2000/svg" xmlns:xlink="http://www.w3.org/1999/xlink">
    <title>translate</title>
    <g id="Page-1" stroke="none" stroke-width="1" fill="none" fill-rule="evenodd">
        <g id="translate" transform="translate(1.000000, 1.000000)" fill="#6E7A8A" fill-rule="nonzero">
            <path d="M14.249794,12.0639618 C14.509126,11.5465095 15.2177106,11.5141688 15.5331992,11.9669395 L15.590806,12.0639618 L17.730806,16.3339618 C17.9163948,16.7042721 17.7666484,17.1549173 17.3963382,17.340506 C17.0568871,17.5106291 16.6499324,17.3989774 16.4415133,17.0939542 L16.389794,17.0060382 L14.919,14.074 L13.450806,17.0060382 C13.280683,17.3454892 12.887839,17.4996054 12.5383132,17.3799835 L12.4442618,17.340506 C12.1048108,17.170383 11.9506946,16.777539 12.0703165,16.4280132 L12.109794,16.3339618 L14.249794,12.0639618 Z" id="Path"></path>
            <path d="M16.6899,15.1599 C17.1041136,15.1599 17.4399,15.4956864 17.4399,15.9099 C17.4399,16.2895958 17.1577461,16.603391 16.7916706,16.6530534 L16.6899,16.6599 L13.1699,16.6599 C12.7556864,16.6599 12.4199,16.3241136 12.4199,15.9099 C12.4199,15.5302042 12.7020539,15.216409 13.0681294,15.1667466 L13.1699,15.1599 L16.6899,15.1599 Z" id="Path"></path>
            <path d="M14.9198,9.0901 C11.6987947,9.0901 9.0898,11.7025733 9.0898,14.92 C9.0898,18.1410054 11.7023733,20.7501 14.9198,20.7501 C18.143999,20.7501 20.7498,18.1442281 20.7498,14.92 C20.7498,11.6990235 18.1372558,9.0901 14.9198,9.0901 Z M14.9198,10.5901 C17.309294,10.5901 19.2498,12.5279167 19.2498,14.92 C19.2498,17.3158101 17.3155628,19.2501 14.9198,19.2501 C12.5303534,19.2501 10.5898,17.3121305 10.5898,14.92 C10.5898,12.5305534 12.5276695,10.5901 14.9198,10.5901 Z" id="Path"></path>
            <path d="M6.94,-0.75 L3.02,-0.75 C0.587452586,-0.75 -0.75,0.584132244 -0.75,3.01001 L-0.75,6.92999 C-0.75,9.33739865 0.507441254,10.6732025 2.80887706,10.7103225 L6.94,10.71 C9.42019646,10.7701269 10.7701269,9.42019646 10.7097813,6.92188934 L10.71,3.02002 C10.770305,0.592976846 9.42734156,-0.75 6.94,-0.75 Z M3.02,0.75 L6.94,0.75 C8.52908499,0.75 9.19768035,1.35748275 9.21172105,2.82163509 L9.21,6.94 C9.24833953,8.53596494 8.64878827,9.19837407 7.14315323,9.21171509 L3.02,9.21 C1.40768928,9.24177991 0.75,8.58245296 0.75,6.92999 L0.75,3.01001 C0.75,1.41339517 1.4150462,0.75 3.02,0.75 Z" id="Path"></path>
            <path d="M7.01019,3.09985 C7.42440356,3.09985 7.76019,3.43563644 7.76019,3.84985 C7.76019,4.22954577 7.47803612,4.54334096 7.11196056,4.59300338 L7.01019,4.59985 L2.9502,4.59985 C2.53598644,4.59985 2.2002,4.26406356 2.2002,3.84985 C2.2002,3.47015423 2.48235388,3.15635904 2.84842944,3.10669662 L2.9502,3.09985 L7.01019,3.09985 Z" id="Path"></path>
            <path d="M4.9707,2.41992 C5.35039577,2.41992 5.66419096,2.70207388 5.71385338,3.06814944 L5.7207,3.16992 L5.7207,3.84991 C5.7207,4.26412356 5.38491356,4.59991 4.9707,4.59991 C4.59100423,4.59991 4.27720904,4.31775612 4.22754662,3.95168056 L4.2207,3.84991 L4.2207,3.16992 C4.2207,2.75570644 4.55648644,2.41992 4.9707,2.41992 Z" id="Path"></path>
            <path d="M5.99043,3.08997 C6.40464356,3.08997 6.74043,3.42575644 6.74043,3.83997 C6.74043,5.99663412 5.04240732,7.75995 2.94043,7.75995 C2.52621644,7.75995 2.19043,7.42416356 2.19043,7.00995 C2.19043,6.59573644 2.52621644,6.25995 2.94043,6.25995 C4.20105261,6.25995 5.24043,5.18060597 5.24043,3.83997 C5.24043,3.42575644 5.57621644,3.08997 5.99043,3.08997 Z" id="Path"></path>
            <path d="M4.71327481,5.39767648 C5.0459289,5.1508686 5.51567564,5.22046071 5.76248352,5.55311481 C6.06361308,5.95898508 6.45162107,6.20184267 6.85731913,6.25080028 L7.01015,6.26001 C7.42436356,6.26001 7.76015,6.59579644 7.76015,7.01001 C7.76015,7.42422356 7.42436356,7.76001 7.01015,7.76001 C6.04954612,7.76001 5.16676023,7.26760851 4.55783648,6.44688519 C4.3110286,6.1142311 4.38062071,5.64448436 4.71327481,5.39767648 Z" id="Path"></path>
            <path d="M0,12.25 C0.414213562,12.25 0.75,12.5857864 0.75,13 C0.75,15.9182197 2.74251575,18.3646807 5.44335234,19.0551882 L5.577,19.087 L5.30688031,18.6358718 C5.11152845,18.3102854 5.19202711,17.8960412 5.48038321,17.6651118 L5.56412818,17.6068803 C5.88971462,17.4115284 6.30395875,17.4920271 6.53488825,17.7803832 L6.59311969,17.8641282 L7.64311969,19.6141282 C7.94305573,20.1140216 7.58297086,20.75 7,20.75 C2.71578644,20.75 -0.75,17.2842136 -0.75,13 C-0.75,12.5857864 -0.414213562,12.25 0,12.25 Z" id="Path"></path>
            <path d="M13,-0.75 C17.2842136,-0.75 20.75,2.71578644 20.75,7 C20.75,7.41421356 20.4142136,7.75 20,7.75 C19.5857864,7.75 19.25,7.41421356 19.25,7 C19.25,4.08178034 17.2574843,1.63531932 14.5566477,0.944811818 L14.422,0.912 L14.6931197,1.36412818 C14.8884716,1.68971462 14.8079729,2.10395875 14.5196168,2.33488825 L14.4358718,2.39311969 C14.1102854,2.58847155 13.6960412,2.50797289 13.4651118,2.21961679 L13.4068803,2.13587182 L12.3568803,0.385871817 C12.0569443,-0.114021569 12.4170291,-0.75 13,-0.75 Z" id="Path"></path>
        </g>
    </g>
</svg>