<?xml version="1.0" encoding="UTF-8"?>
<svg width="19px" height="22px" viewBox="0 0 19 22" version="1.1" xmlns="http://www.w3.org/2000/svg" xmlns:xlink="http://www.w3.org/1999/xlink">
    <title>user</title>
    <g id="Page-1" stroke="none" stroke-width="1" fill="none" fill-rule="evenodd">
        <g id="user" transform="translate(1.000000, 1.000000)" fill="#6E7A8A" fill-rule="nonzero">
            <path d="M8.58984,-0.75 C5.41420644,-0.75 2.83984,1.82436644 2.83984,5 C2.83984,8.17562001 5.41421288,10.75 8.58984,10.75 C11.7654536,10.75 14.33984,8.17561356 14.33984,5 C14.33984,1.82437288 11.76546,-0.75 8.58984,-0.75 Z M8.58984,0.75 C10.9370338,0.75 12.83984,2.65280093 12.83984,5 C12.83984,7.34718644 10.9370264,9.25 8.58984,9.25 C6.24264093,9.25 4.33984,7.34719381 4.33984,5 C4.33984,2.65279356 6.24263356,0.75 8.58984,0.75 Z" id="Path"></path>
            <path d="M8.59004,12.25 C13.7173053,12.25 17.92994,15.6804402 17.92994,20 C17.92994,20.4142136 17.5941536,20.75 17.17994,20.75 C16.7657264,20.75 16.42994,20.4142136 16.42994,20 C16.42994,16.5846172 12.9489853,13.75 8.59004,13.75 C4.231033,13.75 0.75,16.5846286 0.75,20 C0.75,20.4142136 0.414213562,20.75 0,20.75 C-0.414213562,20.75 -0.75,20.4142136 -0.75,20 C-0.75,15.6804442 3.46271751,12.25 8.59004,12.25 Z" id="Path"></path>
        </g>
    </g>
</svg>