<svg width="141" height="48" viewBox="0 0 141 48" fill="none" xmlns="http://www.w3.org/2000/svg">
<g clip-path="url(#clip0_797_9626)">
<path d="M21.2445 3.0791C9.64658 3.0791 0.244141 12.4813 0.244141 24.0792C0.244141 35.6777 9.64658 45.0791 21.2445 45.0791C32.8437 45.0791 42.2452 35.6777 42.2452 24.0792C42.2452 12.482 32.8437 3.0801 21.2443 3.0801L21.2445 3.0791ZM30.8752 33.3673C30.499 33.9842 29.6915 34.1798 29.0746 33.8011C24.1439 30.7894 17.9368 30.1073 10.6268 31.7774C9.92243 31.9379 9.22027 31.4966 9.05977 30.7919C8.89853 30.0872 9.33813 29.3851 10.0443 29.2246C18.0439 27.3969 24.9058 28.1839 30.4413 31.5668C31.0582 31.9454 31.2538 32.7504 30.8752 33.3673ZM33.4456 27.6492C32.9716 28.4196 31.9635 28.6628 31.1936 28.1889C25.5488 24.7192 16.944 23.7144 10.2672 25.7411C9.40133 26.0026 8.48676 25.5146 8.22395 24.6502C7.96315 23.7843 8.4514 22.8715 9.31581 22.6082C16.9425 20.2941 26.424 21.415 32.9064 25.3985C33.6763 25.8725 33.9195 26.8806 33.4456 27.6495V27.6492ZM33.6663 21.6949C26.8979 17.6748 15.7311 17.3051 9.26892 19.2664C8.23122 19.5811 7.13385 18.9953 6.81938 17.9576C6.50491 16.9194 7.09021 15.8228 8.12866 15.5073C15.5467 13.2554 27.8784 13.6905 35.6709 18.3165C36.6063 18.8704 36.9122 20.0759 36.358 21.008C35.8063 21.9414 34.5976 22.2491 33.6673 21.6949H33.6663ZM57.3792 22.4653C53.7531 21.6006 53.1086 20.9937 53.1086 19.7186C53.1086 18.5139 54.2421 17.7031 55.9298 17.7031C57.5648 17.7031 59.1848 18.3187 60.885 19.5861C60.9352 19.6245 61.0004 19.6398 61.0631 19.6298C61.1283 19.6203 61.1834 19.5854 61.2211 19.533L62.9915 17.0373C63.0642 16.9345 63.0442 16.7928 62.9464 16.7143C60.9226 15.0911 58.6456 14.3019 55.9824 14.3019C52.0679 14.3019 49.332 16.6514 49.332 20.013C49.332 23.6178 51.6917 24.8942 55.7693 25.8795C59.2375 26.6787 59.8243 27.3483 59.8243 28.545C59.8243 29.8716 58.6406 30.6966 56.7348 30.6966C54.6182 30.6966 52.8904 29.9819 50.9595 28.3118C50.9118 28.2691 50.8466 28.2516 50.7864 28.2541C50.7212 28.2591 50.6636 28.2892 50.6234 28.3368L48.6373 30.6991C48.5546 30.7994 48.5646 30.9449 48.6599 31.0301C50.9068 33.0363 53.6703 34.0945 56.6545 34.0945C60.8725 34.0945 63.5984 31.79 63.5984 28.2215C63.6059 25.2105 61.8029 23.5428 57.3868 22.4685L57.3792 22.4653ZM73.1428 18.8893C71.3146 18.8893 69.815 19.6095 68.5762 21.0853V19.4242C68.5762 19.293 68.4709 19.1862 68.3405 19.1862H65.093C64.9626 19.1862 64.8573 19.293 64.8573 19.4242V37.8812C64.8573 38.0116 64.9626 38.1194 65.093 38.1194H68.3405C68.4709 38.1194 68.5762 38.0116 68.5762 37.8812V32.0558C69.815 33.4425 71.3146 34.1221 73.1428 34.1221C76.5407 34.1221 79.9813 31.5066 79.9813 26.5064C79.9863 21.5053 76.5457 18.889 73.1453 18.889L73.1428 18.8893ZM76.2047 26.5064C76.2047 29.0515 74.6374 30.8295 72.3904 30.8295C70.1711 30.8295 68.496 28.9713 68.496 26.5064C68.496 24.0414 70.1711 22.1836 72.3904 22.1836C74.5997 22.1834 76.2047 24.001 76.2047 26.5062V26.5064ZM88.7959 18.8893C84.42 18.8893 80.9919 22.2586 80.9919 26.5609C80.9919 30.817 84.3974 34.1497 88.7433 34.1497C93.1343 34.1497 96.5724 30.7919 96.5724 26.5064C96.5724 22.2356 93.1569 18.8898 88.7959 18.8898V18.8893ZM88.7959 30.8546C86.4688 30.8546 84.7134 28.9838 84.7134 26.5052C84.7134 24.0153 86.4086 22.2085 88.7433 22.2085C91.0855 22.2085 92.8509 24.0785 92.8509 26.5596C92.8509 29.049 91.1457 30.8546 88.7959 30.8546ZM105.916 19.1862H102.343V15.5334C102.343 15.4025 102.237 15.2957 102.107 15.2957H98.8594C98.729 15.2957 98.6212 15.4025 98.6212 15.5334V19.1862H97.0614C96.931 19.1862 96.8257 19.293 96.8257 19.4242V22.2145C96.8257 22.3454 96.931 22.4525 97.0614 22.4525H98.6212V29.6734C98.6212 32.5899 100.073 34.0695 102.939 34.0695C104.103 34.0695 105.069 33.8287 105.979 33.3121C106.054 33.272 106.099 33.1918 106.099 33.1065V30.4483C106.099 30.3681 106.057 30.2903 105.986 30.2477C105.916 30.2026 105.828 30.2001 105.756 30.2377C105.131 30.5511 104.527 30.6966 103.85 30.6966C102.809 30.6966 102.343 30.2226 102.343 29.1644V22.4537H105.916C106.047 22.4537 106.152 22.3469 106.152 22.2157V19.4257C106.157 19.2945 106.052 19.1877 105.919 19.1877L105.916 19.1862ZM118.364 19.2005V18.7518C118.364 17.432 118.871 16.8435 120.004 16.8435C120.682 16.8435 121.226 16.9779 121.835 17.181C121.91 17.2046 121.988 17.1928 122.048 17.1479C122.111 17.103 122.146 17.031 122.146 16.9548V14.2189C122.146 14.1143 122.081 14.0218 121.978 13.9909C121.336 13.7996 120.514 13.6032 119.28 13.6032C116.283 13.6032 114.696 15.2919 114.696 18.485V19.1721H113.136C113.005 19.1721 112.898 19.279 112.898 19.4099V22.2145C112.898 22.3454 113.005 22.4525 113.136 22.4525H114.696V33.588C114.696 33.7209 114.803 33.8262 114.934 33.8262H118.179C118.312 33.8262 118.417 33.7209 118.417 33.588V22.4532H121.449L126.093 33.588C125.567 34.7566 125.048 34.9898 124.34 34.9898C123.769 34.9898 123.164 34.8193 122.55 34.4807C122.492 34.4506 122.422 34.4456 122.362 34.4632C122.299 34.4858 122.246 34.5309 122.221 34.5911L121.12 37.006C121.068 37.1214 121.113 37.2543 121.223 37.3145C122.372 37.9364 123.407 38.2022 124.689 38.2022C127.086 38.2022 128.413 37.0837 129.579 34.0795L135.211 19.5255C135.241 19.4522 135.231 19.3695 135.186 19.3045C135.144 19.2401 135.071 19.2012 134.993 19.2012H131.613C131.51 19.2012 131.42 19.2657 131.387 19.3607L127.924 29.2496L124.132 19.3542C124.097 19.2622 124.009 19.2012 123.912 19.2012H118.364V19.2005ZM111.147 19.1862H107.9C107.769 19.1862 107.661 19.293 107.661 19.4242V33.588C107.661 33.7209 107.769 33.8262 107.9 33.8262H111.147C111.278 33.8262 111.385 33.7209 111.385 33.588V19.4252C111.385 19.294 111.28 19.1872 111.147 19.1872V19.1862ZM109.542 12.7366C108.256 12.7366 107.213 13.7778 107.213 15.064C107.213 16.3509 108.256 17.3934 109.542 17.3934C110.829 17.3934 111.869 16.3509 111.869 15.064C111.869 13.778 110.826 12.7366 109.542 12.7366ZM137.985 23.7404C136.701 23.7404 135.7 22.7085 135.7 21.4554C135.7 20.2023 136.713 19.1586 137.997 19.1586C139.281 19.1586 140.282 20.1903 140.282 21.4424C140.282 22.6955 139.269 23.7404 137.985 23.7404ZM137.997 19.3858C136.826 19.3858 135.941 20.3161 135.941 21.4554C135.941 22.5942 136.821 23.512 137.985 23.512C139.156 23.512 140.041 22.5824 140.041 21.4424C140.041 20.3036 139.161 19.3858 137.997 19.3858ZM138.504 21.6773L139.151 22.5821H138.604L138.022 21.7521H137.523V22.5821H137.067V20.1837H138.135C138.695 20.1837 139.061 20.4689 139.061 20.9488C139.063 21.3421 138.835 21.5823 138.506 21.6773H138.504ZM138.118 20.5953H137.523V21.3538H138.118C138.414 21.3538 138.592 21.2086 138.592 20.9742C138.592 20.7274 138.414 20.5953 138.118 20.5953Z" fill="#1ED760"/>
</g>
<defs>
<clipPath id="clip0_797_9626">
<rect width="140" height="48" fill="white" transform="translate(0.171875)"/>
</clipPath>
</defs>
</svg>
