<svg width="20" height="26" viewBox="0 0 20 26" fill="none" xmlns="http://www.w3.org/2000/svg">
<mask id="path-1-inside-1_92_396" fill="white">
<path fill-rule="evenodd" clip-rule="evenodd" d="M11.6059 1.3692C10.8063 0.291971 9.19372 0.291973 8.39409 1.3692L3.70999 7.67938C1.44678 9.51273 0 12.3143 0 15.4539C0 20.9767 4.47715 25.4539 10 25.4539C15.5228 25.4539 20 20.9767 20 15.4539C20 12.3143 18.5532 9.51273 16.29 7.67938L11.6059 1.3692Z"/>
</mask>
<path fill-rule="evenodd" clip-rule="evenodd" d="M11.6059 1.3692C10.8063 0.291971 9.19372 0.291973 8.39409 1.3692L3.70999 7.67938C1.44678 9.51273 0 12.3143 0 15.4539C0 20.9767 4.47715 25.4539 10 25.4539C15.5228 25.4539 20 20.9767 20 15.4539C20 12.3143 18.5532 9.51273 16.29 7.67938L11.6059 1.3692Z" fill="#FF6611"/>
<path d="M8.39409 1.3692L7.59113 0.773162L7.59113 0.773162L8.39409 1.3692ZM11.6059 1.3692L12.4089 0.773159V0.773159L11.6059 1.3692ZM3.70999 7.67938L4.33945 8.45642L4.43763 8.37688L4.51295 8.27542L3.70999 7.67938ZM16.29 7.67938L15.4871 8.27542L15.5624 8.37689L15.6606 8.45642L16.29 7.67938ZM9.19704 1.96524C9.59686 1.42663 10.4031 1.42663 10.803 1.96524L12.4089 0.773159C11.2094 -0.842684 8.79058 -0.842678 7.59113 0.773162L9.19704 1.96524ZM4.51295 8.27542L9.19704 1.96524L7.59113 0.773162L2.90704 7.08334L4.51295 8.27542ZM1 15.4539C1 12.6287 2.30055 10.1081 4.33945 8.45642L3.08054 6.90234C0.59301 8.9174 -1 12 -1 15.4539H1ZM10 24.4539C5.02944 24.4539 1 20.4244 1 15.4539H-1C-1 21.529 3.92487 26.4539 10 26.4539V24.4539ZM19 15.4539C19 20.4244 14.9706 24.4539 10 24.4539V26.4539C16.0751 26.4539 21 21.529 21 15.4539H19ZM15.6606 8.45642C17.6995 10.1081 19 12.6287 19 15.4539H21C21 12 19.407 8.9174 16.9195 6.90234L15.6606 8.45642ZM10.803 1.96524L15.4871 8.27542L17.093 7.08334L12.4089 0.773159L10.803 1.96524Z" fill="white" mask="url(#path-1-inside-1_92_396)"/>
<path d="M7.46049 14.6781L13.7675 14.6781L12.0034 12.9141C11.8777 12.7883 11.8777 12.5844 12.0034 12.4587C12.1292 12.333 12.333 12.333 12.4587 12.4587L14.7725 14.7725C14.7744 14.7744 14.7762 14.7762 14.7781 14.7782L14.7809 14.7812L14.7834 14.7839C14.7847 14.7853 14.7858 14.7867 14.7871 14.7881L14.7885 14.7897C14.79 14.7914 14.7914 14.7931 14.7928 14.7948L14.7934 14.7955C14.7966 14.7994 14.7997 14.8034 14.8027 14.8074L14.8029 14.8076C14.8107 14.818 14.8178 14.8288 14.8241 14.8399L14.8242 14.8399C14.8255 14.8422 14.8267 14.8444 14.8279 14.8466L14.828 14.8468C14.8291 14.8489 14.8303 14.8511 14.8314 14.8533L14.8318 14.854C14.8328 14.856 14.8339 14.8582 14.8349 14.8603L14.8353 14.8613C14.8362 14.8631 14.8371 14.865 14.8379 14.8669L14.8389 14.8691L14.8409 14.8736L14.8423 14.877L14.8438 14.8805L14.8454 14.8845L14.8465 14.8875C14.8471 14.8892 14.8477 14.891 14.8484 14.8927L14.8489 14.8943C14.8497 14.8965 14.8504 14.8986 14.8511 14.9008L14.8512 14.9012C14.852 14.9035 14.8527 14.9059 14.8534 14.9082L14.8536 14.9087C14.8593 14.928 14.8632 14.9481 14.8653 14.9689L14.8654 14.9705C14.8655 14.9726 14.8658 14.9746 14.8659 14.9767L14.8661 14.9788C14.8662 14.9806 14.8664 14.9824 14.8664 14.9842L14.8666 14.9886L14.8667 14.9922C14.8668 14.9948 14.8668 14.9975 14.8668 15.0001C14.8668 15.0027 14.8668 15.0054 14.8667 15.008L14.8666 15.0117L14.8664 15.016C14.8663 15.0178 14.8663 15.0196 14.8661 15.0214L14.8659 15.0235C14.8658 15.0256 14.8656 15.0276 14.8654 15.0297L14.8653 15.0313C14.8632 15.0521 14.8593 15.0722 14.8536 15.0916L14.8534 15.092C14.8527 15.0944 14.852 15.0967 14.8512 15.099L14.8511 15.0994C14.8505 15.1016 14.8497 15.1038 14.8489 15.106L14.8484 15.1075C14.8477 15.1093 14.8472 15.111 14.8465 15.1127L14.8454 15.1157L14.8438 15.1197L14.8423 15.1232L14.8409 15.1266L14.8389 15.1311L14.8379 15.1333C14.8371 15.1352 14.8362 15.1371 14.8353 15.139L14.8349 15.1399C14.8339 15.142 14.8328 15.1441 14.8318 15.1462L14.8314 15.1469C14.8303 15.1491 14.8291 15.1513 14.828 15.1534L14.8279 15.1536C14.8267 15.1558 14.8255 15.158 14.8242 15.1603L14.8241 15.1603C14.8178 15.1714 14.8107 15.1822 14.8029 15.1926L14.8027 15.1928C14.7997 15.1969 14.7966 15.2008 14.7934 15.2047L14.7928 15.2054C14.7914 15.2071 14.79 15.2088 14.7885 15.2105L14.7871 15.2121L14.7834 15.2163L14.7809 15.219C14.7799 15.2201 14.779 15.221 14.7781 15.222C14.7762 15.224 14.7744 15.2258 14.7725 15.2277L12.4587 17.5415C12.333 17.6672 12.1291 17.6672 12.0034 17.5415C11.8777 17.4157 11.8777 17.2119 12.0034 17.0862L13.7675 15.3221L6.23265 15.3221L7.9967 17.0862C8.12246 17.2119 8.12241 17.4158 7.9967 17.5415C7.87094 17.6672 7.66709 17.6672 7.54138 17.5415L5.22761 15.2277C5.22574 15.2258 5.22387 15.224 5.22206 15.222L5.21925 15.219L5.21672 15.2163C5.21546 15.2149 5.2143 15.2135 5.21304 15.2121L5.21161 15.2105C5.21012 15.2088 5.20875 15.2071 5.20726 15.2054L5.20671 15.2047C5.20347 15.2008 5.20039 15.1969 5.19737 15.1928L5.1972 15.1926C5.18945 15.1822 5.1823 15.1714 5.17597 15.1603L5.17592 15.1603C5.1746 15.1581 5.17339 15.1559 5.17218 15.1536L5.17213 15.1534C5.17097 15.1513 5.16982 15.1491 5.16872 15.1469L5.16833 15.1462C5.16729 15.1442 5.16624 15.142 5.16525 15.1399L5.16481 15.139C5.16393 15.1371 5.16305 15.1352 5.16217 15.1333L5.16118 15.1311L5.1592 15.1266L5.15777 15.1232L5.15634 15.1197L5.15475 15.1157L5.15365 15.1127L5.15178 15.1074L5.15123 15.1059C5.15046 15.1037 5.14974 15.1016 5.14903 15.0993L5.14892 15.099C5.14815 15.0967 5.14744 15.0943 5.14672 15.0919L5.14661 15.0915C5.14089 15.0721 5.13688 15.052 5.1349 15.0313L5.13479 15.0296C5.13462 15.0276 5.13446 15.0256 5.13424 15.0235L5.13407 15.0213C5.13396 15.0196 5.1338 15.0178 5.13374 15.0159L5.13358 15.0116L5.13347 15.008C5.13336 15.0053 5.13336 15.0027 5.13336 15C5.13336 14.9974 5.13336 14.9948 5.13347 14.9921L5.13363 14.9884C5.13369 14.987 5.13369 14.9855 5.1338 14.9841C5.13385 14.9823 5.13396 14.9805 5.13413 14.9787L5.13429 14.9766C5.13446 14.9745 5.13462 14.9725 5.13484 14.9704L5.13495 14.9688C5.13699 14.948 5.14095 14.9279 5.14666 14.9085L5.14678 14.9081C5.14749 14.9057 5.1482 14.9034 5.14897 14.9011L5.14908 14.9007C5.1498 14.8985 5.15051 14.8963 5.15128 14.8941L5.15183 14.8926L5.1537 14.8873L5.1548 14.8843L5.1564 14.8803L5.15783 14.8768L5.15926 14.8734L5.16124 14.8689L5.16223 14.8667C5.16311 14.8648 5.16399 14.863 5.16487 14.8611L5.16531 14.8601C5.1663 14.858 5.16734 14.856 5.16839 14.8538L5.16877 14.8531C5.16987 14.8509 5.17103 14.8488 5.17218 14.8466L5.17224 14.8465C5.17345 14.8443 5.17471 14.842 5.17597 14.8398L5.17603 14.8397C5.18235 14.8286 5.1895 14.8179 5.19726 14.8075L5.19742 14.8072C5.20045 14.8032 5.20352 14.7992 5.20677 14.7953L5.20732 14.7947C5.20869 14.793 5.21018 14.7913 5.21166 14.7895L5.21309 14.7879C5.2143 14.7865 5.21551 14.7851 5.21678 14.7838L5.21931 14.781L5.22211 14.778C5.22393 14.7761 5.2258 14.7742 5.22767 14.7723L7.54143 12.4586C7.66719 12.3328 7.87104 12.3329 7.99675 12.4586C8.12251 12.5843 8.12246 12.7882 7.99675 12.9139L6.23271 14.6779L7.4604 14.6779L7.46049 14.6781Z" fill="white"/>
</svg>
